<svg xmlns="http://www.w3.org/2000/svg" width="1200" height="630" viewBox="0 0 1200 630"><rect width="1200" height="630" fill="#16181D"/><rect width="1200" height="630" fill="url(#g)"/><defs><radialGradient id="g" cx="0.8" cy="0.1" r="0.9"><stop offset="0" stop-color="#F2A623" stop-opacity="0.10"/><stop offset="0.5" stop-color="#F2A623" stop-opacity="0"/></radialGradient></defs><g transform="translate(84,74) scale(0.44)"><path d="M 247.00,134.41 Q 256.00,150.00 247.00,165.59 L 212.00,226.21 Q 203.00,241.80 185.00,241.80 L 115.00,241.80 Q 97.00,241.80 88.00,226.21 L 53.00,165.59 Q 44.00,150.00 53.00,134.41 L 88.00,73.79 Q 97.00,58.20 115.00,58.20 L 185.00,58.20 Q 203.00,58.20 212.00,73.79 Z" fill="none" stroke="#F2A623" stroke-width="12.3" stroke-linejoin="round"/><path d="M 118,198 L 118,117 L 150,170.46 L 182,117 L 182,198" fill="none" stroke="#F2A623" stroke-width="28" stroke-linecap="round" stroke-linejoin="round"/></g><g transform="translate(242,178.3718535908809)"><path d="M 27.737 0 L 7.674 0 L 7.674 -76.744 L 25.545 -76.744 L 52.515 -32.342 L 78.827 -76.744 L 96.697 -76.744 L 96.916 0 L 76.963 0 L 76.744 -40.674 L 57.01 -7.565 L 47.362 -7.565 L 27.737 -39.578 L 27.737 0 M 141.099 0.987 L 141.099 0.987 Q 130.574 0.987 122.735 -3.015 Q 114.896 -7.017 110.566 -13.978 Q 106.235 -20.94 106.235 -29.82 L 106.235 -29.82 Q 106.235 -38.701 110.511 -45.608 Q 114.787 -52.515 122.187 -56.461 Q 129.587 -60.408 138.906 -60.408 L 138.906 -60.408 Q 147.677 -60.408 154.913 -56.79 Q 162.148 -53.172 166.424 -46.32 Q 170.7 -39.468 170.7 -29.601 L 170.7 -29.601 Q 170.7 -28.505 170.59 -27.08 Q 170.481 -25.654 170.371 -24.448 L 170.371 -24.448 L 127.175 -24.448 Q 128.491 -19.953 132.273 -17.432 Q 136.056 -14.91 141.757 -14.91 L 141.757 -14.91 Q 146.142 -14.91 149.267 -16.171 Q 152.391 -17.432 155.461 -20.063 L 155.461 -20.063 L 166.424 -8.661 Q 157.763 0.987 141.099 0.987 M 126.846 -35.412 L 126.846 -35.412 L 151.185 -35.412 Q 150.308 -40.126 147.074 -42.867 Q 143.84 -45.608 139.016 -45.608 L 139.016 -45.608 Q 134.192 -45.608 130.958 -42.867 Q 127.723 -40.126 126.846 -35.412 M 199.863 0 L 179.032 0 L 179.032 -59.422 L 198.876 -59.422 L 198.876 -52.953 Q 202.384 -56.681 207.263 -58.544 Q 212.142 -60.408 217.733 -60.408 L 217.733 -60.408 Q 224.64 -60.408 230.231 -57.613 Q 235.822 -54.817 239.057 -49.006 Q 242.291 -43.196 242.291 -33.986 L 242.291 -33.986 L 242.291 0 L 221.46 0 L 221.46 -30.588 Q 221.46 -36.947 218.829 -39.852 Q 216.198 -42.757 211.703 -42.757 L 211.703 -42.757 Q 206.66 -42.757 203.261 -39.413 Q 199.863 -36.07 199.863 -28.724 L 199.863 -28.724 L 199.863 0" fill="#FFFFFF"/><path d="M 280.553 0.987 L 280.553 0.987 Q 269.151 0.987 262.792 -4.659 Q 256.434 -10.306 256.434 -21.708 L 256.434 -21.708 L 256.434 -43.963 L 247.773 -43.963 L 247.773 -59.422 L 256.434 -59.422 L 256.434 -72.687 L 277.264 -72.687 L 277.264 -59.422 L 290.859 -59.422 L 290.859 -43.963 L 277.264 -43.963 L 277.264 -21.927 Q 277.264 -18.638 278.963 -16.884 Q 280.663 -15.129 283.513 -15.129 L 283.513 -15.129 Q 287.131 -15.129 289.872 -16.993 L 289.872 -16.993 L 295.025 -2.412 Q 292.284 -0.658 288.447 0.164 Q 284.61 0.987 280.553 0.987 M 331.533 0.987 L 331.533 0.987 Q 321.775 0.987 314.211 -2.96 Q 306.646 -6.907 302.315 -13.869 Q 297.985 -20.83 297.985 -29.82 L 297.985 -29.82 Q 297.985 -38.701 302.315 -45.663 Q 306.646 -52.624 314.211 -56.516 Q 321.775 -60.408 331.533 -60.408 L 331.533 -60.408 Q 341.29 -60.408 348.91 -56.516 Q 356.529 -52.624 360.805 -45.663 Q 365.081 -38.701 365.081 -29.82 L 365.081 -29.82 Q 365.081 -20.83 360.805 -13.869 Q 356.529 -6.907 348.91 -2.96 Q 341.29 0.987 331.533 0.987 M 331.533 -15.568 L 331.533 -15.568 Q 336.905 -15.568 340.468 -19.296 Q 344.031 -23.023 344.031 -29.82 L 344.031 -29.82 Q 344.031 -36.508 340.468 -40.181 Q 336.905 -43.854 331.533 -43.854 L 331.533 -43.854 Q 326.27 -43.854 322.652 -40.181 Q 319.035 -36.508 319.035 -29.82 L 319.035 -29.82 Q 319.035 -23.023 322.652 -19.296 Q 326.27 -15.568 331.533 -15.568 M 394.243 0 L 373.413 0 L 373.413 -59.422 L 393.257 -59.422 L 393.257 -52.295 Q 399.725 -60.408 413.21 -60.408 L 413.21 -60.408 L 413.21 -41.661 Q 410.579 -41.99 408.496 -41.99 L 408.496 -41.99 Q 402.137 -41.99 398.19 -38.536 Q 394.243 -35.083 394.243 -27.299 L 394.243 -27.299 L 394.243 0" fill="#F2A623"/><path d="M 446.1 0.987 L 446.1 0.987 Q 437.987 0.987 431.409 -2.741 Q 424.831 -6.468 420.884 -13.375 Q 416.938 -20.282 416.938 -29.711 L 416.938 -29.711 Q 416.938 -39.139 420.884 -46.046 Q 424.831 -52.953 431.409 -56.681 Q 437.987 -60.408 446.1 -60.408 L 446.1 -60.408 Q 457.721 -60.408 463.642 -53.501 L 463.642 -53.501 L 463.642 -59.422 L 483.485 -59.422 L 483.485 21.269 L 462.655 21.269 L 462.655 -5.153 Q 456.625 0.987 446.1 0.987 M 450.486 -15.568 L 450.486 -15.568 Q 455.748 -15.568 459.366 -19.241 Q 462.984 -22.913 462.984 -29.711 L 462.984 -29.711 Q 462.984 -36.398 459.366 -40.126 Q 455.748 -43.854 450.486 -43.854 L 450.486 -43.854 Q 445.223 -43.854 441.605 -40.126 Q 437.987 -36.398 437.987 -29.711 L 437.987 -29.711 Q 437.987 -22.913 441.605 -19.241 Q 445.223 -15.568 450.486 -15.568 M 520.542 0.987 L 520.542 0.987 Q 513.196 0.987 507.495 -1.919 Q 501.794 -4.824 498.56 -10.799 Q 495.326 -16.774 495.326 -26.202 L 495.326 -26.202 L 495.326 -59.422 L 516.156 -59.422 L 516.156 -29.601 Q 516.156 -22.694 518.787 -19.734 Q 521.419 -16.774 526.023 -16.774 L 526.023 -16.774 Q 530.628 -16.774 533.917 -20.063 Q 537.206 -23.352 537.206 -30.807 L 537.206 -30.807 L 537.206 -59.422 L 558.036 -59.422 L 558.036 0 L 538.193 0 L 538.193 -6.359 Q 534.794 -2.631 530.189 -0.822 Q 525.585 0.987 520.542 0.987 M 601.232 0.987 L 601.232 0.987 Q 590.707 0.987 582.868 -3.015 Q 575.03 -7.017 570.699 -13.978 Q 566.369 -20.94 566.369 -29.82 L 566.369 -29.82 Q 566.369 -38.701 570.644 -45.608 Q 574.92 -52.515 582.32 -56.461 Q 589.721 -60.408 599.039 -60.408 L 599.039 -60.408 Q 607.81 -60.408 615.046 -56.79 Q 622.282 -53.172 626.558 -46.32 Q 630.833 -39.468 630.833 -29.601 L 630.833 -29.601 Q 630.833 -28.505 630.724 -27.08 Q 630.614 -25.654 630.504 -24.448 L 630.504 -24.448 L 587.309 -24.448 Q 588.624 -19.953 592.407 -17.432 Q 596.189 -14.91 601.89 -14.91 L 601.89 -14.91 Q 606.275 -14.91 609.4 -16.171 Q 612.524 -17.432 615.594 -20.063 L 615.594 -20.063 L 626.558 -8.661 Q 617.896 0.987 601.232 0.987 M 586.98 -35.412 L 586.98 -35.412 L 611.318 -35.412 Q 610.441 -40.126 607.207 -42.867 Q 603.973 -45.608 599.149 -45.608 L 599.149 -45.608 Q 594.325 -45.608 591.091 -42.867 Q 587.857 -40.126 586.98 -35.412" fill="#FFFFFF"/></g><g transform="translate(84,300)"><path d="M 9.106 0 L -0.522 0 L 17.574 -40.6 L 26.854 -40.6 L 45.008 0 L 35.148 0 L 31.552 -8.7 L 12.702 -8.7 L 9.106 0 M 22.156 -31.32 L 15.66 -15.834 L 28.594 -15.834 L 22.156 -31.32 M 66.468 0.464 L 66.468 0.464 Q 63.568 0.464 61.19 -0.464 Q 58.812 -1.392 57.072 -3.306 L 57.072 -3.306 L 57.072 11.252 L 48.024 11.252 L 48.024 -31.204 L 56.666 -31.204 L 56.666 -27.608 Q 60.03 -31.668 66.468 -31.668 L 66.468 -31.668 Q 70.818 -31.668 74.356 -29.667 Q 77.894 -27.666 79.953 -24.07 Q 82.012 -20.474 82.012 -15.602 L 82.012 -15.602 Q 82.012 -10.672 79.953 -7.076 Q 77.894 -3.48 74.356 -1.508 Q 70.818 0.464 66.468 0.464 M 64.902 -6.96 L 64.902 -6.96 Q 68.266 -6.96 70.557 -9.251 Q 72.848 -11.542 72.848 -15.602 L 72.848 -15.602 Q 72.848 -19.604 70.557 -21.924 Q 68.266 -24.244 64.902 -24.244 L 64.902 -24.244 Q 61.48 -24.244 59.218 -21.924 Q 56.956 -19.604 56.956 -15.602 L 56.956 -15.602 Q 56.956 -11.542 59.218 -9.251 Q 61.48 -6.96 64.902 -6.96 M 96.512 0 L 87.464 0 L 87.464 -31.204 L 96.106 -31.204 L 96.106 -27.086 Q 99.412 -31.668 106.836 -31.668 L 106.836 -31.668 L 106.836 -23.316 Q 105.676 -23.432 104.806 -23.432 L 104.806 -23.432 Q 101.036 -23.432 98.774 -21.315 Q 96.512 -19.198 96.512 -14.732 L 96.512 -14.732 L 96.512 0 M 127.368 0.464 L 127.368 0.464 Q 121.974 0.464 117.972 -1.624 Q 113.97 -3.712 111.766 -7.337 Q 109.562 -10.962 109.562 -15.602 L 109.562 -15.602 Q 109.562 -20.3 111.737 -23.925 Q 113.912 -27.55 117.682 -29.609 Q 121.452 -31.668 126.208 -31.668 L 126.208 -31.668 Q 130.79 -31.668 134.473 -29.696 Q 138.156 -27.724 140.302 -24.099 Q 142.448 -20.474 142.448 -15.486 L 142.448 -15.486 Q 142.448 -14.964 142.39 -14.297 Q 142.332 -13.63 142.274 -13.05 L 142.274 -13.05 L 118.668 -13.05 Q 119.364 -10.15 121.713 -8.468 Q 124.062 -6.786 127.6 -6.786 L 127.6 -6.786 Q 130.094 -6.786 131.979 -7.54 Q 133.864 -8.294 135.43 -9.802 L 135.43 -9.802 L 140.244 -4.582 Q 135.836 0.464 127.368 0.464 M 118.61 -18.328 L 118.61 -18.328 L 133.922 -18.328 Q 133.458 -21.286 131.399 -23.055 Q 129.34 -24.824 126.266 -24.824 L 126.266 -24.824 Q 123.192 -24.824 121.133 -23.055 Q 119.074 -21.286 118.61 -18.328 M 156.948 0 L 147.9 0 L 147.9 -31.204 L 156.542 -31.204 L 156.542 -27.492 Q 158.34 -29.522 161.008 -30.595 Q 163.676 -31.668 166.866 -31.668 L 166.866 -31.668 Q 170.578 -31.668 173.507 -30.189 Q 176.436 -28.71 178.118 -25.665 Q 179.8 -22.62 179.8 -17.864 L 179.8 -17.864 L 179.8 0 L 170.752 0 L 170.752 -16.472 Q 170.752 -20.242 169.07 -22.04 Q 167.388 -23.838 164.43 -23.838 L 164.43 -23.838 Q 161.182 -23.838 159.065 -21.779 Q 156.948 -19.72 156.948 -15.428 L 156.948 -15.428 L 156.948 0 M 200.796 0.464 L 200.796 0.464 Q 196.388 0.464 192.85 -1.508 Q 189.312 -3.48 187.253 -7.105 Q 185.194 -10.73 185.194 -15.602 L 185.194 -15.602 Q 185.194 -20.532 187.253 -24.128 Q 189.312 -27.724 192.85 -29.696 Q 196.388 -31.668 200.796 -31.668 L 200.796 -31.668 Q 203.638 -31.668 206.016 -30.74 Q 208.394 -29.812 210.134 -27.898 L 210.134 -27.898 L 210.134 -43.036 L 219.182 -43.036 L 219.182 0 L 210.54 0 L 210.54 -3.596 Q 207.234 0.464 200.796 0.464 M 202.362 -6.96 L 202.362 -6.96 Q 205.726 -6.96 208.017 -9.28 Q 210.308 -11.6 210.308 -15.602 L 210.308 -15.602 Q 210.308 -19.662 208.017 -21.953 Q 205.726 -24.244 202.362 -24.244 L 202.362 -24.244 Q 198.94 -24.244 196.649 -21.953 Q 194.358 -19.662 194.358 -15.602 L 194.358 -15.602 Q 194.358 -11.6 196.649 -9.28 Q 198.94 -6.96 202.362 -6.96 M 254.562 0 L 246.094 0 L 246.094 -3.828 Q 243.484 0.464 236.582 0.464 L 236.582 0.464 Q 231.072 0.464 227.998 -2.233 Q 224.924 -4.93 224.924 -8.99 L 224.924 -8.99 Q 224.924 -13.108 228.056 -15.718 Q 231.188 -18.328 238.322 -18.328 L 238.322 -18.328 L 245.514 -18.328 L 245.514 -18.328 Q 245.514 -21.228 243.745 -22.852 Q 241.976 -24.476 238.322 -24.476 L 238.322 -24.476 Q 235.828 -24.476 233.421 -23.693 Q 231.014 -22.91 229.332 -21.576 L 229.332 -21.576 L 226.084 -27.898 Q 228.636 -29.696 232.232 -30.682 Q 235.828 -31.668 239.54 -31.668 L 239.54 -31.668 Q 246.674 -31.668 250.618 -28.275 Q 254.562 -24.882 254.562 -17.806 L 254.562 -17.806 L 254.562 0 M 245.514 -9.86 L 245.514 -9.86 L 245.514 -13.05 L 239.308 -13.05 Q 236.118 -13.05 234.929 -12.006 Q 233.74 -10.962 233.74 -9.396 L 233.74 -9.396 Q 233.74 -7.656 235.103 -6.641 Q 236.466 -5.626 238.844 -5.626 L 238.844 -5.626 Q 241.106 -5.626 242.904 -6.699 Q 244.702 -7.772 245.514 -9.86 M 287.042 0 L 277.994 0 L 277.994 -31.204 L 286.636 -31.204 L 286.636 -27.608 Q 288.376 -29.58 290.899 -30.624 Q 293.422 -31.668 296.438 -31.668 L 296.438 -31.668 Q 299.686 -31.668 302.383 -30.392 Q 305.08 -29.116 306.704 -26.564 L 306.704 -26.564 Q 308.56 -28.942 311.489 -30.305 Q 314.418 -31.668 317.956 -31.668 L 317.956 -31.668 Q 321.668 -31.668 324.539 -30.189 Q 327.41 -28.71 329.063 -25.665 Q 330.716 -22.62 330.716 -17.864 L 330.716 -17.864 L 330.716 0 L 321.668 0 L 321.668 -16.472 Q 321.668 -20.242 320.073 -22.04 Q 318.478 -23.838 315.752 -23.838 L 315.752 -23.838 Q 312.678 -23.838 310.764 -21.837 Q 308.85 -19.836 308.85 -15.66 L 308.85 -15.66 L 308.85 0 L 299.802 0 L 299.802 -16.472 Q 299.802 -20.242 298.265 -22.04 Q 296.728 -23.838 293.886 -23.838 L 293.886 -23.838 Q 290.87 -23.838 288.956 -21.837 Q 287.042 -19.836 287.042 -15.66 L 287.042 -15.66 L 287.042 0 M 353.742 0.464 L 353.742 0.464 Q 348.348 0.464 344.346 -1.624 Q 340.344 -3.712 338.14 -7.337 Q 335.936 -10.962 335.936 -15.602 L 335.936 -15.602 Q 335.936 -20.3 338.111 -23.925 Q 340.286 -27.55 344.056 -29.609 Q 347.826 -31.668 352.582 -31.668 L 352.582 -31.668 Q 357.164 -31.668 360.847 -29.696 Q 364.53 -27.724 366.676 -24.099 Q 368.822 -20.474 368.822 -15.486 L 368.822 -15.486 Q 368.822 -14.964 368.764 -14.297 Q 368.706 -13.63 368.648 -13.05 L 368.648 -13.05 L 345.042 -13.05 Q 345.738 -10.15 348.087 -8.468 Q 350.436 -6.786 353.974 -6.786 L 353.974 -6.786 Q 356.468 -6.786 358.353 -7.54 Q 360.238 -8.294 361.804 -9.802 L 361.804 -9.802 L 366.618 -4.582 Q 362.21 0.464 353.742 0.464 M 344.984 -18.328 L 344.984 -18.328 L 360.296 -18.328 Q 359.832 -21.286 357.773 -23.055 Q 355.714 -24.824 352.64 -24.824 L 352.64 -24.824 Q 349.566 -24.824 347.507 -23.055 Q 345.448 -21.286 344.984 -18.328 M 389.354 0.464 L 389.354 0.464 Q 384.308 0.464 380.364 -1.595 Q 376.42 -3.654 374.187 -7.279 Q 371.954 -10.904 371.954 -15.602 L 371.954 -15.602 Q 371.954 -20.3 374.187 -23.925 Q 376.42 -27.55 380.364 -29.609 Q 384.308 -31.668 389.354 -31.668 L 389.354 -31.668 Q 394.284 -31.668 397.938 -29.609 Q 401.592 -27.55 403.332 -23.722 L 403.332 -23.722 L 396.314 -19.952 Q 395.096 -22.156 393.269 -23.2 Q 391.442 -24.244 389.296 -24.244 L 389.296 -24.244 Q 385.816 -24.244 383.467 -21.953 Q 381.118 -19.662 381.118 -15.602 L 381.118 -15.602 Q 381.118 -11.484 383.467 -9.222 Q 385.816 -6.96 389.296 -6.96 L 389.296 -6.96 Q 391.442 -6.96 393.269 -7.975 Q 395.096 -8.99 396.314 -11.252 L 396.314 -11.252 L 403.332 -7.424 Q 401.592 -3.712 397.938 -1.624 Q 394.284 0.464 389.354 0.464 M 435.58 0 L 427.112 0 L 427.112 -3.828 Q 424.502 0.464 417.6 0.464 L 417.6 0.464 Q 412.09 0.464 409.016 -2.233 Q 405.942 -4.93 405.942 -8.99 L 405.942 -8.99 Q 405.942 -13.108 409.074 -15.718 Q 412.206 -18.328 419.34 -18.328 L 419.34 -18.328 L 426.532 -18.328 L 426.532 -18.328 Q 426.532 -21.228 424.763 -22.852 Q 422.994 -24.476 419.34 -24.476 L 419.34 -24.476 Q 416.846 -24.476 414.439 -23.693 Q 412.032 -22.91 410.35 -21.576 L 410.35 -21.576 L 407.102 -27.898 Q 409.654 -29.696 413.25 -30.682 Q 416.846 -31.668 420.558 -31.668 L 420.558 -31.668 Q 427.692 -31.668 431.636 -28.275 Q 435.58 -24.882 435.58 -17.806 L 435.58 -17.806 L 435.58 0 M 426.532 -9.86 L 426.532 -9.86 L 426.532 -13.05 L 420.326 -13.05 Q 417.136 -13.05 415.947 -12.006 Q 414.758 -10.962 414.758 -9.396 L 414.758 -9.396 Q 414.758 -7.656 416.121 -6.641 Q 417.484 -5.626 419.862 -5.626 L 419.862 -5.626 Q 422.124 -5.626 423.922 -6.699 Q 425.72 -7.772 426.532 -9.86 M 416.44 -35.206 L 409.828 -35.206 L 417.484 -43.558 L 425.488 -43.558 L 433.144 -35.206 L 426.532 -35.206 L 421.486 -39.556 L 416.44 -35.206 M 452.226 0 L 443.178 0 L 443.178 -31.204 L 451.82 -31.204 L 451.82 -27.492 Q 453.618 -29.522 456.286 -30.595 Q 458.954 -31.668 462.144 -31.668 L 462.144 -31.668 Q 465.856 -31.668 468.785 -30.189 Q 471.714 -28.71 473.396 -25.665 Q 475.078 -22.62 475.078 -17.864 L 475.078 -17.864 L 475.078 0 L 466.03 0 L 466.03 -16.472 Q 466.03 -20.242 464.348 -22.04 Q 462.666 -23.838 459.708 -23.838 L 459.708 -23.838 Q 456.46 -23.838 454.343 -21.779 Q 452.226 -19.72 452.226 -15.428 L 452.226 -15.428 L 452.226 0 M 491.724 0 L 482.676 0 L 482.676 -31.204 L 491.724 -31.204 L 491.724 0 M 487.2 -35.554 L 487.2 -35.554 Q 484.706 -35.554 483.14 -37.004 Q 481.574 -38.454 481.574 -40.6 L 481.574 -40.6 Q 481.574 -42.688 483.14 -44.167 Q 484.706 -45.646 487.2 -45.646 L 487.2 -45.646 Q 489.694 -45.646 491.26 -44.254 Q 492.826 -42.862 492.826 -40.774 L 492.826 -40.774 Q 492.826 -38.512 491.289 -37.033 Q 489.752 -35.554 487.2 -35.554 M 514.634 0.464 L 514.634 0.464 Q 509.588 0.464 505.644 -1.595 Q 501.7 -3.654 499.467 -7.279 Q 497.234 -10.904 497.234 -15.602 L 497.234 -15.602 Q 497.234 -20.3 499.467 -23.925 Q 501.7 -27.55 505.644 -29.609 Q 509.588 -31.668 514.634 -31.668 L 514.634 -31.668 Q 519.564 -31.668 523.218 -29.609 Q 526.872 -27.55 528.612 -23.722 L 528.612 -23.722 L 521.594 -19.952 Q 520.376 -22.156 518.549 -23.2 Q 516.722 -24.244 514.576 -24.244 L 514.576 -24.244 Q 511.096 -24.244 508.747 -21.953 Q 506.398 -19.662 506.398 -15.602 L 506.398 -15.602 Q 506.398 -11.484 508.747 -9.222 Q 511.096 -6.96 514.576 -6.96 L 514.576 -6.96 Q 516.722 -6.96 518.549 -7.975 Q 520.376 -8.99 521.594 -11.252 L 521.594 -11.252 L 528.612 -7.424 Q 526.872 -3.712 523.218 -1.624 Q 519.564 0.464 514.634 0.464 M 560.86 0 L 552.392 0 L 552.392 -3.828 Q 549.782 0.464 542.88 0.464 L 542.88 0.464 Q 537.37 0.464 534.296 -2.233 Q 531.222 -4.93 531.222 -8.99 L 531.222 -8.99 Q 531.222 -13.108 534.354 -15.718 Q 537.486 -18.328 544.62 -18.328 L 544.62 -18.328 L 551.812 -18.328 L 551.812 -18.328 Q 551.812 -21.228 550.043 -22.852 Q 548.274 -24.476 544.62 -24.476 L 544.62 -24.476 Q 542.126 -24.476 539.719 -23.693 Q 537.312 -22.91 535.63 -21.576 L 535.63 -21.576 L 532.382 -27.898 Q 534.934 -29.696 538.53 -30.682 Q 542.126 -31.668 545.838 -31.668 L 545.838 -31.668 Q 552.972 -31.668 556.916 -28.275 Q 560.86 -24.882 560.86 -17.806 L 560.86 -17.806 L 560.86 0 M 551.812 -9.86 L 551.812 -9.86 L 551.812 -13.05 L 545.606 -13.05 Q 542.416 -13.05 541.227 -12.006 Q 540.038 -10.962 540.038 -9.396 L 540.038 -9.396 Q 540.038 -7.656 541.401 -6.641 Q 542.764 -5.626 545.142 -5.626 L 545.142 -5.626 Q 547.404 -5.626 549.202 -6.699 Q 551 -7.772 551.812 -9.86 M 599.372 0.464 L 599.372 0.464 Q 594.326 0.464 590.382 -1.595 Q 586.438 -3.654 584.205 -7.279 Q 581.972 -10.904 581.972 -15.602 L 581.972 -15.602 Q 581.972 -20.3 584.205 -23.925 Q 586.438 -27.55 590.382 -29.609 Q 594.326 -31.668 599.372 -31.668 L 599.372 -31.668 Q 604.302 -31.668 607.956 -29.609 Q 611.61 -27.55 613.35 -23.722 L 613.35 -23.722 L 606.332 -19.952 Q 605.114 -22.156 603.287 -23.2 Q 601.46 -24.244 599.314 -24.244 L 599.314 -24.244 Q 595.834 -24.244 593.485 -21.953 Q 591.136 -19.662 591.136 -15.602 L 591.136 -15.602 Q 591.136 -11.484 593.485 -9.222 Q 595.834 -6.96 599.314 -6.96 L 599.314 -6.96 Q 601.46 -6.96 603.287 -7.975 Q 605.114 -8.99 606.332 -11.252 L 606.332 -11.252 L 613.35 -7.424 Q 611.61 -3.712 607.956 -1.624 Q 604.302 0.464 599.372 0.464 M 632.838 0.464 L 632.838 0.464 Q 627.85 0.464 623.993 -1.595 Q 620.136 -3.654 617.903 -7.279 Q 615.67 -10.904 615.67 -15.602 L 615.67 -15.602 Q 615.67 -20.3 617.903 -23.925 Q 620.136 -27.55 623.993 -29.609 Q 627.85 -31.668 632.838 -31.668 L 632.838 -31.668 Q 637.768 -31.668 641.654 -29.609 Q 645.54 -27.55 647.744 -23.925 Q 649.948 -20.3 649.948 -15.602 L 649.948 -15.602 Q 649.948 -10.904 647.744 -7.279 Q 645.54 -3.654 641.654 -1.595 Q 637.768 0.464 632.838 0.464 M 632.838 -6.96 L 632.838 -6.96 Q 636.202 -6.96 638.493 -9.28 Q 640.784 -11.6 640.784 -15.602 L 640.784 -15.602 Q 640.784 -19.662 638.493 -21.953 Q 636.202 -24.244 632.838 -24.244 L 632.838 -24.244 Q 629.416 -24.244 627.125 -21.953 Q 624.834 -19.662 624.834 -15.602 L 624.834 -15.602 Q 624.834 -11.6 627.125 -9.28 Q 629.416 -6.96 632.838 -6.96 M 664.448 0 L 655.4 0 L 655.4 -31.204 L 664.042 -31.204 L 664.042 -27.608 Q 665.782 -29.58 668.305 -30.624 Q 670.828 -31.668 673.844 -31.668 L 673.844 -31.668 Q 677.092 -31.668 679.789 -30.392 Q 682.486 -29.116 684.11 -26.564 L 684.11 -26.564 Q 685.966 -28.942 688.895 -30.305 Q 691.824 -31.668 695.362 -31.668 L 695.362 -31.668 Q 699.074 -31.668 701.945 -30.189 Q 704.816 -28.71 706.469 -25.665 Q 708.122 -22.62 708.122 -17.864 L 708.122 -17.864 L 708.122 0 L 699.074 0 L 699.074 -16.472 Q 699.074 -20.242 697.479 -22.04 Q 695.884 -23.838 693.158 -23.838 L 693.158 -23.838 Q 690.084 -23.838 688.17 -21.837 Q 686.256 -19.836 686.256 -15.66 L 686.256 -15.66 L 686.256 0 L 677.208 0 L 677.208 -16.472 Q 677.208 -20.242 675.671 -22.04 Q 674.134 -23.838 671.292 -23.838 L 671.292 -23.838 Q 668.276 -23.838 666.362 -21.837 Q 664.448 -19.836 664.448 -15.66 L 664.448 -15.66 L 664.448 0 M 744.662 0.464 L 744.662 0.464 Q 740.776 0.464 737.731 -1.044 Q 734.686 -2.552 733.004 -5.655 Q 731.322 -8.758 731.322 -13.572 L 731.322 -13.572 L 731.322 -31.204 L 740.37 -31.204 L 740.37 -14.906 Q 740.37 -10.962 742.023 -9.164 Q 743.676 -7.366 746.692 -7.366 L 746.692 -7.366 Q 749.824 -7.366 751.854 -9.425 Q 753.884 -11.484 753.884 -15.776 L 753.884 -15.776 L 753.884 -31.204 L 762.932 -31.204 L 762.932 0 L 754.348 0 L 754.348 -3.654 Q 752.55 -1.624 750.027 -0.58 Q 747.504 0.464 744.662 0.464 M 779.81 0 L 770.762 0 L 770.762 -31.204 L 779.404 -31.204 L 779.404 -27.608 Q 781.144 -29.58 783.667 -30.624 Q 786.19 -31.668 789.206 -31.668 L 789.206 -31.668 Q 792.454 -31.668 795.151 -30.392 Q 797.848 -29.116 799.472 -26.564 L 799.472 -26.564 Q 801.328 -28.942 804.257 -30.305 Q 807.186 -31.668 810.724 -31.668 L 810.724 -31.668 Q 814.436 -31.668 817.307 -30.189 Q 820.178 -28.71 821.831 -25.665 Q 823.484 -22.62 823.484 -17.864 L 823.484 -17.864 L 823.484 0 L 814.436 0 L 814.436 -16.472 Q 814.436 -20.242 812.841 -22.04 Q 811.246 -23.838 808.52 -23.838 L 808.52 -23.838 Q 805.446 -23.838 803.532 -21.837 Q 801.618 -19.836 801.618 -15.66 L 801.618 -15.66 L 801.618 0 L 792.57 0 L 792.57 -16.472 Q 792.57 -20.242 791.033 -22.04 Q 789.496 -23.838 786.654 -23.838 L 786.654 -23.838 Q 783.638 -23.838 781.724 -21.837 Q 779.81 -19.836 779.81 -15.66 L 779.81 -15.66 L 779.81 0" fill="#FFFFFF"/></g><g transform="translate(84,370)"><path d="M 19.662 0.464 L 19.662 0.464 Q 14.268 0.464 10.266 -1.624 Q 6.264 -3.712 4.06 -7.337 Q 1.856 -10.962 1.856 -15.602 L 1.856 -15.602 Q 1.856 -20.3 4.031 -23.925 Q 6.206 -27.55 9.976 -29.609 Q 13.746 -31.668 18.502 -31.668 L 18.502 -31.668 Q 23.084 -31.668 26.767 -29.696 Q 30.45 -27.724 32.596 -24.099 Q 34.742 -20.474 34.742 -15.486 L 34.742 -15.486 Q 34.742 -14.964 34.684 -14.297 Q 34.626 -13.63 34.568 -13.05 L 34.568 -13.05 L 10.962 -13.05 Q 11.658 -10.15 14.007 -8.468 Q 16.356 -6.786 19.894 -6.786 L 19.894 -6.786 Q 22.388 -6.786 24.273 -7.54 Q 26.158 -8.294 27.724 -9.802 L 27.724 -9.802 L 32.538 -4.582 Q 28.13 0.464 19.662 0.464 M 10.904 -18.328 L 10.904 -18.328 L 26.216 -18.328 Q 25.752 -21.286 23.693 -23.055 Q 21.634 -24.824 18.56 -24.824 L 18.56 -24.824 Q 15.486 -24.824 13.427 -23.055 Q 11.368 -21.286 10.904 -18.328 M 50.692 0.464 L 50.692 0.464 Q 46.69 0.464 43.007 -0.493 Q 39.324 -1.45 37.178 -2.9 L 37.178 -2.9 L 40.194 -9.396 Q 42.282 -8.004 45.24 -7.192 Q 48.198 -6.38 51.04 -6.38 L 51.04 -6.38 Q 54.172 -6.38 55.477 -7.134 Q 56.782 -7.888 56.782 -9.222 L 56.782 -9.222 Q 56.782 -10.73 54.926 -11.252 Q 53.07 -11.774 50.46 -12.18 L 50.46 -12.18 Q 48.372 -12.47 46.197 -12.934 Q 44.022 -13.398 42.137 -14.326 Q 40.252 -15.254 39.092 -16.994 Q 37.932 -18.734 37.932 -21.576 L 37.932 -21.576 Q 37.932 -25.984 41.731 -28.826 Q 45.53 -31.668 52.374 -31.668 L 52.374 -31.668 Q 55.564 -31.668 58.841 -30.943 Q 62.118 -30.218 64.38 -28.942 L 64.38 -28.942 L 61.364 -22.504 Q 59.044 -23.838 56.782 -24.331 Q 54.52 -24.824 52.374 -24.824 L 52.374 -24.824 Q 49.3 -24.824 47.937 -23.983 Q 46.574 -23.142 46.574 -21.924 L 46.574 -21.924 Q 46.574 -20.59 47.937 -19.981 Q 49.3 -19.372 51.446 -19.053 Q 53.592 -18.734 55.999 -18.299 Q 58.406 -17.864 60.552 -16.965 Q 62.698 -16.066 64.061 -14.297 Q 65.424 -12.528 65.424 -9.454 L 65.424 -9.454 Q 65.424 -5.104 61.567 -2.32 Q 57.71 0.464 50.692 0.464 M 88.856 0.464 L 88.856 0.464 Q 85.956 0.464 83.578 -0.464 Q 81.2 -1.392 79.46 -3.306 L 79.46 -3.306 L 79.46 11.252 L 70.412 11.252 L 70.412 -31.204 L 79.054 -31.204 L 79.054 -27.608 Q 82.418 -31.668 88.856 -31.668 L 88.856 -31.668 Q 93.206 -31.668 96.744 -29.667 Q 100.282 -27.666 102.341 -24.07 Q 104.4 -20.474 104.4 -15.602 L 104.4 -15.602 Q 104.4 -10.672 102.341 -7.076 Q 100.282 -3.48 96.744 -1.508 Q 93.206 0.464 88.856 0.464 M 87.29 -6.96 L 87.29 -6.96 Q 90.654 -6.96 92.945 -9.251 Q 95.236 -11.542 95.236 -15.602 L 95.236 -15.602 Q 95.236 -19.604 92.945 -21.924 Q 90.654 -24.244 87.29 -24.244 L 87.29 -24.244 Q 83.868 -24.244 81.606 -21.924 Q 79.344 -19.604 79.344 -15.602 L 79.344 -15.602 Q 79.344 -11.542 81.606 -9.251 Q 83.868 -6.96 87.29 -6.96 M 125.338 0.464 L 125.338 0.464 Q 119.944 0.464 115.942 -1.624 Q 111.94 -3.712 109.736 -7.337 Q 107.532 -10.962 107.532 -15.602 L 107.532 -15.602 Q 107.532 -20.3 109.707 -23.925 Q 111.882 -27.55 115.652 -29.609 Q 119.422 -31.668 124.178 -31.668 L 124.178 -31.668 Q 128.76 -31.668 132.443 -29.696 Q 136.126 -27.724 138.272 -24.099 Q 140.418 -20.474 140.418 -15.486 L 140.418 -15.486 Q 140.418 -14.964 140.36 -14.297 Q 140.302 -13.63 140.244 -13.05 L 140.244 -13.05 L 116.638 -13.05 Q 117.334 -10.15 119.683 -8.468 Q 122.032 -6.786 125.57 -6.786 L 125.57 -6.786 Q 128.064 -6.786 129.949 -7.54 Q 131.834 -8.294 133.4 -9.802 L 133.4 -9.802 L 138.214 -4.582 Q 133.806 0.464 125.338 0.464 M 116.58 -18.328 L 116.58 -18.328 L 131.892 -18.328 Q 131.428 -21.286 129.369 -23.055 Q 127.31 -24.824 124.236 -24.824 L 124.236 -24.824 Q 121.162 -24.824 119.103 -23.055 Q 117.044 -21.286 116.58 -18.328 M 160.95 0.464 L 160.95 0.464 Q 155.904 0.464 151.96 -1.595 Q 148.016 -3.654 145.783 -7.279 Q 143.55 -10.904 143.55 -15.602 L 143.55 -15.602 Q 143.55 -20.3 145.783 -23.925 Q 148.016 -27.55 151.96 -29.609 Q 155.904 -31.668 160.95 -31.668 L 160.95 -31.668 Q 165.88 -31.668 169.534 -29.609 Q 173.188 -27.55 174.928 -23.722 L 174.928 -23.722 L 167.91 -19.952 Q 166.692 -22.156 164.865 -23.2 Q 163.038 -24.244 160.892 -24.244 L 160.892 -24.244 Q 157.412 -24.244 155.063 -21.953 Q 152.714 -19.662 152.714 -15.602 L 152.714 -15.602 Q 152.714 -11.484 155.063 -9.222 Q 157.412 -6.96 160.892 -6.96 L 160.892 -6.96 Q 163.038 -6.96 164.865 -7.975 Q 166.692 -8.99 167.91 -11.252 L 167.91 -11.252 L 174.928 -7.424 Q 173.188 -3.712 169.534 -1.624 Q 165.88 0.464 160.95 0.464 M 188.616 0 L 179.568 0 L 179.568 -31.204 L 188.616 -31.204 L 188.616 0 M 184.092 -35.554 L 184.092 -35.554 Q 181.598 -35.554 180.032 -37.004 Q 178.466 -38.454 178.466 -40.6 L 178.466 -40.6 Q 178.466 -42.688 180.032 -44.167 Q 181.598 -45.646 184.092 -45.646 L 184.092 -45.646 Q 186.586 -45.646 188.152 -44.254 Q 189.718 -42.862 189.718 -40.774 L 189.718 -40.774 Q 189.718 -38.512 188.181 -37.033 Q 186.644 -35.554 184.092 -35.554 M 224.054 0 L 215.586 0 L 215.586 -3.828 Q 212.976 0.464 206.074 0.464 L 206.074 0.464 Q 200.564 0.464 197.49 -2.233 Q 194.416 -4.93 194.416 -8.99 L 194.416 -8.99 Q 194.416 -13.108 197.548 -15.718 Q 200.68 -18.328 207.814 -18.328 L 207.814 -18.328 L 215.006 -18.328 L 215.006 -18.328 Q 215.006 -21.228 213.237 -22.852 Q 211.468 -24.476 207.814 -24.476 L 207.814 -24.476 Q 205.32 -24.476 202.913 -23.693 Q 200.506 -22.91 198.824 -21.576 L 198.824 -21.576 L 195.576 -27.898 Q 198.128 -29.696 201.724 -30.682 Q 205.32 -31.668 209.032 -31.668 L 209.032 -31.668 Q 216.166 -31.668 220.11 -28.275 Q 224.054 -24.882 224.054 -17.806 L 224.054 -17.806 L 224.054 0 M 215.006 -9.86 L 215.006 -9.86 L 215.006 -13.05 L 208.8 -13.05 Q 205.61 -13.05 204.421 -12.006 Q 203.232 -10.962 203.232 -9.396 L 203.232 -9.396 Q 203.232 -7.656 204.595 -6.641 Q 205.958 -5.626 208.336 -5.626 L 208.336 -5.626 Q 210.598 -5.626 212.396 -6.699 Q 214.194 -7.772 215.006 -9.86 M 240.7 0 L 231.652 0 L 231.652 -43.036 L 240.7 -43.036 L 240.7 0 M 257.578 0 L 248.53 0 L 248.53 -31.204 L 257.578 -31.204 L 257.578 0 M 253.054 -35.554 L 253.054 -35.554 Q 250.56 -35.554 248.994 -37.004 Q 247.428 -38.454 247.428 -40.6 L 247.428 -40.6 Q 247.428 -42.688 248.994 -44.167 Q 250.56 -45.646 253.054 -45.646 L 253.054 -45.646 Q 255.548 -45.646 257.114 -44.254 Q 258.68 -42.862 258.68 -40.774 L 258.68 -40.774 Q 258.68 -38.512 257.143 -37.033 Q 255.606 -35.554 253.054 -35.554 M 275.906 0.464 L 275.906 0.464 Q 271.904 0.464 268.221 -0.493 Q 264.538 -1.45 262.392 -2.9 L 262.392 -2.9 L 265.408 -9.396 Q 267.496 -8.004 270.454 -7.192 Q 273.412 -6.38 276.254 -6.38 L 276.254 -6.38 Q 279.386 -6.38 280.691 -7.134 Q 281.996 -7.888 281.996 -9.222 L 281.996 -9.222 Q 281.996 -10.73 280.14 -11.252 Q 278.284 -11.774 275.674 -12.18 L 275.674 -12.18 Q 273.586 -12.47 271.411 -12.934 Q 269.236 -13.398 267.351 -14.326 Q 265.466 -15.254 264.306 -16.994 Q 263.146 -18.734 263.146 -21.576 L 263.146 -21.576 Q 263.146 -25.984 266.945 -28.826 Q 270.744 -31.668 277.588 -31.668 L 277.588 -31.668 Q 280.778 -31.668 284.055 -30.943 Q 287.332 -30.218 289.594 -28.942 L 289.594 -28.942 L 286.578 -22.504 Q 284.258 -23.838 281.996 -24.331 Q 279.734 -24.824 277.588 -24.824 L 277.588 -24.824 Q 274.514 -24.824 273.151 -23.983 Q 271.788 -23.142 271.788 -21.924 L 271.788 -21.924 Q 271.788 -20.59 273.151 -19.981 Q 274.514 -19.372 276.66 -19.053 Q 278.806 -18.734 281.213 -18.299 Q 283.62 -17.864 285.766 -16.965 Q 287.912 -16.066 289.275 -14.297 Q 290.638 -12.528 290.638 -9.454 L 290.638 -9.454 Q 290.638 -5.104 286.781 -2.32 Q 282.924 0.464 275.906 0.464 M 308.386 0.464 L 308.386 0.464 Q 302.876 0.464 299.802 -2.349 Q 296.728 -5.162 296.728 -10.73 L 296.728 -10.73 L 296.728 -24.244 L 291.914 -24.244 L 291.914 -31.204 L 296.728 -31.204 L 296.728 -38.106 L 305.776 -38.106 L 305.776 -31.204 L 313.548 -31.204 L 313.548 -24.244 L 305.776 -24.244 L 305.776 -10.846 Q 305.776 -8.874 306.791 -7.801 Q 307.806 -6.728 309.662 -6.728 L 309.662 -6.728 Q 311.808 -6.728 313.316 -7.888 L 313.316 -7.888 L 315.752 -1.508 Q 314.36 -0.522 312.417 -0.029 Q 310.474 0.464 308.386 0.464 M 347.884 0 L 339.416 0 L 339.416 -3.828 Q 336.806 0.464 329.904 0.464 L 329.904 0.464 Q 324.394 0.464 321.32 -2.233 Q 318.246 -4.93 318.246 -8.99 L 318.246 -8.99 Q 318.246 -13.108 321.378 -15.718 Q 324.51 -18.328 331.644 -18.328 L 331.644 -18.328 L 338.836 -18.328 L 338.836 -18.328 Q 338.836 -21.228 337.067 -22.852 Q 335.298 -24.476 331.644 -24.476 L 331.644 -24.476 Q 329.15 -24.476 326.743 -23.693 Q 324.336 -22.91 322.654 -21.576 L 322.654 -21.576 L 319.406 -27.898 Q 321.958 -29.696 325.554 -30.682 Q 329.15 -31.668 332.862 -31.668 L 332.862 -31.668 Q 339.996 -31.668 343.94 -28.275 Q 347.884 -24.882 347.884 -17.806 L 347.884 -17.806 L 347.884 0 M 338.836 -9.86 L 338.836 -9.86 L 338.836 -13.05 L 332.63 -13.05 Q 329.44 -13.05 328.251 -12.006 Q 327.062 -10.962 327.062 -9.396 L 327.062 -9.396 Q 327.062 -7.656 328.425 -6.641 Q 329.788 -5.626 332.166 -5.626 L 332.166 -5.626 Q 334.428 -5.626 336.226 -6.699 Q 338.024 -7.772 338.836 -9.86" fill="#FFFFFF"/><g transform="translate(367.7200000000001,0)"><path d="M 13.224 0 L 4.176 0 L 4.176 -31.204 L 12.818 -31.204 L 12.818 -27.492 Q 14.616 -29.522 17.284 -30.595 Q 19.952 -31.668 23.142 -31.668 L 23.142 -31.668 Q 26.854 -31.668 29.783 -30.189 Q 32.712 -28.71 34.394 -25.665 Q 36.076 -22.62 36.076 -17.864 L 36.076 -17.864 L 36.076 0 L 27.028 0 L 27.028 -16.472 Q 27.028 -20.242 25.346 -22.04 Q 23.664 -23.838 20.706 -23.838 L 20.706 -23.838 Q 17.458 -23.838 15.341 -21.779 Q 13.224 -19.72 13.224 -15.428 L 13.224 -15.428 L 13.224 0 M 58.522 0.464 L 58.522 0.464 Q 53.534 0.464 49.677 -1.595 Q 45.82 -3.654 43.587 -7.279 Q 41.354 -10.904 41.354 -15.602 L 41.354 -15.602 Q 41.354 -20.3 43.587 -23.925 Q 45.82 -27.55 49.677 -29.609 Q 53.534 -31.668 58.522 -31.668 L 58.522 -31.668 Q 63.452 -31.668 67.338 -29.609 Q 71.224 -27.55 73.428 -23.925 Q 75.632 -20.3 75.632 -15.602 L 75.632 -15.602 Q 75.632 -10.904 73.428 -7.279 Q 71.224 -3.654 67.338 -1.595 Q 63.452 0.464 58.522 0.464 M 58.522 -6.96 L 58.522 -6.96 Q 61.886 -6.96 64.177 -9.28 Q 66.468 -11.6 66.468 -15.602 L 66.468 -15.602 Q 66.468 -19.662 64.177 -21.953 Q 61.886 -24.244 58.522 -24.244 L 58.522 -24.244 Q 55.1 -24.244 52.809 -21.953 Q 50.518 -19.662 50.518 -15.602 L 50.518 -15.602 Q 50.518 -11.6 52.809 -9.28 Q 55.1 -6.96 58.522 -6.96 M 115.362 0.464 L 115.362 0.464 Q 108.924 0.464 105.56 -3.596 L 105.56 -3.596 L 105.56 0 L 96.918 0 L 96.918 -43.036 L 105.966 -43.036 L 105.966 -27.898 Q 107.706 -29.812 110.084 -30.74 Q 112.462 -31.668 115.362 -31.668 L 115.362 -31.668 Q 119.712 -31.668 123.25 -29.696 Q 126.788 -27.724 128.847 -24.128 Q 130.906 -20.532 130.906 -15.602 L 130.906 -15.602 Q 130.906 -10.73 128.847 -7.105 Q 126.788 -3.48 123.25 -1.508 Q 119.712 0.464 115.362 0.464 M 113.796 -6.96 L 113.796 -6.96 Q 117.16 -6.96 119.451 -9.28 Q 121.742 -11.6 121.742 -15.602 L 121.742 -15.602 Q 121.742 -19.662 119.451 -21.953 Q 117.16 -24.244 113.796 -24.244 L 113.796 -24.244 Q 110.374 -24.244 108.112 -21.953 Q 105.85 -19.662 105.85 -15.602 L 105.85 -15.602 Q 105.85 -11.6 108.112 -9.28 Q 110.374 -6.96 113.796 -6.96 M 151.206 0.464 L 151.206 0.464 Q 146.218 0.464 142.361 -1.595 Q 138.504 -3.654 136.271 -7.279 Q 134.038 -10.904 134.038 -15.602 L 134.038 -15.602 Q 134.038 -20.3 136.271 -23.925 Q 138.504 -27.55 142.361 -29.609 Q 146.218 -31.668 151.206 -31.668 L 151.206 -31.668 Q 156.136 -31.668 160.022 -29.609 Q 163.908 -27.55 166.112 -23.925 Q 168.316 -20.3 168.316 -15.602 L 168.316 -15.602 Q 168.316 -10.904 166.112 -7.279 Q 163.908 -3.654 160.022 -1.595 Q 156.136 0.464 151.206 0.464 M 151.206 -6.96 L 151.206 -6.96 Q 154.57 -6.96 156.861 -9.28 Q 159.152 -11.6 159.152 -15.602 L 159.152 -15.602 Q 159.152 -19.662 156.861 -21.953 Q 154.57 -24.244 151.206 -24.244 L 151.206 -24.244 Q 147.784 -24.244 145.493 -21.953 Q 143.202 -19.662 143.202 -15.602 L 143.202 -15.602 Q 143.202 -11.6 145.493 -9.28 Q 147.784 -6.96 151.206 -6.96 M 182.816 0 L 173.768 0 L 173.768 -43.036 L 182.816 -43.036 L 182.816 0 M 201.144 0.464 L 201.144 0.464 Q 197.142 0.464 193.459 -0.493 Q 189.776 -1.45 187.63 -2.9 L 187.63 -2.9 L 190.646 -9.396 Q 192.734 -8.004 195.692 -7.192 Q 198.65 -6.38 201.492 -6.38 L 201.492 -6.38 Q 204.624 -6.38 205.929 -7.134 Q 207.234 -7.888 207.234 -9.222 L 207.234 -9.222 Q 207.234 -10.73 205.378 -11.252 Q 203.522 -11.774 200.912 -12.18 L 200.912 -12.18 Q 198.824 -12.47 196.649 -12.934 Q 194.474 -13.398 192.589 -14.326 Q 190.704 -15.254 189.544 -16.994 Q 188.384 -18.734 188.384 -21.576 L 188.384 -21.576 Q 188.384 -25.984 192.183 -28.826 Q 195.982 -31.668 202.826 -31.668 L 202.826 -31.668 Q 206.016 -31.668 209.293 -30.943 Q 212.57 -30.218 214.832 -28.942 L 214.832 -28.942 L 211.816 -22.504 Q 209.496 -23.838 207.234 -24.331 Q 204.972 -24.824 202.826 -24.824 L 202.826 -24.824 Q 199.752 -24.824 198.389 -23.983 Q 197.026 -23.142 197.026 -21.924 L 197.026 -21.924 Q 197.026 -20.59 198.389 -19.981 Q 199.752 -19.372 201.898 -19.053 Q 204.044 -18.734 206.451 -18.299 Q 208.858 -17.864 211.004 -16.965 Q 213.15 -16.066 214.513 -14.297 Q 215.876 -12.528 215.876 -9.454 L 215.876 -9.454 Q 215.876 -5.104 212.019 -2.32 Q 208.162 0.464 201.144 0.464 M 235.712 0.464 L 235.712 0.464 Q 230.724 0.464 226.867 -1.595 Q 223.01 -3.654 220.777 -7.279 Q 218.544 -10.904 218.544 -15.602 L 218.544 -15.602 Q 218.544 -20.3 220.777 -23.925 Q 223.01 -27.55 226.867 -29.609 Q 230.724 -31.668 235.712 -31.668 L 235.712 -31.668 Q 240.642 -31.668 244.528 -29.609 Q 248.414 -27.55 250.618 -23.925 Q 252.822 -20.3 252.822 -15.602 L 252.822 -15.602 Q 252.822 -10.904 250.618 -7.279 Q 248.414 -3.654 244.528 -1.595 Q 240.642 0.464 235.712 0.464 M 235.712 -6.96 L 235.712 -6.96 Q 239.076 -6.96 241.367 -9.28 Q 243.658 -11.6 243.658 -15.602 L 243.658 -15.602 Q 243.658 -19.662 241.367 -21.953 Q 239.076 -24.244 235.712 -24.244 L 235.712 -24.244 Q 232.29 -24.244 229.999 -21.953 Q 227.708 -19.662 227.708 -15.602 L 227.708 -15.602 Q 227.708 -11.6 229.999 -9.28 Q 232.29 -6.96 235.712 -6.96 M 261.696 0.464 L 261.696 0.464 Q 259.376 0.464 257.723 -1.131 Q 256.07 -2.726 256.07 -5.22 L 256.07 -5.22 Q 256.07 -7.714 257.723 -9.251 Q 259.376 -10.788 261.696 -10.788 L 261.696 -10.788 Q 264.074 -10.788 265.698 -9.251 Q 267.322 -7.714 267.322 -5.22 L 267.322 -5.22 Q 267.322 -2.726 265.698 -1.131 Q 264.074 0.464 261.696 0.464" fill="#F2A623"/></g></g><g transform="translate(84,470)"><path d="M 10.4 0 L 2.73 0 L 2.73 -18.2 L 10.4 -18.2 Q 13.312 -18.2 15.535 -17.056 Q 17.758 -15.912 18.993 -13.858 Q 20.228 -11.804 20.228 -9.1 L 20.228 -9.1 Q 20.228 -6.396 18.993 -4.342 Q 17.758 -2.288 15.535 -1.144 Q 13.312 0 10.4 0 L 10.4 0 M 5.33 -15.938 L 5.33 -2.262 L 10.244 -2.262 Q 12.506 -2.262 14.157 -3.12 Q 15.808 -3.978 16.718 -5.512 Q 17.628 -7.046 17.628 -9.1 L 17.628 -9.1 Q 17.628 -11.154 16.718 -12.688 Q 15.808 -14.222 14.157 -15.08 Q 12.506 -15.938 10.244 -15.938 L 10.244 -15.938 L 5.33 -15.938 M 29.744 0.156 L 29.744 0.156 Q 27.664 0.156 26.052 -0.754 Q 24.44 -1.664 23.504 -3.25 Q 22.568 -4.836 22.568 -6.89 L 22.568 -6.89 Q 22.568 -8.944 23.504 -10.53 Q 24.44 -12.116 26.052 -13.013 Q 27.664 -13.91 29.744 -13.91 L 29.744 -13.91 Q 31.798 -13.91 33.423 -13.013 Q 35.048 -12.116 35.971 -10.53 Q 36.894 -8.944 36.894 -6.89 L 36.894 -6.89 Q 36.894 -4.836 35.971 -3.25 Q 35.048 -1.664 33.423 -0.754 Q 31.798 0.156 29.744 0.156 M 29.744 -2.028 L 29.744 -2.028 Q 31.07 -2.028 32.123 -2.639 Q 33.176 -3.25 33.774 -4.342 Q 34.372 -5.434 34.372 -6.89 L 34.372 -6.89 Q 34.372 -8.346 33.774 -9.438 Q 33.176 -10.53 32.123 -11.128 Q 31.07 -11.726 29.744 -11.726 L 29.744 -11.726 Q 28.418 -11.726 27.365 -11.128 Q 26.312 -10.53 25.701 -9.438 Q 25.09 -8.346 25.09 -6.89 L 25.09 -6.89 Q 25.09 -5.434 25.701 -4.342 Q 26.312 -3.25 27.365 -2.639 Q 28.418 -2.028 29.744 -2.028 M 54.652 0.156 L 54.652 0.156 Q 53.144 0.156 51.87 -0.429 Q 50.596 -1.014 49.738 -2.158 L 49.738 -2.158 L 49.738 0 L 47.346 0 L 47.346 -19.292 L 49.842 -19.292 L 49.842 -11.726 Q 50.7 -12.818 51.948 -13.364 Q 53.196 -13.91 54.652 -13.91 L 54.652 -13.91 Q 56.654 -13.91 58.227 -13.039 Q 59.8 -12.168 60.71 -10.582 Q 61.62 -8.996 61.62 -6.89 L 61.62 -6.89 Q 61.62 -4.784 60.71 -3.198 Q 59.8 -1.612 58.227 -0.728 Q 56.654 0.156 54.652 0.156 M 54.444 -2.028 L 54.444 -2.028 Q 55.77 -2.028 56.823 -2.639 Q 57.876 -3.25 58.487 -4.342 Q 59.098 -5.434 59.098 -6.89 L 59.098 -6.89 Q 59.098 -8.346 58.487 -9.438 Q 57.876 -10.53 56.823 -11.128 Q 55.77 -11.726 54.444 -11.726 L 54.444 -11.726 Q 53.144 -11.726 52.091 -11.128 Q 51.038 -10.53 50.427 -9.438 Q 49.816 -8.346 49.816 -6.89 L 49.816 -6.89 Q 49.816 -5.434 50.427 -4.342 Q 51.038 -3.25 52.091 -2.639 Q 53.144 -2.028 54.444 -2.028 M 75.998 0 L 73.632 0 L 73.632 -1.794 Q 73.008 -0.884 71.864 -0.364 Q 70.72 0.156 69.108 0.156 L 69.108 0.156 Q 66.768 0.156 65.39 -0.975 Q 64.012 -2.106 64.012 -3.9 L 64.012 -3.9 Q 64.012 -5.018 64.545 -5.928 Q 65.078 -6.838 66.287 -7.384 Q 67.496 -7.93 69.55 -7.93 L 69.55 -7.93 L 73.502 -7.93 L 73.502 -8.424 Q 73.502 -10.01 72.579 -10.881 Q 71.656 -11.752 69.81 -11.752 L 69.81 -11.752 Q 68.588 -11.752 67.418 -11.349 Q 66.248 -10.946 65.442 -10.27 L 65.442 -10.27 L 64.402 -12.142 Q 65.468 -13 66.963 -13.455 Q 68.458 -13.91 70.096 -13.91 L 70.096 -13.91 Q 72.93 -13.91 74.464 -12.519 Q 75.998 -11.128 75.998 -8.32 L 75.998 -8.32 L 75.998 0 M 73.502 -4.212 L 73.502 -4.212 L 73.502 -6.136 L 69.654 -6.136 Q 67.782 -6.136 67.132 -5.512 Q 66.482 -4.888 66.482 -4.004 L 66.482 -4.004 Q 66.482 -2.964 67.288 -2.366 Q 68.094 -1.768 69.524 -1.768 L 69.524 -1.768 Q 70.928 -1.768 71.981 -2.392 Q 73.034 -3.016 73.502 -4.212 M 70.668 -15.782 L 68.328 -15.782 L 71.864 -19.162 L 75.036 -19.162 L 70.668 -15.782 M 84.578 0.156 L 84.578 0.156 Q 82.862 0.156 81.302 -0.312 Q 79.742 -0.78 78.884 -1.456 L 78.884 -1.456 L 79.924 -3.432 Q 80.808 -2.808 82.108 -2.405 Q 83.408 -2.002 84.76 -2.002 L 84.76 -2.002 Q 86.502 -2.002 87.269 -2.496 Q 88.036 -2.99 88.036 -3.874 L 88.036 -3.874 Q 88.036 -4.524 87.568 -4.888 Q 87.1 -5.252 86.32 -5.434 Q 85.54 -5.616 84.617 -5.759 Q 83.694 -5.902 82.758 -6.123 Q 81.822 -6.344 81.042 -6.747 Q 80.262 -7.15 79.794 -7.878 Q 79.326 -8.606 79.326 -9.776 L 79.326 -9.776 Q 79.326 -11.622 80.873 -12.766 Q 82.42 -13.91 85.072 -13.91 L 85.072 -13.91 Q 86.424 -13.91 87.815 -13.572 Q 89.206 -13.234 90.09 -12.662 L 90.09 -12.662 L 89.024 -10.686 Q 88.088 -11.284 87.074 -11.531 Q 86.06 -11.778 85.046 -11.778 L 85.046 -11.778 Q 83.408 -11.778 82.602 -11.245 Q 81.796 -10.712 81.796 -9.88 L 81.796 -9.88 Q 81.796 -9.204 82.277 -8.814 Q 82.758 -8.424 83.525 -8.216 Q 84.292 -8.008 85.228 -7.865 Q 86.164 -7.722 87.087 -7.501 Q 88.01 -7.28 88.79 -6.89 Q 89.57 -6.5 90.051 -5.785 Q 90.532 -5.07 90.532 -3.926 L 90.532 -3.926 Q 90.532 -2.054 88.933 -0.949 Q 87.334 0.156 84.578 0.156 M 96.148 0 L 93.652 0 L 93.652 -13.78 L 96.148 -13.78 L 96.148 0 M 94.9 -16.432 L 94.9 -16.432 Q 94.172 -16.432 93.691 -16.9 Q 93.21 -17.368 93.21 -18.044 L 93.21 -18.044 Q 93.21 -18.72 93.691 -19.201 Q 94.172 -19.682 94.9 -19.682 L 94.9 -19.682 Q 95.628 -19.682 96.109 -19.227 Q 96.59 -18.772 96.59 -18.096 L 96.59 -18.096 Q 96.59 -17.394 96.109 -16.913 Q 95.628 -16.432 94.9 -16.432 M 106.912 0.156 L 106.912 0.156 Q 104.78 0.156 103.142 -0.754 Q 101.504 -1.664 100.568 -3.25 Q 99.632 -4.836 99.632 -6.89 L 99.632 -6.89 Q 99.632 -8.944 100.568 -10.53 Q 101.504 -12.116 103.142 -13.013 Q 104.78 -13.91 106.912 -13.91 L 106.912 -13.91 Q 108.758 -13.91 110.24 -13.169 Q 111.722 -12.428 112.528 -10.972 L 112.528 -10.972 L 110.63 -9.75 Q 109.954 -10.764 108.979 -11.245 Q 108.004 -11.726 106.886 -11.726 L 106.886 -11.726 Q 105.534 -11.726 104.468 -11.128 Q 103.402 -10.53 102.778 -9.451 Q 102.154 -8.372 102.154 -6.89 L 102.154 -6.89 Q 102.154 -5.408 102.778 -4.316 Q 103.402 -3.224 104.468 -2.626 Q 105.534 -2.028 106.886 -2.028 L 106.886 -2.028 Q 108.004 -2.028 108.979 -2.509 Q 109.954 -2.99 110.63 -4.004 L 110.63 -4.004 L 112.528 -2.808 Q 111.722 -1.378 110.24 -0.611 Q 108.758 0.156 106.912 0.156 M 121.654 0.156 L 121.654 0.156 Q 119.574 0.156 117.962 -0.754 Q 116.35 -1.664 115.414 -3.25 Q 114.478 -4.836 114.478 -6.89 L 114.478 -6.89 Q 114.478 -8.944 115.414 -10.53 Q 116.35 -12.116 117.962 -13.013 Q 119.574 -13.91 121.654 -13.91 L 121.654 -13.91 Q 123.708 -13.91 125.333 -13.013 Q 126.958 -12.116 127.881 -10.53 Q 128.804 -8.944 128.804 -6.89 L 128.804 -6.89 Q 128.804 -4.836 127.881 -3.25 Q 126.958 -1.664 125.333 -0.754 Q 123.708 0.156 121.654 0.156 M 121.654 -2.028 L 121.654 -2.028 Q 122.98 -2.028 124.033 -2.639 Q 125.086 -3.25 125.684 -4.342 Q 126.282 -5.434 126.282 -6.89 L 126.282 -6.89 Q 126.282 -8.346 125.684 -9.438 Q 125.086 -10.53 124.033 -11.128 Q 122.98 -11.726 121.654 -11.726 L 121.654 -11.726 Q 120.328 -11.726 119.275 -11.128 Q 118.222 -10.53 117.611 -9.438 Q 117 -8.346 117 -6.89 L 117 -6.89 Q 117 -5.434 117.611 -4.342 Q 118.222 -3.25 119.275 -2.639 Q 120.328 -2.028 121.654 -2.028 M 150.176 0 L 147.81 0 L 147.81 -1.794 Q 147.186 -0.884 146.042 -0.364 Q 144.898 0.156 143.286 0.156 L 143.286 0.156 Q 140.946 0.156 139.568 -0.975 Q 138.19 -2.106 138.19 -3.9 L 138.19 -3.9 Q 138.19 -5.018 138.723 -5.928 Q 139.256 -6.838 140.465 -7.384 Q 141.674 -7.93 143.728 -7.93 L 143.728 -7.93 L 147.68 -7.93 L 147.68 -8.424 Q 147.68 -10.01 146.757 -10.881 Q 145.834 -11.752 143.988 -11.752 L 143.988 -11.752 Q 142.766 -11.752 141.596 -11.349 Q 140.426 -10.946 139.62 -10.27 L 139.62 -10.27 L 138.58 -12.142 Q 139.646 -13 141.141 -13.455 Q 142.636 -13.91 144.274 -13.91 L 144.274 -13.91 Q 147.108 -13.91 148.642 -12.519 Q 150.176 -11.128 150.176 -8.32 L 150.176 -8.32 L 150.176 0 M 147.68 -4.212 L 147.68 -4.212 L 147.68 -6.136 L 143.832 -6.136 Q 141.96 -6.136 141.31 -5.512 Q 140.66 -4.888 140.66 -4.004 L 140.66 -4.004 Q 140.66 -2.964 141.466 -2.366 Q 142.272 -1.768 143.702 -1.768 L 143.702 -1.768 Q 145.106 -1.768 146.159 -2.392 Q 147.212 -3.016 147.68 -4.212 M 160.706 0.156 L 160.706 0.156 Q 158.626 0.156 157.014 -0.754 Q 155.402 -1.664 154.466 -3.25 Q 153.53 -4.836 153.53 -6.89 L 153.53 -6.89 Q 153.53 -8.944 154.466 -10.53 Q 155.402 -12.116 157.014 -13.013 Q 158.626 -13.91 160.706 -13.91 L 160.706 -13.91 Q 162.76 -13.91 164.385 -13.013 Q 166.01 -12.116 166.933 -10.53 Q 167.856 -8.944 167.856 -6.89 L 167.856 -6.89 Q 167.856 -4.836 166.933 -3.25 Q 166.01 -1.664 164.385 -0.754 Q 162.76 0.156 160.706 0.156 M 160.706 -2.028 L 160.706 -2.028 Q 162.032 -2.028 163.085 -2.639 Q 164.138 -3.25 164.736 -4.342 Q 165.334 -5.434 165.334 -6.89 L 165.334 -6.89 Q 165.334 -8.346 164.736 -9.438 Q 164.138 -10.53 163.085 -11.128 Q 162.032 -11.726 160.706 -11.726 L 160.706 -11.726 Q 159.38 -11.726 158.327 -11.128 Q 157.274 -10.53 156.663 -9.438 Q 156.052 -8.346 156.052 -6.89 L 156.052 -6.89 Q 156.052 -5.434 156.663 -4.342 Q 157.274 -3.25 158.327 -2.639 Q 159.38 -2.028 160.706 -2.028 M 189.228 0 L 186.862 0 L 186.862 -1.794 Q 186.238 -0.884 185.094 -0.364 Q 183.95 0.156 182.338 0.156 L 182.338 0.156 Q 179.998 0.156 178.62 -0.975 Q 177.242 -2.106 177.242 -3.9 L 177.242 -3.9 Q 177.242 -5.018 177.775 -5.928 Q 178.308 -6.838 179.517 -7.384 Q 180.726 -7.93 182.78 -7.93 L 182.78 -7.93 L 186.732 -7.93 L 186.732 -8.424 Q 186.732 -10.01 185.809 -10.881 Q 184.886 -11.752 183.04 -11.752 L 183.04 -11.752 Q 181.818 -11.752 180.648 -11.349 Q 179.478 -10.946 178.672 -10.27 L 178.672 -10.27 L 177.632 -12.142 Q 178.698 -13 180.193 -13.455 Q 181.688 -13.91 183.326 -13.91 L 183.326 -13.91 Q 186.16 -13.91 187.694 -12.519 Q 189.228 -11.128 189.228 -8.32 L 189.228 -8.32 L 189.228 0 M 186.732 -4.212 L 186.732 -4.212 L 186.732 -6.136 L 182.884 -6.136 Q 181.012 -6.136 180.362 -5.512 Q 179.712 -4.888 179.712 -4.004 L 179.712 -4.004 Q 179.712 -2.964 180.518 -2.366 Q 181.324 -1.768 182.754 -1.768 L 182.754 -1.768 Q 184.158 -1.768 185.211 -2.392 Q 186.264 -3.016 186.732 -4.212 M 200.018 0 L 197.47 0 L 191.438 -13.78 L 194.038 -13.78 L 198.77 -2.756 L 203.606 -13.78 L 206.05 -13.78 L 200.018 0 M 219.31 0 L 216.944 0 L 216.944 -1.794 Q 216.32 -0.884 215.176 -0.364 Q 214.032 0.156 212.42 0.156 L 212.42 0.156 Q 210.08 0.156 208.702 -0.975 Q 207.324 -2.106 207.324 -3.9 L 207.324 -3.9 Q 207.324 -5.018 207.857 -5.928 Q 208.39 -6.838 209.599 -7.384 Q 210.808 -7.93 212.862 -7.93 L 212.862 -7.93 L 216.814 -7.93 L 216.814 -8.424 Q 216.814 -10.01 215.891 -10.881 Q 214.968 -11.752 213.122 -11.752 L 213.122 -11.752 Q 211.9 -11.752 210.73 -11.349 Q 209.56 -10.946 208.754 -10.27 L 208.754 -10.27 L 207.714 -12.142 Q 208.78 -13 210.275 -13.455 Q 211.77 -13.91 213.408 -13.91 L 213.408 -13.91 Q 216.242 -13.91 217.776 -12.519 Q 219.31 -11.128 219.31 -8.32 L 219.31 -8.32 L 219.31 0 M 216.814 -4.212 L 216.814 -4.212 L 216.814 -6.136 L 212.966 -6.136 Q 211.094 -6.136 210.444 -5.512 Q 209.794 -4.888 209.794 -4.004 L 209.794 -4.004 Q 209.794 -2.964 210.6 -2.366 Q 211.406 -1.768 212.836 -1.768 L 212.836 -1.768 Q 214.24 -1.768 215.293 -2.392 Q 216.346 -3.016 216.814 -4.212 M 226.434 0 L 223.938 0 L 223.938 -13.78 L 226.33 -13.78 L 226.33 -11.7 Q 227.11 -12.766 228.384 -13.338 Q 229.658 -13.91 231.296 -13.91 L 231.296 -13.91 Q 232.96 -13.91 234.26 -13.26 Q 235.56 -12.61 236.288 -11.284 Q 237.016 -9.958 237.016 -7.93 L 237.016 -7.93 L 237.016 0 L 234.52 0 L 234.52 -7.644 Q 234.52 -9.672 233.545 -10.673 Q 232.57 -11.674 230.802 -11.674 L 230.802 -11.674 Q 228.826 -11.674 227.63 -10.504 Q 226.434 -9.334 226.434 -7.098 L 226.434 -7.098 L 226.434 0 M 247.65 0.156 L 247.65 0.156 Q 245.518 0.156 243.88 -0.754 Q 242.242 -1.664 241.306 -3.25 Q 240.37 -4.836 240.37 -6.89 L 240.37 -6.89 Q 240.37 -8.944 241.306 -10.53 Q 242.242 -12.116 243.88 -13.013 Q 245.518 -13.91 247.65 -13.91 L 247.65 -13.91 Q 249.496 -13.91 250.978 -13.169 Q 252.46 -12.428 253.266 -10.972 L 253.266 -10.972 L 251.368 -9.75 Q 250.692 -10.764 249.717 -11.245 Q 248.742 -11.726 247.624 -11.726 L 247.624 -11.726 Q 246.272 -11.726 245.206 -11.128 Q 244.14 -10.53 243.516 -9.451 Q 242.892 -8.372 242.892 -6.89 L 242.892 -6.89 Q 242.892 -5.408 243.516 -4.316 Q 244.14 -3.224 245.206 -2.626 Q 246.272 -2.028 247.624 -2.028 L 247.624 -2.028 Q 248.742 -2.028 249.717 -2.509 Q 250.692 -2.99 251.368 -4.004 L 251.368 -4.004 L 253.266 -2.808 Q 252.46 -1.378 250.978 -0.611 Q 249.496 0.156 247.65 0.156 M 246.61 5.824 L 246.61 5.824 Q 245.258 5.824 244.296 5.252 L 244.296 5.252 L 244.842 3.978 Q 245.648 4.42 246.61 4.42 L 246.61 4.42 Q 248.066 4.42 248.066 3.38 L 248.066 3.38 Q 248.066 2.912 247.715 2.639 Q 247.364 2.366 246.584 2.366 L 246.584 2.366 L 245.882 2.366 L 246.532 -0.182 L 247.962 -0.182 L 247.572 1.3 Q 248.69 1.404 249.262 2.002 Q 249.834 2.6 249.834 3.458 L 249.834 3.458 Q 249.834 4.55 248.95 5.187 Q 248.066 5.824 246.61 5.824 M 267.41 0 L 265.044 0 L 265.044 -1.794 Q 264.42 -0.884 263.276 -0.364 Q 262.132 0.156 260.52 0.156 L 260.52 0.156 Q 258.18 0.156 256.802 -0.975 Q 255.424 -2.106 255.424 -3.9 L 255.424 -3.9 Q 255.424 -5.018 255.957 -5.928 Q 256.49 -6.838 257.699 -7.384 Q 258.908 -7.93 260.962 -7.93 L 260.962 -7.93 L 264.914 -7.93 L 264.914 -8.424 Q 264.914 -10.01 263.991 -10.881 Q 263.068 -11.752 261.222 -11.752 L 261.222 -11.752 Q 260 -11.752 258.83 -11.349 Q 257.66 -10.946 256.854 -10.27 L 256.854 -10.27 L 255.814 -12.142 Q 256.88 -13 258.375 -13.455 Q 259.87 -13.91 261.508 -13.91 L 261.508 -13.91 Q 264.342 -13.91 265.876 -12.519 Q 267.41 -11.128 267.41 -8.32 L 267.41 -8.32 L 267.41 0 M 264.914 -4.212 L 264.914 -4.212 L 264.914 -6.136 L 261.066 -6.136 Q 259.194 -6.136 258.544 -5.512 Q 257.894 -4.888 257.894 -4.004 L 257.894 -4.004 Q 257.894 -2.964 258.7 -2.366 Q 259.506 -1.768 260.936 -1.768 L 260.936 -1.768 Q 262.34 -1.768 263.393 -2.392 Q 264.446 -3.016 264.914 -4.212 M 277.732 0.156 L 277.732 0.156 Q 275.73 0.156 274.157 -0.728 Q 272.584 -1.612 271.674 -3.198 Q 270.764 -4.784 270.764 -6.89 L 270.764 -6.89 Q 270.764 -8.996 271.674 -10.582 Q 272.584 -12.168 274.157 -13.039 Q 275.73 -13.91 277.732 -13.91 L 277.732 -13.91 Q 279.188 -13.91 280.436 -13.364 Q 281.684 -12.818 282.542 -11.726 L 282.542 -11.726 L 282.542 -19.292 L 285.038 -19.292 L 285.038 0 L 282.646 0 L 282.646 -2.158 Q 281.788 -1.014 280.514 -0.429 Q 279.24 0.156 277.732 0.156 M 277.94 -2.028 L 277.94 -2.028 Q 279.24 -2.028 280.293 -2.639 Q 281.346 -3.25 281.957 -4.342 Q 282.568 -5.434 282.568 -6.89 L 282.568 -6.89 Q 282.568 -8.346 281.957 -9.438 Q 281.346 -10.53 280.293 -11.128 Q 279.24 -11.726 277.94 -11.726 L 277.94 -11.726 Q 276.614 -11.726 275.561 -11.128 Q 274.508 -10.53 273.897 -9.438 Q 273.286 -8.346 273.286 -6.89 L 273.286 -6.89 Q 273.286 -5.434 273.897 -4.342 Q 274.508 -3.25 275.561 -2.639 Q 276.614 -2.028 277.94 -2.028 M 295.672 0.156 L 295.672 0.156 Q 293.592 0.156 291.98 -0.754 Q 290.368 -1.664 289.432 -3.25 Q 288.496 -4.836 288.496 -6.89 L 288.496 -6.89 Q 288.496 -8.944 289.432 -10.53 Q 290.368 -12.116 291.98 -13.013 Q 293.592 -13.91 295.672 -13.91 L 295.672 -13.91 Q 297.726 -13.91 299.351 -13.013 Q 300.976 -12.116 301.899 -10.53 Q 302.822 -8.944 302.822 -6.89 L 302.822 -6.89 Q 302.822 -4.836 301.899 -3.25 Q 300.976 -1.664 299.351 -0.754 Q 297.726 0.156 295.672 0.156 M 295.672 -2.028 L 295.672 -2.028 Q 296.998 -2.028 298.051 -2.639 Q 299.104 -3.25 299.702 -4.342 Q 300.3 -5.434 300.3 -6.89 L 300.3 -6.89 Q 300.3 -8.346 299.702 -9.438 Q 299.104 -10.53 298.051 -11.128 Q 296.998 -11.726 295.672 -11.726 L 295.672 -11.726 Q 294.346 -11.726 293.293 -11.128 Q 292.24 -10.53 291.629 -9.438 Q 291.018 -8.346 291.018 -6.89 L 291.018 -6.89 Q 291.018 -5.434 291.629 -4.342 Q 292.24 -3.25 293.293 -2.639 Q 294.346 -2.028 295.672 -2.028 M 314.392 -5.356 L 314.392 -5.356 Q 313.664 -5.356 313.144 -5.85 Q 312.624 -6.344 312.624 -7.15 L 312.624 -7.15 Q 312.624 -7.93 313.144 -8.424 Q 313.664 -8.918 314.392 -8.918 L 314.392 -8.918 Q 315.12 -8.918 315.614 -8.424 Q 316.108 -7.93 316.108 -7.15 L 316.108 -7.15 Q 316.108 -6.344 315.614 -5.85 Q 315.12 -5.356 314.392 -5.356 M 333.216 0.156 L 333.216 0.156 Q 331.084 0.156 329.446 -0.754 Q 327.808 -1.664 326.872 -3.25 Q 325.936 -4.836 325.936 -6.89 L 325.936 -6.89 Q 325.936 -8.944 326.872 -10.53 Q 327.808 -12.116 329.446 -13.013 Q 331.084 -13.91 333.216 -13.91 L 333.216 -13.91 Q 335.062 -13.91 336.544 -13.169 Q 338.026 -12.428 338.832 -10.972 L 338.832 -10.972 L 336.934 -9.75 Q 336.258 -10.764 335.283 -11.245 Q 334.308 -11.726 333.19 -11.726 L 333.19 -11.726 Q 331.838 -11.726 330.772 -11.128 Q 329.706 -10.53 329.082 -9.451 Q 328.458 -8.372 328.458 -6.89 L 328.458 -6.89 Q 328.458 -5.408 329.082 -4.316 Q 329.706 -3.224 330.772 -2.626 Q 331.838 -2.028 333.19 -2.028 L 333.19 -2.028 Q 334.308 -2.028 335.283 -2.509 Q 336.258 -2.99 336.934 -4.004 L 336.934 -4.004 L 338.832 -2.808 Q 338.026 -1.378 336.544 -0.611 Q 335.062 0.156 333.216 0.156 M 347.958 0.156 L 347.958 0.156 Q 345.878 0.156 344.266 -0.754 Q 342.654 -1.664 341.718 -3.25 Q 340.782 -4.836 340.782 -6.89 L 340.782 -6.89 Q 340.782 -8.944 341.718 -10.53 Q 342.654 -12.116 344.266 -13.013 Q 345.878 -13.91 347.958 -13.91 L 347.958 -13.91 Q 350.012 -13.91 351.637 -13.013 Q 353.262 -12.116 354.185 -10.53 Q 355.108 -8.944 355.108 -6.89 L 355.108 -6.89 Q 355.108 -4.836 354.185 -3.25 Q 353.262 -1.664 351.637 -0.754 Q 350.012 0.156 347.958 0.156 M 347.958 -2.028 L 347.958 -2.028 Q 349.284 -2.028 350.337 -2.639 Q 351.39 -3.25 351.988 -4.342 Q 352.586 -5.434 352.586 -6.89 L 352.586 -6.89 Q 352.586 -8.346 351.988 -9.438 Q 351.39 -10.53 350.337 -11.128 Q 349.284 -11.726 347.958 -11.726 L 347.958 -11.726 Q 346.632 -11.726 345.579 -11.128 Q 344.526 -10.53 343.915 -9.438 Q 343.304 -8.346 343.304 -6.89 L 343.304 -6.89 Q 343.304 -5.434 343.915 -4.342 Q 344.526 -3.25 345.579 -2.639 Q 346.632 -2.028 347.958 -2.028 M 361.062 0 L 358.566 0 L 358.566 -13.78 L 360.958 -13.78 L 360.958 -11.7 Q 361.738 -12.766 363.012 -13.338 Q 364.286 -13.91 365.924 -13.91 L 365.924 -13.91 Q 367.588 -13.91 368.888 -13.26 Q 370.188 -12.61 370.916 -11.284 Q 371.644 -9.958 371.644 -7.93 L 371.644 -7.93 L 371.644 0 L 369.148 0 L 369.148 -7.644 Q 369.148 -9.672 368.173 -10.673 Q 367.198 -11.674 365.43 -11.674 L 365.43 -11.674 Q 363.454 -11.674 362.258 -10.504 Q 361.062 -9.334 361.062 -7.098 L 361.062 -7.098 L 361.062 0 M 380.224 0.156 L 380.224 0.156 Q 378.508 0.156 376.948 -0.312 Q 375.388 -0.78 374.53 -1.456 L 374.53 -1.456 L 375.57 -3.432 Q 376.454 -2.808 377.754 -2.405 Q 379.054 -2.002 380.406 -2.002 L 380.406 -2.002 Q 382.148 -2.002 382.915 -2.496 Q 383.682 -2.99 383.682 -3.874 L 383.682 -3.874 Q 383.682 -4.524 383.214 -4.888 Q 382.746 -5.252 381.966 -5.434 Q 381.186 -5.616 380.263 -5.759 Q 379.34 -5.902 378.404 -6.123 Q 377.468 -6.344 376.688 -6.747 Q 375.908 -7.15 375.44 -7.878 Q 374.972 -8.606 374.972 -9.776 L 374.972 -9.776 Q 374.972 -11.622 376.519 -12.766 Q 378.066 -13.91 380.718 -13.91 L 380.718 -13.91 Q 382.07 -13.91 383.461 -13.572 Q 384.852 -13.234 385.736 -12.662 L 385.736 -12.662 L 384.67 -10.686 Q 383.734 -11.284 382.72 -11.531 Q 381.706 -11.778 380.692 -11.778 L 380.692 -11.778 Q 379.054 -11.778 378.248 -11.245 Q 377.442 -10.712 377.442 -9.88 L 377.442 -9.88 Q 377.442 -9.204 377.923 -8.814 Q 378.404 -8.424 379.171 -8.216 Q 379.938 -8.008 380.874 -7.865 Q 381.81 -7.722 382.733 -7.501 Q 383.656 -7.28 384.436 -6.89 Q 385.216 -6.5 385.697 -5.785 Q 386.178 -5.07 386.178 -3.926 L 386.178 -3.926 Q 386.178 -2.054 384.579 -0.949 Q 382.98 0.156 380.224 0.156 M 395.096 0.156 L 395.096 0.156 Q 392.444 0.156 390.806 -1.326 Q 389.168 -2.808 389.168 -5.85 L 389.168 -5.85 L 389.168 -13.78 L 391.664 -13.78 L 391.664 -6.136 Q 391.664 -4.108 392.639 -3.094 Q 393.614 -2.08 395.382 -2.08 L 395.382 -2.08 Q 397.332 -2.08 398.489 -3.263 Q 399.646 -4.446 399.646 -6.656 L 399.646 -6.656 L 399.646 -13.78 L 402.142 -13.78 L 402.142 0 L 399.776 0 L 399.776 -2.054 Q 398.996 -0.988 397.774 -0.416 Q 396.552 0.156 395.096 0.156 M 409.396 0 L 406.9 0 L 406.9 -19.292 L 409.396 -19.292 L 409.396 0 M 418.886 0.156 L 418.886 0.156 Q 416.806 0.156 415.662 -0.962 Q 414.518 -2.08 414.518 -4.16 L 414.518 -4.16 L 414.518 -11.726 L 412.178 -11.726 L 412.178 -13.78 L 414.518 -13.78 L 414.518 -16.796 L 417.014 -16.796 L 417.014 -13.78 L 420.966 -13.78 L 420.966 -11.726 L 417.014 -11.726 L 417.014 -4.264 Q 417.014 -1.95 419.172 -1.95 L 419.172 -1.95 Q 420.342 -1.95 421.122 -2.6 L 421.122 -2.6 L 421.902 -0.806 Q 421.33 -0.338 420.537 -0.091 Q 419.744 0.156 418.886 0.156 M 430.82 0.156 L 430.82 0.156 Q 428.74 0.156 427.128 -0.754 Q 425.516 -1.664 424.58 -3.25 Q 423.644 -4.836 423.644 -6.89 L 423.644 -6.89 Q 423.644 -8.944 424.58 -10.53 Q 425.516 -12.116 427.128 -13.013 Q 428.74 -13.91 430.82 -13.91 L 430.82 -13.91 Q 432.874 -13.91 434.499 -13.013 Q 436.124 -12.116 437.047 -10.53 Q 437.97 -8.944 437.97 -6.89 L 437.97 -6.89 Q 437.97 -4.836 437.047 -3.25 Q 436.124 -1.664 434.499 -0.754 Q 432.874 0.156 430.82 0.156 M 430.82 -2.028 L 430.82 -2.028 Q 432.146 -2.028 433.199 -2.639 Q 434.252 -3.25 434.85 -4.342 Q 435.448 -5.434 435.448 -6.89 L 435.448 -6.89 Q 435.448 -8.346 434.85 -9.438 Q 434.252 -10.53 433.199 -11.128 Q 432.146 -11.726 430.82 -11.726 L 430.82 -11.726 Q 429.494 -11.726 428.441 -11.128 Q 427.388 -10.53 426.777 -9.438 Q 426.166 -8.346 426.166 -6.89 L 426.166 -6.89 Q 426.166 -5.434 426.777 -4.342 Q 427.388 -3.25 428.441 -2.639 Q 429.494 -2.028 430.82 -2.028 M 443.924 0 L 441.428 0 L 441.428 -13.78 L 443.82 -13.78 L 443.82 -11.492 Q 445.198 -13.91 448.838 -13.91 L 448.838 -13.91 L 448.838 -11.492 Q 448.682 -11.492 448.539 -11.505 Q 448.396 -11.518 448.266 -11.518 L 448.266 -11.518 Q 446.264 -11.518 445.094 -10.322 Q 443.924 -9.126 443.924 -6.864 L 443.924 -6.864 L 443.924 0 M 454.584 0 L 452.088 0 L 452.088 -13.78 L 454.584 -13.78 L 454.584 0 M 453.336 -16.432 L 453.336 -16.432 Q 452.608 -16.432 452.127 -16.9 Q 451.646 -17.368 451.646 -18.044 L 451.646 -18.044 Q 451.646 -18.72 452.127 -19.201 Q 452.608 -19.682 453.336 -19.682 L 453.336 -19.682 Q 454.064 -19.682 454.545 -19.227 Q 455.026 -18.772 455.026 -18.096 L 455.026 -18.096 Q 455.026 -17.394 454.545 -16.913 Q 454.064 -16.432 453.336 -16.432 M 470.262 0 L 467.896 0 L 467.896 -1.794 Q 467.272 -0.884 466.128 -0.364 Q 464.984 0.156 463.372 0.156 L 463.372 0.156 Q 461.032 0.156 459.654 -0.975 Q 458.276 -2.106 458.276 -3.9 L 458.276 -3.9 Q 458.276 -5.018 458.809 -5.928 Q 459.342 -6.838 460.551 -7.384 Q 461.76 -7.93 463.814 -7.93 L 463.814 -7.93 L 467.766 -7.93 L 467.766 -8.424 Q 467.766 -10.01 466.843 -10.881 Q 465.92 -11.752 464.074 -11.752 L 464.074 -11.752 Q 462.852 -11.752 461.682 -11.349 Q 460.512 -10.946 459.706 -10.27 L 459.706 -10.27 L 458.666 -12.142 Q 459.732 -13 461.227 -13.455 Q 462.722 -13.91 464.36 -13.91 L 464.36 -13.91 Q 467.194 -13.91 468.728 -12.519 Q 470.262 -11.128 470.262 -8.32 L 470.262 -8.32 L 470.262 0 M 467.766 -4.212 L 467.766 -4.212 L 467.766 -6.136 L 463.918 -6.136 Q 462.046 -6.136 461.396 -5.512 Q 460.746 -4.888 460.746 -4.004 L 460.746 -4.004 Q 460.746 -2.964 461.552 -2.366 Q 462.358 -1.768 463.788 -1.768 L 463.788 -1.768 Q 465.192 -1.768 466.245 -2.392 Q 467.298 -3.016 467.766 -4.212 M 488.02 0.156 L 488.02 0.156 Q 485.81 0.156 484.133 -0.754 Q 482.456 -1.664 481.533 -3.25 Q 480.61 -4.836 480.61 -6.89 L 480.61 -6.89 Q 480.61 -8.944 481.507 -10.53 Q 482.404 -12.116 483.977 -13.013 Q 485.55 -13.91 487.526 -13.91 L 487.526 -13.91 Q 489.528 -13.91 491.062 -13.026 Q 492.596 -12.142 493.467 -10.543 Q 494.338 -8.944 494.338 -6.812 L 494.338 -6.812 Q 494.338 -6.656 494.325 -6.448 Q 494.312 -6.24 494.286 -6.058 L 494.286 -6.058 L 483.106 -6.058 Q 483.34 -4.238 484.692 -3.133 Q 486.044 -2.028 488.098 -2.028 L 488.098 -2.028 Q 490.594 -2.028 492.076 -3.692 L 492.076 -3.692 L 493.454 -2.08 Q 492.518 -0.988 491.127 -0.416 Q 489.736 0.156 488.02 0.156 M 483.106 -7.852 L 483.106 -7.852 L 491.946 -7.852 Q 491.764 -9.594 490.555 -10.699 Q 489.346 -11.804 487.526 -11.804 L 487.526 -11.804 Q 485.732 -11.804 484.523 -10.712 Q 483.314 -9.62 483.106 -7.852 M 501.748 0.156 L 501.748 0.156 Q 500.032 0.156 498.472 -0.312 Q 496.912 -0.78 496.054 -1.456 L 496.054 -1.456 L 497.094 -3.432 Q 497.978 -2.808 499.278 -2.405 Q 500.578 -2.002 501.93 -2.002 L 501.93 -2.002 Q 503.672 -2.002 504.439 -2.496 Q 505.206 -2.99 505.206 -3.874 L 505.206 -3.874 Q 505.206 -4.524 504.738 -4.888 Q 504.27 -5.252 503.49 -5.434 Q 502.71 -5.616 501.787 -5.759 Q 500.864 -5.902 499.928 -6.123 Q 498.992 -6.344 498.212 -6.747 Q 497.432 -7.15 496.964 -7.878 Q 496.496 -8.606 496.496 -9.776 L 496.496 -9.776 Q 496.496 -11.622 498.043 -12.766 Q 499.59 -13.91 502.242 -13.91 L 502.242 -13.91 Q 503.594 -13.91 504.985 -13.572 Q 506.376 -13.234 507.26 -12.662 L 507.26 -12.662 L 506.194 -10.686 Q 505.258 -11.284 504.244 -11.531 Q 503.23 -11.778 502.216 -11.778 L 502.216 -11.778 Q 500.578 -11.778 499.772 -11.245 Q 498.966 -10.712 498.966 -9.88 L 498.966 -9.88 Q 498.966 -9.204 499.447 -8.814 Q 499.928 -8.424 500.695 -8.216 Q 501.462 -8.008 502.398 -7.865 Q 503.334 -7.722 504.257 -7.501 Q 505.18 -7.28 505.96 -6.89 Q 506.74 -6.5 507.221 -5.785 Q 507.702 -5.07 507.702 -3.926 L 507.702 -3.926 Q 507.702 -2.054 506.103 -0.949 Q 504.504 0.156 501.748 0.156 M 518.128 0.156 L 518.128 0.156 Q 516.672 0.156 515.424 -0.403 Q 514.176 -0.962 513.318 -2.054 L 513.318 -2.054 L 513.318 5.044 L 510.822 5.044 L 510.822 -13.78 L 513.214 -13.78 L 513.214 -11.622 Q 514.072 -12.766 515.346 -13.338 Q 516.62 -13.91 518.128 -13.91 L 518.128 -13.91 Q 520.13 -13.91 521.703 -13.039 Q 523.276 -12.168 524.186 -10.582 Q 525.096 -8.996 525.096 -6.89 L 525.096 -6.89 Q 525.096 -4.784 524.186 -3.198 Q 523.276 -1.612 521.703 -0.728 Q 520.13 0.156 518.128 0.156 M 517.92 -2.028 L 517.92 -2.028 Q 519.246 -2.028 520.299 -2.639 Q 521.352 -3.25 521.963 -4.329 Q 522.574 -5.408 522.574 -6.89 L 522.574 -6.89 Q 522.574 -8.346 521.963 -9.438 Q 521.352 -10.53 520.299 -11.128 Q 519.246 -11.726 517.92 -11.726 L 517.92 -11.726 Q 516.62 -11.726 515.567 -11.128 Q 514.514 -10.53 513.903 -9.438 Q 513.292 -8.346 513.292 -6.89 L 513.292 -6.89 Q 513.292 -5.408 513.903 -4.329 Q 514.514 -3.25 515.567 -2.639 Q 516.62 -2.028 517.92 -2.028 M 534.69 0.156 L 534.69 0.156 Q 532.48 0.156 530.803 -0.754 Q 529.126 -1.664 528.203 -3.25 Q 527.28 -4.836 527.28 -6.89 L 527.28 -6.89 Q 527.28 -8.944 528.177 -10.53 Q 529.074 -12.116 530.647 -13.013 Q 532.22 -13.91 534.196 -13.91 L 534.196 -13.91 Q 536.198 -13.91 537.732 -13.026 Q 539.266 -12.142 540.137 -10.543 Q 541.008 -8.944 541.008 -6.812 L 541.008 -6.812 Q 541.008 -6.656 540.995 -6.448 Q 540.982 -6.24 540.956 -6.058 L 540.956 -6.058 L 529.776 -6.058 Q 530.01 -4.238 531.362 -3.133 Q 532.714 -2.028 534.768 -2.028 L 534.768 -2.028 Q 537.264 -2.028 538.746 -3.692 L 538.746 -3.692 L 540.124 -2.08 Q 539.188 -0.988 537.797 -0.416 Q 536.406 0.156 534.69 0.156 M 529.776 -7.852 L 529.776 -7.852 L 538.616 -7.852 Q 538.434 -9.594 537.225 -10.699 Q 536.016 -11.804 534.196 -11.804 L 534.196 -11.804 Q 532.402 -11.804 531.193 -10.712 Q 529.984 -9.62 529.776 -7.852 M 550.472 0.156 L 550.472 0.156 Q 548.34 0.156 546.702 -0.754 Q 545.064 -1.664 544.128 -3.25 Q 543.192 -4.836 543.192 -6.89 L 543.192 -6.89 Q 543.192 -8.944 544.128 -10.53 Q 545.064 -12.116 546.702 -13.013 Q 548.34 -13.91 550.472 -13.91 L 550.472 -13.91 Q 552.318 -13.91 553.8 -13.169 Q 555.282 -12.428 556.088 -10.972 L 556.088 -10.972 L 554.19 -9.75 Q 553.514 -10.764 552.539 -11.245 Q 551.564 -11.726 550.446 -11.726 L 550.446 -11.726 Q 549.094 -11.726 548.028 -11.128 Q 546.962 -10.53 546.338 -9.451 Q 545.714 -8.372 545.714 -6.89 L 545.714 -6.89 Q 545.714 -5.408 546.338 -4.316 Q 546.962 -3.224 548.028 -2.626 Q 549.094 -2.028 550.446 -2.028 L 550.446 -2.028 Q 551.564 -2.028 552.539 -2.509 Q 553.514 -2.99 554.19 -4.004 L 554.19 -4.004 L 556.088 -2.808 Q 555.282 -1.378 553.8 -0.611 Q 552.318 0.156 550.472 0.156 M 561.808 0 L 559.312 0 L 559.312 -13.78 L 561.808 -13.78 L 561.808 0 M 560.56 -16.432 L 560.56 -16.432 Q 559.832 -16.432 559.351 -16.9 Q 558.87 -17.368 558.87 -18.044 L 558.87 -18.044 Q 558.87 -18.72 559.351 -19.201 Q 559.832 -19.682 560.56 -19.682 L 560.56 -19.682 Q 561.288 -19.682 561.769 -19.227 Q 562.25 -18.772 562.25 -18.096 L 562.25 -18.096 Q 562.25 -17.394 561.769 -16.913 Q 561.288 -16.432 560.56 -16.432 M 577.486 0 L 575.12 0 L 575.12 -1.794 Q 574.496 -0.884 573.352 -0.364 Q 572.208 0.156 570.596 0.156 L 570.596 0.156 Q 568.256 0.156 566.878 -0.975 Q 565.5 -2.106 565.5 -3.9 L 565.5 -3.9 Q 565.5 -5.018 566.033 -5.928 Q 566.566 -6.838 567.775 -7.384 Q 568.984 -7.93 571.038 -7.93 L 571.038 -7.93 L 574.99 -7.93 L 574.99 -8.424 Q 574.99 -10.01 574.067 -10.881 Q 573.144 -11.752 571.298 -11.752 L 571.298 -11.752 Q 570.076 -11.752 568.906 -11.349 Q 567.736 -10.946 566.93 -10.27 L 566.93 -10.27 L 565.89 -12.142 Q 566.956 -13 568.451 -13.455 Q 569.946 -13.91 571.584 -13.91 L 571.584 -13.91 Q 574.418 -13.91 575.952 -12.519 Q 577.486 -11.128 577.486 -8.32 L 577.486 -8.32 L 577.486 0 M 574.99 -4.212 L 574.99 -4.212 L 574.99 -6.136 L 571.142 -6.136 Q 569.27 -6.136 568.62 -5.512 Q 567.97 -4.888 567.97 -4.004 L 567.97 -4.004 Q 567.97 -2.964 568.776 -2.366 Q 569.582 -1.768 571.012 -1.768 L 571.012 -1.768 Q 572.416 -1.768 573.469 -2.392 Q 574.522 -3.016 574.99 -4.212 M 584.61 0 L 582.114 0 L 582.114 -19.292 L 584.61 -19.292 L 584.61 0 M 591.864 0 L 589.368 0 L 589.368 -13.78 L 591.864 -13.78 L 591.864 0 M 590.616 -16.432 L 590.616 -16.432 Q 589.888 -16.432 589.407 -16.9 Q 588.926 -17.368 588.926 -18.044 L 588.926 -18.044 Q 588.926 -18.72 589.407 -19.201 Q 589.888 -19.682 590.616 -19.682 L 590.616 -19.682 Q 591.344 -19.682 591.825 -19.227 Q 592.306 -18.772 592.306 -18.096 L 592.306 -18.096 Q 592.306 -17.394 591.825 -16.913 Q 591.344 -16.432 590.616 -16.432 M 606.84 0 L 595.296 0 L 595.296 -1.612 L 603.46 -11.726 L 595.452 -11.726 L 595.452 -13.78 L 606.632 -13.78 L 606.632 -12.142 L 598.468 -2.054 L 606.84 -2.054 L 606.84 0 M 621.088 0 L 618.722 0 L 618.722 -1.794 Q 618.098 -0.884 616.954 -0.364 Q 615.81 0.156 614.198 0.156 L 614.198 0.156 Q 611.858 0.156 610.48 -0.975 Q 609.102 -2.106 609.102 -3.9 L 609.102 -3.9 Q 609.102 -5.018 609.635 -5.928 Q 610.168 -6.838 611.377 -7.384 Q 612.586 -7.93 614.64 -7.93 L 614.64 -7.93 L 618.592 -7.93 L 618.592 -8.424 Q 618.592 -10.01 617.669 -10.881 Q 616.746 -11.752 614.9 -11.752 L 614.9 -11.752 Q 613.678 -11.752 612.508 -11.349 Q 611.338 -10.946 610.532 -10.27 L 610.532 -10.27 L 609.492 -12.142 Q 610.558 -13 612.053 -13.455 Q 613.548 -13.91 615.186 -13.91 L 615.186 -13.91 Q 618.02 -13.91 619.554 -12.519 Q 621.088 -11.128 621.088 -8.32 L 621.088 -8.32 L 621.088 0 M 618.592 -4.212 L 618.592 -4.212 L 618.592 -6.136 L 614.744 -6.136 Q 612.872 -6.136 612.222 -5.512 Q 611.572 -4.888 611.572 -4.004 L 611.572 -4.004 Q 611.572 -2.964 612.378 -2.366 Q 613.184 -1.768 614.614 -1.768 L 614.614 -1.768 Q 616.018 -1.768 617.071 -2.392 Q 618.124 -3.016 618.592 -4.212 M 631.41 0.156 L 631.41 0.156 Q 629.408 0.156 627.835 -0.728 Q 626.262 -1.612 625.352 -3.198 Q 624.442 -4.784 624.442 -6.89 L 624.442 -6.89 Q 624.442 -8.996 625.352 -10.582 Q 626.262 -12.168 627.835 -13.039 Q 629.408 -13.91 631.41 -13.91 L 631.41 -13.91 Q 632.866 -13.91 634.114 -13.364 Q 635.362 -12.818 636.22 -11.726 L 636.22 -11.726 L 636.22 -19.292 L 638.716 -19.292 L 638.716 0 L 636.324 0 L 636.324 -2.158 Q 635.466 -1.014 634.192 -0.429 Q 632.918 0.156 631.41 0.156 M 631.618 -2.028 L 631.618 -2.028 Q 632.918 -2.028 633.971 -2.639 Q 635.024 -3.25 635.635 -4.342 Q 636.246 -5.434 636.246 -6.89 L 636.246 -6.89 Q 636.246 -8.346 635.635 -9.438 Q 635.024 -10.53 633.971 -11.128 Q 632.918 -11.726 631.618 -11.726 L 631.618 -11.726 Q 630.292 -11.726 629.239 -11.128 Q 628.186 -10.53 627.575 -9.438 Q 626.964 -8.346 626.964 -6.89 L 626.964 -6.89 Q 626.964 -5.434 627.575 -4.342 Q 628.186 -3.25 629.239 -2.639 Q 630.292 -2.028 631.618 -2.028 M 654.368 0 L 652.002 0 L 652.002 -1.794 Q 651.378 -0.884 650.234 -0.364 Q 649.09 0.156 647.478 0.156 L 647.478 0.156 Q 645.138 0.156 643.76 -0.975 Q 642.382 -2.106 642.382 -3.9 L 642.382 -3.9 Q 642.382 -5.018 642.915 -5.928 Q 643.448 -6.838 644.657 -7.384 Q 645.866 -7.93 647.92 -7.93 L 647.92 -7.93 L 651.872 -7.93 L 651.872 -8.424 Q 651.872 -10.01 650.949 -10.881 Q 650.026 -11.752 648.18 -11.752 L 648.18 -11.752 Q 646.958 -11.752 645.788 -11.349 Q 644.618 -10.946 643.812 -10.27 L 643.812 -10.27 L 642.772 -12.142 Q 643.838 -13 645.333 -13.455 Q 646.828 -13.91 648.466 -13.91 L 648.466 -13.91 Q 651.3 -13.91 652.834 -12.519 Q 654.368 -11.128 654.368 -8.32 L 654.368 -8.32 L 654.368 0 M 651.872 -4.212 L 651.872 -4.212 L 651.872 -6.136 L 648.024 -6.136 Q 646.152 -6.136 645.502 -5.512 Q 644.852 -4.888 644.852 -4.004 L 644.852 -4.004 Q 644.852 -2.964 645.658 -2.366 Q 646.464 -1.768 647.894 -1.768 L 647.894 -1.768 Q 649.298 -1.768 650.351 -2.392 Q 651.404 -3.016 651.872 -4.212 M 667.108 -5.356 L 667.108 -5.356 Q 666.38 -5.356 665.86 -5.85 Q 665.34 -6.344 665.34 -7.15 L 665.34 -7.15 Q 665.34 -7.93 665.86 -8.424 Q 666.38 -8.918 667.108 -8.918 L 667.108 -8.918 Q 667.836 -8.918 668.33 -8.424 Q 668.824 -7.93 668.824 -7.15 L 668.824 -7.15 Q 668.824 -6.344 668.33 -5.85 Q 667.836 -5.356 667.108 -5.356 M 682.422 0 L 679.926 0 L 679.926 -13.78 L 682.422 -13.78 L 682.422 0 M 681.174 -16.432 L 681.174 -16.432 Q 680.446 -16.432 679.965 -16.9 Q 679.484 -17.368 679.484 -18.044 L 679.484 -18.044 Q 679.484 -18.72 679.965 -19.201 Q 680.446 -19.682 681.174 -19.682 L 681.174 -19.682 Q 681.902 -19.682 682.383 -19.227 Q 682.864 -18.772 682.864 -18.096 L 682.864 -18.096 Q 682.864 -17.394 682.383 -16.913 Q 681.902 -16.432 681.174 -16.432 M 695.76 0.208 L 695.76 0.208 Q 693.654 0.208 691.886 -0.494 Q 690.118 -1.196 688.818 -2.444 Q 687.518 -3.692 686.79 -5.395 Q 686.062 -7.098 686.062 -9.1 L 686.062 -9.1 Q 686.062 -11.102 686.79 -12.805 Q 687.518 -14.508 688.818 -15.756 Q 690.118 -17.004 691.886 -17.706 Q 693.654 -18.408 695.76 -18.408 L 695.76 -18.408 Q 697.84 -18.408 699.595 -17.719 Q 701.35 -17.03 702.663 -15.769 Q 703.976 -14.508 704.691 -12.805 Q 705.406 -11.102 705.406 -9.1 L 705.406 -9.1 Q 705.406 -7.098 704.691 -5.395 Q 703.976 -3.692 702.663 -2.431 Q 701.35 -1.17 699.595 -0.481 Q 697.84 0.208 695.76 0.208 M 695.76 -2.106 L 695.76 -2.106 Q 697.762 -2.106 699.361 -3.016 Q 700.96 -3.926 701.883 -5.512 Q 702.806 -7.098 702.806 -9.1 L 702.806 -9.1 Q 702.806 -11.102 701.883 -12.688 Q 700.96 -14.274 699.361 -15.184 Q 697.762 -16.094 695.76 -16.094 L 695.76 -16.094 Q 693.706 -16.094 692.107 -15.184 Q 690.508 -14.274 689.585 -12.688 Q 688.662 -11.102 688.662 -9.1 L 688.662 -9.1 Q 688.662 -7.098 689.585 -5.512 Q 690.508 -3.926 692.107 -3.016 Q 693.706 -2.106 695.76 -2.106 M 714.688 0.208 L 714.688 0.208 Q 712.608 0.208 710.71 -0.429 Q 708.812 -1.066 707.72 -2.08 L 707.72 -2.08 L 708.682 -4.108 Q 709.696 -3.198 711.321 -2.6 Q 712.946 -2.002 714.688 -2.002 L 714.688 -2.002 Q 717.028 -2.002 718.107 -2.808 Q 719.186 -3.614 719.186 -4.81 L 719.186 -4.81 Q 719.186 -5.746 718.588 -6.318 Q 717.99 -6.89 717.002 -7.241 Q 716.014 -7.592 714.844 -7.852 Q 713.674 -8.112 712.491 -8.45 Q 711.308 -8.788 710.333 -9.347 Q 709.358 -9.906 708.76 -10.829 Q 708.162 -11.752 708.162 -13.208 L 708.162 -13.208 Q 708.162 -14.612 708.903 -15.795 Q 709.644 -16.978 711.191 -17.693 Q 712.738 -18.408 715.13 -18.408 L 715.13 -18.408 Q 716.742 -18.408 718.289 -17.992 Q 719.836 -17.576 720.98 -16.796 L 720.98 -16.796 L 720.122 -14.716 Q 718.952 -15.47 717.639 -15.834 Q 716.326 -16.198 715.13 -16.198 L 715.13 -16.198 Q 712.816 -16.198 711.763 -15.353 Q 710.71 -14.508 710.71 -13.312 L 710.71 -13.312 Q 710.71 -12.35 711.308 -11.778 Q 711.906 -11.206 712.894 -10.868 Q 713.882 -10.53 715.052 -10.257 Q 716.222 -9.984 717.405 -9.646 Q 718.588 -9.308 719.563 -8.762 Q 720.538 -8.216 721.136 -7.306 Q 721.734 -6.396 721.734 -4.966 L 721.734 -4.966 Q 721.734 -3.588 720.98 -2.405 Q 720.226 -1.222 718.653 -0.507 Q 717.08 0.208 714.688 0.208 M 738.296 0.156 L 738.296 0.156 Q 736.086 0.156 734.409 -0.754 Q 732.732 -1.664 731.809 -3.25 Q 730.886 -4.836 730.886 -6.89 L 730.886 -6.89 Q 730.886 -8.944 731.783 -10.53 Q 732.68 -12.116 734.253 -13.013 Q 735.826 -13.91 737.802 -13.91 L 737.802 -13.91 Q 739.804 -13.91 741.338 -13.026 Q 742.872 -12.142 743.743 -10.543 Q 744.614 -8.944 744.614 -6.812 L 744.614 -6.812 Q 744.614 -6.656 744.601 -6.448 Q 744.588 -6.24 744.562 -6.058 L 744.562 -6.058 L 733.382 -6.058 Q 733.616 -4.238 734.968 -3.133 Q 736.32 -2.028 738.374 -2.028 L 738.374 -2.028 Q 740.87 -2.028 742.352 -3.692 L 742.352 -3.692 L 743.73 -2.08 Q 742.794 -0.988 741.403 -0.416 Q 740.012 0.156 738.296 0.156 M 733.382 -7.852 L 733.382 -7.852 L 742.222 -7.852 Q 742.04 -9.594 740.831 -10.699 Q 739.622 -11.804 737.802 -11.804 L 737.802 -11.804 Q 736.008 -11.804 734.799 -10.712 Q 733.59 -9.62 733.382 -7.852 M 755.352 0 L 752.674 0 L 760.916 -18.2 L 763.49 -18.2 L 771.758 0 L 769.028 0 L 767.026 -4.55 L 757.354 -4.55 L 755.352 0 M 762.19 -15.548 L 758.264 -6.63 L 766.116 -6.63 L 762.19 -15.548 M 776.594 0 L 774.098 0 L 774.098 -13.78 L 776.49 -13.78 L 776.49 -11.7 Q 777.27 -12.766 778.544 -13.338 Q 779.818 -13.91 781.456 -13.91 L 781.456 -13.91 Q 783.12 -13.91 784.42 -13.26 Q 785.72 -12.61 786.448 -11.284 Q 787.176 -9.958 787.176 -7.93 L 787.176 -7.93 L 787.176 0 L 784.68 0 L 784.68 -7.644 Q 784.68 -9.672 783.705 -10.673 Q 782.73 -11.674 780.962 -11.674 L 780.962 -11.674 Q 778.986 -11.674 777.79 -10.504 Q 776.594 -9.334 776.594 -7.098 L 776.594 -7.098 L 776.594 0 M 797.498 0.156 L 797.498 0.156 Q 795.496 0.156 793.923 -0.728 Q 792.35 -1.612 791.44 -3.198 Q 790.53 -4.784 790.53 -6.89 L 790.53 -6.89 Q 790.53 -8.996 791.44 -10.582 Q 792.35 -12.168 793.923 -13.039 Q 795.496 -13.91 797.498 -13.91 L 797.498 -13.91 Q 798.954 -13.91 800.202 -13.364 Q 801.45 -12.818 802.308 -11.726 L 802.308 -11.726 L 802.308 -19.292 L 804.804 -19.292 L 804.804 0 L 802.412 0 L 802.412 -2.158 Q 801.554 -1.014 800.28 -0.429 Q 799.006 0.156 797.498 0.156 M 797.706 -2.028 L 797.706 -2.028 Q 799.006 -2.028 800.059 -2.639 Q 801.112 -3.25 801.723 -4.342 Q 802.334 -5.434 802.334 -6.89 L 802.334 -6.89 Q 802.334 -8.346 801.723 -9.438 Q 801.112 -10.53 800.059 -11.128 Q 799.006 -11.726 797.706 -11.726 L 797.706 -11.726 Q 796.38 -11.726 795.327 -11.128 Q 794.274 -10.53 793.663 -9.438 Q 793.052 -8.346 793.052 -6.89 L 793.052 -6.89 Q 793.052 -5.434 793.663 -4.342 Q 794.274 -3.25 795.327 -2.639 Q 796.38 -2.028 797.706 -2.028 M 812.032 0 L 809.536 0 L 809.536 -13.78 L 811.928 -13.78 L 811.928 -11.492 Q 813.306 -13.91 816.946 -13.91 L 816.946 -13.91 L 816.946 -11.492 Q 816.79 -11.492 816.647 -11.505 Q 816.504 -11.518 816.374 -11.518 L 816.374 -11.518 Q 814.372 -11.518 813.202 -10.322 Q 812.032 -9.126 812.032 -6.864 L 812.032 -6.864 L 812.032 0 M 826.098 0.156 L 826.098 0.156 Q 824.018 0.156 822.406 -0.754 Q 820.794 -1.664 819.858 -3.25 Q 818.922 -4.836 818.922 -6.89 L 818.922 -6.89 Q 818.922 -8.944 819.858 -10.53 Q 820.794 -12.116 822.406 -13.013 Q 824.018 -13.91 826.098 -13.91 L 826.098 -13.91 Q 828.152 -13.91 829.777 -13.013 Q 831.402 -12.116 832.325 -10.53 Q 833.248 -8.944 833.248 -6.89 L 833.248 -6.89 Q 833.248 -4.836 832.325 -3.25 Q 831.402 -1.664 829.777 -0.754 Q 828.152 0.156 826.098 0.156 M 826.098 -2.028 L 826.098 -2.028 Q 827.424 -2.028 828.477 -2.639 Q 829.53 -3.25 830.128 -4.342 Q 830.726 -5.434 830.726 -6.89 L 830.726 -6.89 Q 830.726 -8.346 830.128 -9.438 Q 829.53 -10.53 828.477 -11.128 Q 827.424 -11.726 826.098 -11.726 L 826.098 -11.726 Q 824.772 -11.726 823.719 -11.128 Q 822.666 -10.53 822.055 -9.438 Q 821.444 -8.346 821.444 -6.89 L 821.444 -6.89 Q 821.444 -5.434 822.055 -4.342 Q 822.666 -3.25 823.719 -2.639 Q 824.772 -2.028 826.098 -2.028 M 839.202 0 L 836.706 0 L 836.706 -13.78 L 839.202 -13.78 L 839.202 0 M 837.954 -16.432 L 837.954 -16.432 Q 837.226 -16.432 836.745 -16.9 Q 836.264 -17.368 836.264 -18.044 L 836.264 -18.044 Q 836.264 -18.72 836.745 -19.201 Q 837.226 -19.682 837.954 -19.682 L 837.954 -19.682 Q 838.682 -19.682 839.163 -19.227 Q 839.644 -18.772 839.644 -18.096 L 839.644 -18.096 Q 839.644 -17.394 839.163 -16.913 Q 838.682 -16.432 837.954 -16.432 M 849.654 0.156 L 849.654 0.156 Q 847.652 0.156 846.079 -0.728 Q 844.506 -1.612 843.596 -3.198 Q 842.686 -4.784 842.686 -6.89 L 842.686 -6.89 Q 842.686 -8.996 843.596 -10.582 Q 844.506 -12.168 846.079 -13.039 Q 847.652 -13.91 849.654 -13.91 L 849.654 -13.91 Q 851.11 -13.91 852.358 -13.364 Q 853.606 -12.818 854.464 -11.726 L 854.464 -11.726 L 854.464 -19.292 L 856.96 -19.292 L 856.96 0 L 854.568 0 L 854.568 -2.158 Q 853.71 -1.014 852.436 -0.429 Q 851.162 0.156 849.654 0.156 M 849.862 -2.028 L 849.862 -2.028 Q 851.162 -2.028 852.215 -2.639 Q 853.268 -3.25 853.879 -4.342 Q 854.49 -5.434 854.49 -6.89 L 854.49 -6.89 Q 854.49 -8.346 853.879 -9.438 Q 853.268 -10.53 852.215 -11.128 Q 851.162 -11.726 849.862 -11.726 L 849.862 -11.726 Q 848.536 -11.726 847.483 -11.128 Q 846.43 -10.53 845.819 -9.438 Q 845.208 -8.346 845.208 -6.89 L 845.208 -6.89 Q 845.208 -5.434 845.819 -4.342 Q 846.43 -3.25 847.483 -2.639 Q 848.536 -2.028 849.862 -2.028" fill="#AEB5C0"/></g></svg>