<svg xmlns="http://www.w3.org/2000/svg" width="597" height="100" viewBox="0 0 597 100"><g transform="scale(0.3333333333333333)"><path d="M 247.00,134.41 Q 256.00,150.00 247.00,165.59 L 212.00,226.21 Q 203.00,241.80 185.00,241.80 L 115.00,241.80 Q 97.00,241.80 88.00,226.21 L 53.00,165.59 Q 44.00,150.00 53.00,134.41 L 88.00,73.79 Q 97.00,58.20 115.00,58.20 L 185.00,58.20 Q 203.00,58.20 212.00,73.79 Z" fill="none" stroke="#F2A623" stroke-width="12.3" stroke-linejoin="round"/><path d="M 118,198 L 118,117 L 150,170.46 L 182,117 L 182,198" fill="none" stroke="#F2A623" stroke-width="28" stroke-linecap="round" stroke-linejoin="round"/></g><g transform="translate(112,79.06958605369766)"><path d="M 21.013 0 L 5.814 0 L 5.814 -58.139 L 19.352 -58.139 L 39.784 -24.502 L 59.717 -58.139 L 73.255 -58.139 L 73.421 0 L 58.305 0 L 58.139 -30.814 L 43.189 -5.731 L 35.88 -5.731 L 21.013 -29.983 L 21.013 0 M 106.893 0.748 L 106.893 0.748 Q 98.92 0.748 92.981 -2.284 Q 87.043 -5.316 83.762 -10.59 Q 80.481 -15.864 80.481 -22.591 L 80.481 -22.591 Q 80.481 -29.319 83.72 -34.551 Q 86.96 -39.784 92.566 -42.774 Q 98.172 -45.764 105.232 -45.764 L 105.232 -45.764 Q 111.876 -45.764 117.358 -43.023 Q 122.84 -40.282 126.079 -35.091 Q 129.318 -29.9 129.318 -22.425 L 129.318 -22.425 Q 129.318 -21.595 129.235 -20.515 Q 129.152 -19.435 129.069 -18.521 L 129.069 -18.521 L 96.345 -18.521 Q 97.342 -15.116 100.207 -13.206 Q 103.072 -11.296 107.391 -11.296 L 107.391 -11.296 Q 110.714 -11.296 113.081 -12.251 Q 115.448 -13.206 117.773 -15.199 L 117.773 -15.199 L 126.079 -6.561 Q 119.518 0.748 106.893 0.748 M 96.096 -26.827 L 96.096 -26.827 L 114.534 -26.827 Q 113.87 -30.398 111.42 -32.475 Q 108.969 -34.551 105.315 -34.551 L 105.315 -34.551 Q 101.66 -34.551 99.21 -32.475 Q 96.76 -30.398 96.096 -26.827 M 151.411 0 L 135.63 0 L 135.63 -45.016 L 150.664 -45.016 L 150.664 -40.116 Q 153.321 -42.94 157.017 -44.352 Q 160.713 -45.764 164.949 -45.764 L 164.949 -45.764 Q 170.182 -45.764 174.418 -43.646 Q 178.653 -41.528 181.104 -37.126 Q 183.554 -32.724 183.554 -25.747 L 183.554 -25.747 L 183.554 0 L 167.773 0 L 167.773 -23.173 Q 167.773 -27.99 165.78 -30.191 Q 163.786 -32.392 160.381 -32.392 L 160.381 -32.392 Q 156.56 -32.392 153.986 -29.859 Q 151.411 -27.325 151.411 -21.761 L 151.411 -21.761 L 151.411 0" fill="#FFFFFF"/><path d="M 212.54 0.748 L 212.54 0.748 Q 203.902 0.748 199.085 -3.53 Q 194.268 -7.807 194.268 -16.445 L 194.268 -16.445 L 194.268 -33.305 L 187.706 -33.305 L 187.706 -45.016 L 194.268 -45.016 L 194.268 -55.066 L 210.049 -55.066 L 210.049 -45.016 L 220.347 -45.016 L 220.347 -33.305 L 210.049 -33.305 L 210.049 -16.611 Q 210.049 -14.12 211.336 -12.791 Q 212.623 -11.462 214.783 -11.462 L 214.783 -11.462 Q 217.524 -11.462 219.6 -12.874 L 219.6 -12.874 L 223.504 -1.827 Q 221.427 -0.498 218.52 0.125 Q 215.613 0.748 212.54 0.748 M 251.161 0.748 L 251.161 0.748 Q 243.769 0.748 238.038 -2.243 Q 232.308 -5.233 229.027 -10.507 Q 225.746 -15.781 225.746 -22.591 L 225.746 -22.591 Q 225.746 -29.319 229.027 -34.593 Q 232.308 -39.867 238.038 -42.815 Q 243.769 -45.764 251.161 -45.764 L 251.161 -45.764 Q 258.553 -45.764 264.326 -42.815 Q 270.098 -39.867 273.337 -34.593 Q 276.576 -29.319 276.576 -22.591 L 276.576 -22.591 Q 276.576 -15.781 273.337 -10.507 Q 270.098 -5.233 264.326 -2.243 Q 258.553 0.748 251.161 0.748 M 251.161 -11.794 L 251.161 -11.794 Q 255.231 -11.794 257.93 -14.618 Q 260.63 -17.442 260.63 -22.591 L 260.63 -22.591 Q 260.63 -27.658 257.93 -30.44 Q 255.231 -33.222 251.161 -33.222 L 251.161 -33.222 Q 247.175 -33.222 244.434 -30.44 Q 241.693 -27.658 241.693 -22.591 L 241.693 -22.591 Q 241.693 -17.442 244.434 -14.618 Q 247.175 -11.794 251.161 -11.794 M 298.669 0 L 282.889 0 L 282.889 -45.016 L 297.922 -45.016 L 297.922 -39.618 Q 302.822 -45.764 313.038 -45.764 L 313.038 -45.764 L 313.038 -31.561 Q 311.045 -31.81 309.467 -31.81 L 309.467 -31.81 Q 304.649 -31.81 301.659 -29.194 Q 298.669 -26.578 298.669 -20.681 L 298.669 -20.681 L 298.669 0" fill="#F2A623"/><path d="M 337.955 0.748 L 337.955 0.748 Q 331.809 0.748 326.825 -2.076 Q 321.842 -4.9 318.852 -10.133 Q 315.862 -15.365 315.862 -22.508 L 315.862 -22.508 Q 315.862 -29.651 318.852 -34.884 Q 321.842 -40.116 326.825 -42.94 Q 331.809 -45.764 337.955 -45.764 L 337.955 -45.764 Q 346.759 -45.764 351.244 -40.531 L 351.244 -40.531 L 351.244 -45.016 L 366.277 -45.016 L 366.277 16.113 L 350.496 16.113 L 350.496 -3.904 Q 345.928 0.748 337.955 0.748 M 341.277 -11.794 L 341.277 -11.794 Q 345.264 -11.794 348.004 -14.576 Q 350.745 -17.359 350.745 -22.508 L 350.745 -22.508 Q 350.745 -27.575 348.004 -30.398 Q 345.264 -33.222 341.277 -33.222 L 341.277 -33.222 Q 337.29 -33.222 334.549 -30.398 Q 331.809 -27.575 331.809 -22.508 L 331.809 -22.508 Q 331.809 -17.359 334.549 -14.576 Q 337.29 -11.794 341.277 -11.794 M 394.35 0.748 L 394.35 0.748 Q 388.785 0.748 384.466 -1.453 Q 380.147 -3.654 377.697 -8.181 Q 375.247 -12.708 375.247 -19.85 L 375.247 -19.85 L 375.247 -45.016 L 391.027 -45.016 L 391.027 -22.425 Q 391.027 -17.193 393.021 -14.95 Q 395.014 -12.708 398.502 -12.708 L 398.502 -12.708 Q 401.991 -12.708 404.483 -15.199 Q 406.974 -17.691 406.974 -23.339 L 406.974 -23.339 L 406.974 -45.016 L 422.755 -45.016 L 422.755 0 L 407.722 0 L 407.722 -4.817 Q 405.147 -1.993 401.659 -0.623 Q 398.17 0.748 394.35 0.748 M 455.479 0.748 L 455.479 0.748 Q 447.506 0.748 441.567 -2.284 Q 435.629 -5.316 432.348 -10.59 Q 429.067 -15.864 429.067 -22.591 L 429.067 -22.591 Q 429.067 -29.319 432.306 -34.551 Q 435.545 -39.784 441.152 -42.774 Q 446.758 -45.764 453.818 -45.764 L 453.818 -45.764 Q 460.462 -45.764 465.944 -43.023 Q 471.426 -40.282 474.665 -35.091 Q 477.904 -29.9 477.904 -22.425 L 477.904 -22.425 Q 477.904 -21.595 477.821 -20.515 Q 477.738 -19.435 477.655 -18.521 L 477.655 -18.521 L 444.931 -18.521 Q 445.927 -15.116 448.793 -13.206 Q 451.658 -11.296 455.977 -11.296 L 455.977 -11.296 Q 459.299 -11.296 461.667 -12.251 Q 464.034 -13.206 466.359 -15.199 L 466.359 -15.199 L 474.665 -6.561 Q 468.103 0.748 455.479 0.748 M 444.682 -26.827 L 444.682 -26.827 L 463.12 -26.827 Q 462.456 -30.398 460.005 -32.475 Q 457.555 -34.551 453.901 -34.551 L 453.901 -34.551 Q 450.246 -34.551 447.796 -32.475 Q 445.346 -30.398 444.682 -26.827" fill="#FFFFFF"/></g></svg>