<svg xmlns="http://www.w3.org/2000/svg" width="1024" height="1024" viewBox="0 0 1024 1024"><path d="M1024.00,512.00 L 1023.56,683.99 L 1022.24,738.75 L 1020.04,778.30 L 1016.95,810.17 L 1012.95,837.17 L 1008.04,860.66 L 1002.19,881.45 L 995.37,900.02 L 987.56,916.73 L 978.72,931.81 L 968.79,945.43 L 957.72,957.72 L 945.43,968.79 L 931.81,978.72 L 916.73,987.56 L 900.02,995.37 L 881.45,1002.19 L 860.66,1008.04 L 837.17,1012.95 L 810.17,1016.95 L 778.30,1020.04 L 738.75,1022.24 L 683.99,1023.56 L 512.00,1024.00 L 340.01,1023.56 L 285.25,1022.24 L 245.70,1020.04 L 213.83,1016.95 L 186.83,1012.95 L 163.34,1008.04 L 142.55,1002.19 L 123.98,995.37 L 107.27,987.56 L 92.19,978.72 L 78.57,968.79 L 66.28,957.72 L 55.21,945.43 L 45.28,931.81 L 36.44,916.73 L 28.63,900.02 L 21.81,881.45 L 15.96,860.66 L 11.05,837.17 L 7.05,810.17 L 3.96,778.30 L 1.76,738.75 L 0.44,683.99 L 0.00,512.00 L 0.44,340.01 L 1.76,285.25 L 3.96,245.70 L 7.05,213.83 L 11.05,186.83 L 15.96,163.34 L 21.81,142.55 L 28.63,123.98 L 36.44,107.27 L 45.28,92.19 L 55.21,78.57 L 66.28,66.28 L 78.57,55.21 L 92.19,45.28 L 107.27,36.44 L 123.98,28.63 L 142.55,21.81 L 163.34,15.96 L 186.83,11.05 L 213.83,7.05 L 245.70,3.96 L 285.25,1.76 L 340.01,0.44 L 512.00,0.00 L 683.99,0.44 L 738.75,1.76 L 778.30,3.96 L 810.17,7.05 L 837.17,11.05 L 860.66,15.96 L 881.45,21.81 L 900.02,28.63 L 916.73,36.44 L 931.81,45.28 L 945.43,55.21 L 957.72,66.28 L 968.79,78.57 L 978.72,92.19 L 987.56,107.27 L 995.37,123.98 L 1002.19,142.55 L 1008.04,163.34 L 1012.95,186.83 L 1016.95,213.83 L 1020.04,245.70 L 1022.24,285.25 L 1023.56,340.01 L 1024.00,512.00 Z" fill="#F4F2EC"/><g transform="translate(174.08,174.08) scale(2.2528)"><path d="M 247.00,134.41 Q 256.00,150.00 247.00,165.59 L 212.00,226.21 Q 203.00,241.80 185.00,241.80 L 115.00,241.80 Q 97.00,241.80 88.00,226.21 L 53.00,165.59 Q 44.00,150.00 53.00,134.41 L 88.00,73.79 Q 97.00,58.20 115.00,58.20 L 185.00,58.20 Q 203.00,58.20 212.00,73.79 Z" fill="none" stroke="#F2A623" stroke-width="12.3" stroke-linejoin="round"/><path d="M 118,198 L 118,117 L 150,170.46 L 182,117 L 182,198" fill="none" stroke="#F2A623" stroke-width="28" stroke-linecap="round" stroke-linejoin="round"/></g></svg>