<svg xmlns="http://www.w3.org/2000/svg" width="1309.9679688319522" height="360" viewBox="0 0 1309.9679688319522 360"><rect width="1309.9679688319522" height="360" fill="#F4F2EC"/><g transform="translate(80,80)"><g transform="translate(0,0) scale(0.6666666666666666)"><path d="M 247.00,134.41 Q 256.00,150.00 247.00,165.59 L 212.00,226.21 Q 203.00,241.80 185.00,241.80 L 115.00,241.80 Q 97.00,241.80 88.00,226.21 L 53.00,165.59 Q 44.00,150.00 53.00,134.41 L 88.00,73.79 Q 97.00,58.20 115.00,58.20 L 185.00,58.20 Q 203.00,58.20 212.00,73.79 Z" fill="none" stroke="#F2A623" stroke-width="12.3" stroke-linejoin="round"/><path d="M 118,198 L 118,117 L 150,170.46 L 182,117 L 182,198" fill="none" stroke="#F2A623" stroke-width="28" stroke-linecap="round" stroke-linejoin="round"/></g><g transform="translate(220,156.3031982513723)"><path d="M 40.699 0 L 11.261 0 L 11.261 -112.606 L 37.482 -112.606 L 77.055 -47.456 L 115.663 -112.606 L 141.884 -112.606 L 142.206 0 L 112.928 0 L 112.606 -59.681 L 83.65 -11.1 L 69.494 -11.1 L 40.699 -58.073 L 40.699 0 M 207.035 1.448 L 207.035 1.448 Q 191.592 1.448 180.09 -4.424 Q 168.588 -10.295 162.234 -20.51 Q 155.879 -30.725 155.879 -43.756 L 155.879 -43.756 Q 155.879 -56.786 162.153 -66.92 Q 168.427 -77.055 179.285 -82.846 Q 190.144 -88.637 203.818 -88.637 L 203.818 -88.637 Q 216.687 -88.637 227.304 -83.329 Q 237.921 -78.02 244.195 -67.966 Q 250.469 -57.912 250.469 -43.434 L 250.469 -43.434 Q 250.469 -41.825 250.308 -39.734 Q 250.147 -37.643 249.986 -35.873 L 249.986 -35.873 L 186.605 -35.873 Q 188.535 -29.278 194.085 -25.578 Q 199.635 -21.878 208 -21.878 L 208 -21.878 Q 214.435 -21.878 219.019 -23.728 Q 223.604 -25.578 228.108 -29.439 L 228.108 -29.439 L 244.195 -12.708 Q 231.487 1.448 207.035 1.448 M 186.122 -51.96 L 186.122 -51.96 L 221.835 -51.96 Q 220.548 -58.877 215.802 -62.899 Q 211.057 -66.92 203.978 -66.92 L 203.978 -66.92 Q 196.9 -66.92 192.155 -62.899 Q 187.409 -58.877 186.122 -51.96 M 293.259 0 L 262.695 0 L 262.695 -87.19 L 291.811 -87.19 L 291.811 -77.698 Q 296.959 -83.168 304.118 -85.903 Q 311.276 -88.637 319.48 -88.637 L 319.48 -88.637 Q 329.615 -88.637 337.819 -84.535 Q 346.023 -80.433 350.769 -71.907 Q 355.514 -63.381 355.514 -49.869 L 355.514 -49.869 L 355.514 0 L 324.95 0 L 324.95 -44.882 Q 324.95 -54.212 321.089 -58.475 Q 317.228 -62.738 310.633 -62.738 L 310.633 -62.738 Q 303.233 -62.738 298.246 -57.831 Q 293.259 -52.925 293.259 -42.147 L 293.259 -42.147 L 293.259 0" fill="#14161B"/><path d="M 411.657 1.448 L 411.657 1.448 Q 394.927 1.448 385.596 -6.837 Q 376.266 -15.121 376.266 -31.852 L 376.266 -31.852 L 376.266 -64.507 L 363.558 -64.507 L 363.558 -87.19 L 376.266 -87.19 L 376.266 -106.654 L 406.831 -106.654 L 406.831 -87.19 L 426.778 -87.19 L 426.778 -64.507 L 406.831 -64.507 L 406.831 -32.173 Q 406.831 -27.347 409.324 -24.773 Q 411.818 -22.2 416 -22.2 L 416 -22.2 Q 421.309 -22.2 425.33 -24.934 L 425.33 -24.934 L 432.891 -3.539 Q 428.87 -0.965 423.239 0.241 Q 417.609 1.448 411.657 1.448 M 486.46 1.448 L 486.46 1.448 Q 472.143 1.448 461.043 -4.343 Q 449.943 -10.135 443.589 -20.35 Q 437.235 -30.565 437.235 -43.756 L 437.235 -43.756 Q 437.235 -56.786 443.589 -67.001 Q 449.943 -77.216 461.043 -82.927 Q 472.143 -88.637 486.46 -88.637 L 486.46 -88.637 Q 500.777 -88.637 511.957 -82.927 Q 523.137 -77.216 529.411 -67.001 Q 535.685 -56.786 535.685 -43.756 L 535.685 -43.756 Q 535.685 -30.565 529.411 -20.35 Q 523.137 -10.135 511.957 -4.343 Q 500.777 1.448 486.46 1.448 M 486.46 -22.843 L 486.46 -22.843 Q 494.342 -22.843 499.57 -28.312 Q 504.798 -33.782 504.798 -43.756 L 504.798 -43.756 Q 504.798 -53.568 499.57 -58.957 Q 494.342 -64.347 486.46 -64.347 L 486.46 -64.347 Q 478.738 -64.347 473.429 -58.957 Q 468.121 -53.568 468.121 -43.756 L 468.121 -43.756 Q 468.121 -33.782 473.429 -28.312 Q 478.738 -22.843 486.46 -22.843 M 578.475 0 L 547.911 0 L 547.911 -87.19 L 577.027 -87.19 L 577.027 -76.733 Q 586.518 -88.637 606.305 -88.637 L 606.305 -88.637 L 606.305 -61.129 Q 602.444 -61.612 599.388 -61.612 L 599.388 -61.612 Q 590.058 -61.612 584.266 -56.544 Q 578.475 -51.477 578.475 -40.056 L 578.475 -40.056 L 578.475 0" fill="#F2A623"/><path d="M 654.565 1.448 L 654.565 1.448 Q 642.661 1.448 633.009 -4.022 Q 623.357 -9.491 617.566 -19.626 Q 611.774 -29.76 611.774 -43.595 L 611.774 -43.595 Q 611.774 -57.429 617.566 -67.564 Q 623.357 -77.698 633.009 -83.168 Q 642.661 -88.637 654.565 -88.637 L 654.565 -88.637 Q 671.617 -88.637 680.304 -78.503 L 680.304 -78.503 L 680.304 -87.19 L 709.42 -87.19 L 709.42 31.208 L 678.856 31.208 L 678.856 -7.561 Q 670.008 1.448 654.565 1.448 M 661 -22.843 L 661 -22.843 Q 668.721 -22.843 674.03 -28.232 Q 679.338 -33.621 679.338 -43.595 L 679.338 -43.595 Q 679.338 -53.408 674.03 -58.877 Q 668.721 -64.347 661 -64.347 L 661 -64.347 Q 653.278 -64.347 647.969 -58.877 Q 642.661 -53.408 642.661 -43.595 L 642.661 -43.595 Q 642.661 -33.621 647.969 -28.232 Q 653.278 -22.843 661 -22.843 M 763.793 1.448 L 763.793 1.448 Q 753.015 1.448 744.65 -2.815 Q 736.285 -7.078 731.539 -15.845 Q 726.794 -24.613 726.794 -38.447 L 726.794 -38.447 L 726.794 -87.19 L 757.358 -87.19 L 757.358 -43.434 Q 757.358 -33.299 761.219 -28.956 Q 765.08 -24.613 771.836 -24.613 L 771.836 -24.613 Q 778.593 -24.613 783.419 -29.439 Q 788.245 -34.265 788.245 -45.203 L 788.245 -45.203 L 788.245 -87.19 L 818.809 -87.19 L 818.809 0 L 789.693 0 L 789.693 -9.33 Q 784.706 -3.861 777.949 -1.206 Q 771.193 1.448 763.793 1.448 M 882.191 1.448 L 882.191 1.448 Q 866.748 1.448 855.246 -4.424 Q 843.744 -10.295 837.389 -20.51 Q 831.035 -30.725 831.035 -43.756 L 831.035 -43.756 Q 831.035 -56.786 837.309 -66.92 Q 843.583 -77.055 854.441 -82.846 Q 865.3 -88.637 878.973 -88.637 L 878.973 -88.637 Q 891.843 -88.637 902.46 -83.329 Q 913.077 -78.02 919.351 -67.966 Q 925.625 -57.912 925.625 -43.434 L 925.625 -43.434 Q 925.625 -41.825 925.464 -39.734 Q 925.303 -37.643 925.142 -35.873 L 925.142 -35.873 L 861.761 -35.873 Q 863.691 -29.278 869.241 -25.578 Q 874.791 -21.878 883.156 -21.878 L 883.156 -21.878 Q 889.591 -21.878 894.175 -23.728 Q 898.76 -25.578 903.264 -29.439 L 903.264 -29.439 L 919.351 -12.708 Q 906.642 1.448 882.191 1.448 M 861.278 -51.96 L 861.278 -51.96 L 896.99 -51.96 Q 895.703 -58.877 890.958 -62.899 Q 886.212 -66.92 879.134 -66.92 L 879.134 -66.92 Q 872.056 -66.92 867.311 -62.899 Q 862.565 -58.877 861.278 -51.96" fill="#14161B"/></g></g></svg>