<svg xmlns="http://www.w3.org/2000/svg" width="1100" height="560" viewBox="0 0 1100 560">
  <rect width="1100" height="560" fill="#0E0F12"/>
  <g transform="translate(40,40) scale(0.46)"><rect width="1024" height="1024" rx="40" fill="#FFFFFF"/>
    <path d="M 843.00,458.31 Q 874.00,512.00 843.00,565.69 L 724.00,771.81 Q 693.00,825.50 631.00,825.50 L 393.00,825.50 Q 331.00,825.50 300.00,771.81 L 181.00,565.69 Q 150.00,512.00 181.00,458.31 L 300.00,252.19 Q 331.00,198.50 393.00,198.50 L 631.00,198.50 Q 693.00,198.50 724.00,252.19 Z" fill="none" stroke="#F2A623" stroke-width="42" stroke-linejoin="round"/>
    <path d="M 402,676 L 402,398 L 512,581.48 L 622,398 L 622,676" fill="none" stroke="#F2A623" stroke-width="96" stroke-linecap="round" stroke-linejoin="round"/></g>
  <g transform="translate(580,40) scale(0.46)"><path d="M1024.00,512.00 L 1023.56,683.99 L 1022.24,738.75 L 1020.04,778.30 L 1016.95,810.17 L 1012.95,837.17 L 1008.04,860.66 L 1002.19,881.45 L 995.37,900.02 L 987.56,916.73 L 978.72,931.81 L 968.79,945.43 L 957.72,957.72 L 945.43,968.79 L 931.81,978.72 L 916.73,987.56 L 900.02,995.37 L 881.45,1002.19 L 860.66,1008.04 L 837.17,1012.95 L 810.17,1016.95 L 778.30,1020.04 L 738.75,1022.24 L 683.99,1023.56 L 512.00,1024.00 L 340.01,1023.56 L 285.25,1022.24 L 245.70,1020.04 L 213.83,1016.95 L 186.83,1012.95 L 163.34,1008.04 L 142.55,1002.19 L 123.98,995.37 L 107.27,987.56 L 92.19,978.72 L 78.57,968.79 L 66.28,957.72 L 55.21,945.43 L 45.28,931.81 L 36.44,916.73 L 28.63,900.02 L 21.81,881.45 L 15.96,860.66 L 11.05,837.17 L 7.05,810.17 L 3.96,778.30 L 1.76,738.75 L 0.44,683.99 L 0.00,512.00 L 0.44,340.01 L 1.76,285.25 L 3.96,245.70 L 7.05,213.83 L 11.05,186.83 L 15.96,163.34 L 21.81,142.55 L 28.63,123.98 L 36.44,107.27 L 45.28,92.19 L 55.21,78.57 L 66.28,66.28 L 78.57,55.21 L 92.19,45.28 L 107.27,36.44 L 123.98,28.63 L 142.55,21.81 L 163.34,15.96 L 186.83,11.05 L 213.83,7.05 L 245.70,3.96 L 285.25,1.76 L 340.01,0.44 L 512.00,0.00 L 683.99,0.44 L 738.75,1.76 L 778.30,3.96 L 810.17,7.05 L 837.17,11.05 L 860.66,15.96 L 881.45,21.81 L 900.02,28.63 L 916.73,36.44 L 931.81,45.28 L 945.43,55.21 L 957.72,66.28 L 968.79,78.57 L 978.72,92.19 L 987.56,107.27 L 995.37,123.98 L 1002.19,142.55 L 1008.04,163.34 L 1012.95,186.83 L 1016.95,213.83 L 1020.04,245.70 L 1022.24,285.25 L 1023.56,340.01 L 1024.00,512.00 Z" fill="#16181D"/>
    <path d="M 843.00,458.31 Q 874.00,512.00 843.00,565.69 L 724.00,771.81 Q 693.00,825.50 631.00,825.50 L 393.00,825.50 Q 331.00,825.50 300.00,771.81 L 181.00,565.69 Q 150.00,512.00 181.00,458.31 L 300.00,252.19 Q 331.00,198.50 393.00,198.50 L 631.00,198.50 Q 693.00,198.50 724.00,252.19 Z" fill="none" stroke="#F2A623" stroke-width="42" stroke-linejoin="round"/>
    <path d="M 402,676 L 402,398 L 512,581.48 L 622,398 L 622,676" fill="none" stroke="#F2A623" stroke-width="96" stroke-linecap="round" stroke-linejoin="round"/></g>
</svg>