<svg xmlns="http://www.w3.org/2000/svg" width="1500" height="900" viewBox="0 0 1500 900">
  <rect width="1500" height="900" fill="#16181D"/>
  <g transform="translate(80,84)"><path d="M 17 0 L 10.08 0 L 0.88 -28 L 7.6 -28 L 13.92 -8.32 L 20.52 -28 L 26.52 -28 L 32.92 -8.16 L 39.44 -28 L 45.64 -28 L 36.48 0 L 29.52 0 L 23.36 -18.96 L 17 0 M 59.24 0.32 L 59.24 0.32 Q 55.8 0.32 53.14 -1.1 Q 50.48 -2.52 48.94 -5.02 Q 47.4 -7.52 47.4 -10.76 L 47.4 -10.76 Q 47.4 -14 48.94 -16.5 Q 50.48 -19 53.14 -20.42 Q 55.8 -21.84 59.24 -21.84 L 59.24 -21.84 Q 62.64 -21.84 65.32 -20.42 Q 68 -19 69.52 -16.5 Q 71.04 -14 71.04 -10.76 L 71.04 -10.76 Q 71.04 -7.52 69.52 -5.02 Q 68 -2.52 65.32 -1.1 Q 62.64 0.32 59.24 0.32 M 59.24 -4.8 L 59.24 -4.8 Q 61.56 -4.8 63.14 -6.4 Q 64.72 -8 64.72 -10.76 L 64.72 -10.76 Q 64.72 -13.56 63.14 -15.14 Q 61.56 -16.72 59.24 -16.72 L 59.24 -16.72 Q 56.88 -16.72 55.3 -15.14 Q 53.72 -13.56 53.72 -10.76 L 53.72 -10.76 Q 53.72 -8 55.3 -6.4 Q 56.88 -4.8 59.24 -4.8 M 81.04 0 L 74.8 0 L 74.8 -21.52 L 80.76 -21.52 L 80.76 -18.68 Q 83.04 -21.84 88.16 -21.84 L 88.16 -21.84 L 88.16 -16.08 Q 87.36 -16.16 86.76 -16.16 L 86.76 -16.16 Q 84.16 -16.16 82.6 -14.7 Q 81.04 -13.24 81.04 -10.16 L 81.04 -10.16 L 81.04 0 M 100.88 0.32 L 100.88 0.32 Q 97.84 0.32 95.4 -1.04 Q 92.96 -2.4 91.54 -4.9 Q 90.12 -7.4 90.12 -10.76 L 90.12 -10.76 Q 90.12 -14.16 91.54 -16.64 Q 92.96 -19.12 95.4 -20.48 Q 97.84 -21.84 100.88 -21.84 L 100.88 -21.84 Q 102.84 -21.84 104.48 -21.2 Q 106.12 -20.56 107.32 -19.24 L 107.32 -19.24 L 107.32 -29.68 L 113.56 -29.68 L 113.56 0 L 107.6 0 L 107.6 -2.48 Q 105.32 0.32 100.88 0.32 M 101.96 -4.8 L 101.96 -4.8 Q 104.28 -4.8 105.86 -6.4 Q 107.44 -8 107.44 -10.76 L 107.44 -10.76 Q 107.44 -13.56 105.86 -15.14 Q 104.28 -16.72 101.96 -16.72 L 101.96 -16.72 Q 99.6 -16.72 98.02 -15.14 Q 96.44 -13.56 96.44 -10.76 L 96.44 -10.76 Q 96.44 -8 98.02 -6.4 Q 99.6 -4.8 101.96 -4.8 M 125.16 0 L 118.92 0 L 118.92 -21.52 L 124.88 -21.52 L 124.88 -19.04 Q 126.08 -20.4 127.82 -21.12 Q 129.56 -21.84 131.64 -21.84 L 131.64 -21.84 Q 133.88 -21.84 135.74 -20.96 Q 137.6 -20.08 138.72 -18.32 L 138.72 -18.32 Q 140 -19.96 142.02 -20.9 Q 144.04 -21.84 146.48 -21.84 L 146.48 -21.84 Q 149.04 -21.84 151.02 -20.82 Q 153 -19.8 154.14 -17.7 Q 155.28 -15.6 155.28 -12.32 L 155.28 -12.32 L 155.28 0 L 149.04 0 L 149.04 -11.36 Q 149.04 -13.96 147.94 -15.2 Q 146.84 -16.44 144.96 -16.44 L 144.96 -16.44 Q 142.84 -16.44 141.52 -15.06 Q 140.2 -13.68 140.2 -10.8 L 140.2 -10.8 L 140.2 0 L 133.96 0 L 133.96 -11.36 Q 133.96 -13.96 132.9 -15.2 Q 131.84 -16.44 129.88 -16.44 L 129.88 -16.44 Q 127.8 -16.44 126.48 -15.06 Q 125.16 -13.68 125.16 -10.8 L 125.16 -10.8 L 125.16 0 M 179.52 0 L 173.68 0 L 173.68 -2.64 Q 171.88 0.32 167.12 0.32 L 167.12 0.32 Q 163.32 0.32 161.2 -1.54 Q 159.08 -3.4 159.08 -6.2 L 159.08 -6.2 Q 159.08 -9.04 161.24 -10.84 Q 163.4 -12.64 168.32 -12.64 L 168.32 -12.64 L 173.28 -12.64 L 173.28 -12.64 Q 173.28 -14.64 172.06 -15.76 Q 170.84 -16.88 168.32 -16.88 L 168.32 -16.88 Q 166.6 -16.88 164.94 -16.34 Q 163.28 -15.8 162.12 -14.88 L 162.12 -14.88 L 159.88 -19.24 Q 161.64 -20.48 164.12 -21.16 Q 166.6 -21.84 169.16 -21.84 L 169.16 -21.84 Q 174.08 -21.84 176.8 -19.5 Q 179.52 -17.16 179.52 -12.28 L 179.52 -12.28 L 179.52 0 M 173.28 -6.8 L 173.28 -6.8 L 173.28 -9 L 169 -9 Q 166.8 -9 165.98 -8.28 Q 165.16 -7.56 165.16 -6.48 L 165.16 -6.48 Q 165.16 -5.28 166.1 -4.58 Q 167.04 -3.88 168.68 -3.88 L 168.68 -3.88 Q 170.24 -3.88 171.48 -4.62 Q 172.72 -5.36 173.28 -6.8 M 191 0 L 184.76 0 L 184.76 -21.52 L 190.72 -21.52 L 190.72 -18.68 Q 193 -21.84 198.12 -21.84 L 198.12 -21.84 L 198.12 -16.08 Q 197.32 -16.16 196.72 -16.16 L 196.72 -16.16 Q 194.12 -16.16 192.56 -14.7 Q 191 -13.24 191 -10.16 L 191 -10.16 L 191 0 M 207.84 0 L 201.6 0 L 201.6 -29.68 L 207.84 -29.68 L 207.84 -12.92 L 216.96 -21.52 L 224.4 -21.52 L 215.44 -12.4 L 225.2 0 L 217.64 0 L 210.88 -8.4 L 207.84 -5.48 L 207.84 0 M 275.44 -9.32 L 235.44 -9.32 L 235.44 -13.2 L 275.44 -13.2 L 275.44 -9.32 M 298 0.32 L 298 0.32 Q 294.96 0.32 292.52 -1.04 Q 290.08 -2.4 288.66 -4.88 Q 287.24 -7.36 287.24 -10.76 L 287.24 -10.76 Q 287.24 -14.12 288.66 -16.6 Q 290.08 -19.08 292.52 -20.46 Q 294.96 -21.84 298 -21.84 L 298 -21.84 Q 302.44 -21.84 304.72 -19.04 L 304.72 -19.04 L 304.72 -21.52 L 310.68 -21.52 L 310.68 7.76 L 304.44 7.76 L 304.44 -2.28 Q 303.24 -0.96 301.6 -0.32 Q 299.96 0.32 298 0.32 M 299.08 -4.8 L 299.08 -4.8 Q 301.4 -4.8 302.98 -6.38 Q 304.56 -7.96 304.56 -10.76 L 304.56 -10.76 Q 304.56 -13.52 302.98 -15.12 Q 301.4 -16.72 299.08 -16.72 L 299.08 -16.72 Q 296.72 -16.72 295.14 -15.12 Q 293.56 -13.52 293.56 -10.76 L 293.56 -10.76 Q 293.56 -7.96 295.14 -6.38 Q 296.72 -4.8 299.08 -4.8 M 325.12 0.32 L 325.12 0.32 Q 322.44 0.32 320.34 -0.72 Q 318.24 -1.76 317.08 -3.9 Q 315.92 -6.04 315.92 -9.36 L 315.92 -9.36 L 315.92 -21.52 L 322.16 -21.52 L 322.16 -10.28 Q 322.16 -7.56 323.3 -6.32 Q 324.44 -5.08 326.52 -5.08 L 326.52 -5.08 Q 328.68 -5.08 330.08 -6.5 Q 331.48 -7.92 331.48 -10.88 L 331.48 -10.88 L 331.48 -21.52 L 337.72 -21.52 L 337.72 0 L 331.8 0 L 331.8 -2.52 Q 330.56 -1.12 328.82 -0.4 Q 327.08 0.32 325.12 0.32 M 362.16 0 L 356.32 0 L 356.32 -2.64 Q 354.52 0.32 349.76 0.32 L 349.76 0.32 Q 345.96 0.32 343.84 -1.54 Q 341.72 -3.4 341.72 -6.2 L 341.72 -6.2 Q 341.72 -9.04 343.88 -10.84 Q 346.04 -12.64 350.96 -12.64 L 350.96 -12.64 L 355.92 -12.64 L 355.92 -12.64 Q 355.92 -14.64 354.7 -15.76 Q 353.48 -16.88 350.96 -16.88 L 350.96 -16.88 Q 349.24 -16.88 347.58 -16.34 Q 345.92 -15.8 344.76 -14.88 L 344.76 -14.88 L 342.52 -19.24 Q 344.28 -20.48 346.76 -21.16 Q 349.24 -21.84 351.8 -21.84 L 351.8 -21.84 Q 356.72 -21.84 359.44 -19.5 Q 362.16 -17.16 362.16 -12.28 L 362.16 -12.28 L 362.16 0 M 355.92 -6.8 L 355.92 -6.8 L 355.92 -9 L 351.64 -9 Q 349.44 -9 348.62 -8.28 Q 347.8 -7.56 347.8 -6.48 L 347.8 -6.48 Q 347.8 -5.28 348.74 -4.58 Q 349.68 -3.88 351.32 -3.88 L 351.32 -3.88 Q 352.88 -3.88 354.12 -4.62 Q 355.36 -5.36 355.92 -6.8 M 373.64 0 L 367.4 0 L 367.4 -29.68 L 373.64 -29.68 L 373.64 0 M 396.96 0 L 390.72 0 L 390.72 -16.24 L 387.4 -16.24 L 387.4 -21.04 L 390.72 -21.04 L 390.72 -22 Q 390.72 -25.64 392.88 -27.82 Q 395.04 -30 399.04 -30 L 399.04 -30 Q 400.36 -30 401.64 -29.72 Q 402.92 -29.44 403.8 -28.84 L 403.8 -28.84 L 402.16 -24.32 Q 401.64 -24.68 401 -24.88 Q 400.36 -25.08 399.64 -25.08 L 399.64 -25.08 Q 396.8 -25.08 396.8 -21.96 L 396.8 -21.96 L 396.8 -21.04 L 402.32 -21.04 L 402.32 -16.24 L 396.96 -16.24 L 396.96 0 M 415.28 0.32 L 415.28 0.32 Q 411.84 0.32 409.18 -1.1 Q 406.52 -2.52 404.98 -5.02 Q 403.44 -7.52 403.44 -10.76 L 403.44 -10.76 Q 403.44 -14 404.98 -16.5 Q 406.52 -19 409.18 -20.42 Q 411.84 -21.84 415.28 -21.84 L 415.28 -21.84 Q 418.68 -21.84 421.36 -20.42 Q 424.04 -19 425.56 -16.5 Q 427.08 -14 427.08 -10.76 L 427.08 -10.76 Q 427.08 -7.52 425.56 -5.02 Q 424.04 -2.52 421.36 -1.1 Q 418.68 0.32 415.28 0.32 M 415.28 -4.8 L 415.28 -4.8 Q 417.6 -4.8 419.18 -6.4 Q 420.76 -8 420.76 -10.76 L 420.76 -10.76 Q 420.76 -13.56 419.18 -15.14 Q 417.6 -16.72 415.28 -16.72 L 415.28 -16.72 Q 412.92 -16.72 411.34 -15.14 Q 409.76 -13.56 409.76 -10.76 L 409.76 -10.76 Q 409.76 -8 411.34 -6.4 Q 412.92 -4.8 415.28 -4.8 M 437.08 0 L 430.84 0 L 430.84 -21.52 L 436.8 -21.52 L 436.8 -18.96 Q 438.04 -20.36 439.88 -21.1 Q 441.72 -21.84 443.92 -21.84 L 443.92 -21.84 Q 446.48 -21.84 448.5 -20.82 Q 450.52 -19.8 451.68 -17.7 Q 452.84 -15.6 452.84 -12.32 L 452.84 -12.32 L 452.84 0 L 446.6 0 L 446.6 -11.36 Q 446.6 -13.96 445.44 -15.2 Q 444.28 -16.44 442.24 -16.44 L 442.24 -16.44 Q 440 -16.44 438.54 -15.02 Q 437.08 -13.6 437.08 -10.64 L 437.08 -10.64 L 437.08 0 M 466.88 0.32 L 466.88 0.32 Q 463.08 0.32 460.96 -1.62 Q 458.84 -3.56 458.84 -7.4 L 458.84 -7.4 L 458.84 -16.72 L 455.52 -16.72 L 455.52 -21.52 L 458.84 -21.52 L 458.84 -26.28 L 465.08 -26.28 L 465.08 -21.52 L 470.44 -21.52 L 470.44 -16.72 L 465.08 -16.72 L 465.08 -7.48 Q 465.08 -6.12 465.78 -5.38 Q 466.48 -4.64 467.76 -4.64 L 467.76 -4.64 Q 469.24 -4.64 470.28 -5.44 L 470.28 -5.44 L 471.96 -1.04 Q 471 -0.36 469.66 -0.02 Q 468.32 0.32 466.88 0.32 M 485.76 0.32 L 485.76 0.32 Q 482.04 0.32 479.28 -1.12 Q 476.52 -2.56 475 -5.06 Q 473.48 -7.56 473.48 -10.76 L 473.48 -10.76 Q 473.48 -14 474.98 -16.5 Q 476.48 -19 479.08 -20.42 Q 481.68 -21.84 484.96 -21.84 L 484.96 -21.84 Q 488.12 -21.84 490.66 -20.48 Q 493.2 -19.12 494.68 -16.62 Q 496.16 -14.12 496.16 -10.68 L 496.16 -10.68 Q 496.16 -10.32 496.12 -9.86 Q 496.08 -9.4 496.04 -9 L 496.04 -9 L 479.76 -9 Q 480.24 -7 481.86 -5.84 Q 483.48 -4.68 485.92 -4.68 L 485.92 -4.68 Q 487.64 -4.68 488.94 -5.2 Q 490.24 -5.72 491.32 -6.76 L 491.32 -6.76 L 494.64 -3.16 Q 491.6 0.32 485.76 0.32 M 479.72 -12.64 L 479.72 -12.64 L 490.28 -12.64 Q 489.96 -14.68 488.54 -15.9 Q 487.12 -17.12 485 -17.12 L 485 -17.12 Q 482.88 -17.12 481.46 -15.9 Q 480.04 -14.68 479.72 -12.64 M 511.76 -9.72 L 505.72 -9.72 Q 505.72 -11.4 506.36 -12.62 Q 507 -13.84 507.92 -14.78 Q 508.84 -15.72 509.76 -16.52 Q 510.68 -17.32 511.32 -18.16 Q 511.96 -19 511.96 -20.04 L 511.96 -20.04 Q 511.96 -21.48 510.78 -22.36 Q 509.6 -23.24 507.64 -23.24 L 507.64 -23.24 Q 505.72 -23.24 504.26 -22.46 Q 502.8 -21.68 501.84 -20.28 L 501.84 -20.28 L 497 -23.12 Q 498.64 -25.56 501.46 -27.02 Q 504.28 -28.48 508.32 -28.48 L 508.32 -28.48 Q 511.32 -28.48 513.62 -27.62 Q 515.92 -26.76 517.2 -25.1 Q 518.48 -23.44 518.48 -21.08 L 518.48 -21.08 Q 518.48 -19.16 517.8 -17.84 Q 517.12 -16.52 516.12 -15.54 Q 515.12 -14.56 514.12 -13.72 Q 513.12 -12.88 512.44 -11.94 Q 511.76 -11 511.76 -9.72 L 511.76 -9.72 M 508.76 0.32 L 508.76 0.32 Q 507.08 0.32 506 -0.76 Q 504.92 -1.84 504.92 -3.32 L 504.92 -3.32 Q 504.92 -4.84 506 -5.86 Q 507.08 -6.88 508.76 -6.88 L 508.76 -6.88 Q 510.44 -6.88 511.52 -5.86 Q 512.6 -4.84 512.6 -3.32 L 512.6 -3.32 Q 512.6 -1.84 511.52 -0.76 Q 510.44 0.32 508.76 0.32" fill="#FFFFFF"/></g>
  <g transform="translate(80,134)"><path d="M 3.706 0 L 1.598 0 L 1.598 -11.9 L 3.417 -11.9 L 8.143 -4.029 L 12.784 -11.9 L 14.603 -11.9 L 14.62 0 L 12.529 0 L 12.512 -7.871 L 8.602 -1.36 L 7.616 -1.36 L 3.706 -7.786 L 3.706 0 M 21.879 0.119 L 21.879 0.119 Q 20.485 0.119 19.397 -0.485 Q 18.309 -1.088 17.68 -2.134 Q 17.051 -3.179 17.051 -4.539 L 17.051 -4.539 Q 17.051 -5.899 17.68 -6.945 Q 18.309 -7.99 19.397 -8.585 Q 20.485 -9.18 21.879 -9.18 L 21.879 -9.18 Q 23.29 -9.18 24.387 -8.585 Q 25.483 -7.99 26.104 -6.945 Q 26.724 -5.899 26.724 -4.539 L 26.724 -4.539 Q 26.724 -3.179 26.104 -2.134 Q 25.483 -1.088 24.387 -0.485 Q 23.29 0.119 21.879 0.119 M 21.879 -1.7 L 21.879 -1.7 Q 23.052 -1.7 23.817 -2.465 Q 24.582 -3.23 24.582 -4.539 L 24.582 -4.539 Q 24.582 -5.848 23.817 -6.613 Q 23.052 -7.378 21.879 -7.378 L 21.879 -7.378 Q 21.114 -7.378 20.511 -7.03 Q 19.907 -6.681 19.55 -6.044 Q 19.193 -5.406 19.193 -4.539 L 19.193 -4.539 Q 19.193 -3.672 19.55 -3.035 Q 19.907 -2.397 20.511 -2.049 Q 21.114 -1.7 21.879 -1.7 M 31.059 0 L 28.934 0 L 28.934 -9.078 L 30.957 -9.078 L 30.957 -7.905 Q 31.484 -8.534 32.291 -8.857 Q 33.099 -9.18 34.085 -9.18 L 34.085 -9.18 Q 35.173 -9.18 36.032 -8.755 Q 36.89 -8.33 37.383 -7.446 Q 37.876 -6.562 37.876 -5.202 L 37.876 -5.202 L 37.876 0 L 35.751 0 L 35.751 -4.93 Q 35.751 -6.137 35.181 -6.732 Q 34.612 -7.327 33.592 -7.327 L 33.592 -7.327 Q 32.453 -7.327 31.756 -6.639 Q 31.059 -5.95 31.059 -4.59 L 31.059 -4.59 L 31.059 0 M 44.166 0.119 L 44.166 0.119 Q 42.67 0.119 41.854 -0.655 Q 41.038 -1.428 41.038 -2.941 L 41.038 -2.941 L 41.038 -7.378 L 39.542 -7.378 L 39.542 -9.078 L 41.038 -9.078 L 41.038 -11.084 L 43.163 -11.084 L 43.163 -9.078 L 45.594 -9.078 L 45.594 -7.378 L 43.163 -7.378 L 43.163 -2.992 Q 43.163 -2.329 43.486 -1.981 Q 43.809 -1.632 44.421 -1.632 L 44.421 -1.632 Q 45.118 -1.632 45.611 -2.006 L 45.611 -2.006 L 46.206 -0.493 Q 45.815 -0.187 45.28 -0.034 Q 44.744 0.119 44.166 0.119 M 50.932 0.119 L 50.932 0.119 Q 49.793 0.119 48.748 -0.17 Q 47.702 -0.459 47.09 -0.901 L 47.09 -0.901 L 47.906 -2.516 Q 48.501 -2.108 49.36 -1.862 Q 50.218 -1.615 51.068 -1.615 L 51.068 -1.615 Q 52.088 -1.615 52.53 -1.887 Q 52.972 -2.159 52.972 -2.618 L 52.972 -2.618 Q 52.972 -3.06 52.564 -3.256 Q 52.156 -3.451 51.519 -3.553 Q 50.881 -3.655 50.167 -3.774 Q 49.453 -3.893 48.816 -4.148 Q 48.178 -4.403 47.77 -4.921 Q 47.362 -5.44 47.362 -6.341 L 47.362 -6.341 Q 47.362 -7.633 48.442 -8.407 Q 49.521 -9.18 51.357 -9.18 L 51.357 -9.18 Q 52.258 -9.18 53.202 -8.976 Q 54.145 -8.772 54.757 -8.398 L 54.757 -8.398 L 53.941 -6.783 Q 53.295 -7.157 52.641 -7.31 Q 51.986 -7.463 51.34 -7.463 L 51.34 -7.463 Q 50.371 -7.463 49.904 -7.174 Q 49.436 -6.885 49.436 -6.443 L 49.436 -6.443 Q 49.436 -5.984 49.844 -5.763 Q 50.252 -5.542 50.89 -5.44 Q 51.527 -5.338 52.241 -5.211 Q 52.955 -5.083 53.593 -4.828 Q 54.23 -4.573 54.638 -4.072 Q 55.046 -3.57 55.046 -2.686 L 55.046 -2.686 Q 55.046 -1.411 53.941 -0.646 Q 52.836 0.119 50.932 0.119 M 61.319 0.119 L 61.319 0.119 Q 59.806 0.119 58.675 -0.485 Q 57.545 -1.088 56.925 -2.134 Q 56.304 -3.179 56.304 -4.539 L 56.304 -4.539 Q 56.304 -5.899 56.907 -6.945 Q 57.511 -7.99 58.574 -8.585 Q 59.636 -9.18 60.996 -9.18 L 60.996 -9.18 Q 62.322 -9.18 63.359 -8.602 Q 64.396 -8.024 64.991 -6.962 Q 65.586 -5.899 65.586 -4.488 L 65.586 -4.488 Q 65.586 -4.352 65.578 -4.182 Q 65.569 -4.012 65.552 -3.859 L 65.552 -3.859 L 58.429 -3.859 Q 58.616 -2.873 59.398 -2.278 Q 60.18 -1.683 61.37 -1.683 L 61.37 -1.683 Q 62.883 -1.683 63.835 -2.669 L 63.835 -2.669 L 64.974 -1.36 Q 63.716 0.119 61.319 0.119 M 58.412 -5.27 L 58.412 -5.27 L 63.563 -5.27 Q 63.427 -6.256 62.73 -6.868 Q 62.033 -7.48 60.996 -7.48 L 60.996 -7.48 Q 59.959 -7.48 59.262 -6.877 Q 58.565 -6.273 58.412 -5.27 M 69.921 0 L 67.796 0 L 67.796 -9.078 L 69.819 -9.078 L 69.819 -7.752 Q 70.754 -9.18 73.049 -9.18 L 73.049 -9.18 L 73.049 -7.157 Q 72.913 -7.174 72.794 -7.191 Q 72.675 -7.208 72.556 -7.208 L 72.556 -7.208 Q 71.349 -7.208 70.635 -6.503 Q 69.921 -5.797 69.921 -4.403 L 69.921 -4.403 L 69.921 0 M 77.231 0 L 75.106 0 L 75.106 -9.078 L 77.129 -9.078 L 77.129 -7.752 Q 78.064 -9.18 80.359 -9.18 L 80.359 -9.18 L 80.359 -7.157 Q 80.223 -7.174 80.104 -7.191 Q 79.985 -7.208 79.866 -7.208 L 79.866 -7.208 Q 78.659 -7.208 77.945 -6.503 Q 77.231 -5.797 77.231 -4.403 L 77.231 -4.403 L 77.231 0 M 90.015 0 L 88.009 0 L 88.009 -1.088 Q 87.193 0.119 85.153 0.119 L 85.153 0.119 Q 83.589 0.119 82.68 -0.646 Q 81.77 -1.411 81.77 -2.601 L 81.77 -2.601 Q 81.77 -3.366 82.136 -3.978 Q 82.501 -4.59 83.334 -4.947 Q 84.167 -5.304 85.544 -5.304 L 85.544 -5.304 L 87.89 -5.304 L 87.89 -5.44 Q 87.89 -6.375 87.329 -6.894 Q 86.768 -7.412 85.629 -7.412 L 85.629 -7.412 Q 84.864 -7.412 84.125 -7.174 Q 83.385 -6.936 82.875 -6.511 L 82.875 -6.511 L 82.042 -8.058 Q 82.773 -8.619 83.785 -8.9 Q 84.796 -9.18 85.884 -9.18 L 85.884 -9.18 Q 87.856 -9.18 88.936 -8.237 Q 90.015 -7.293 90.015 -5.321 L 90.015 -5.321 L 90.015 0 M 87.89 -2.839 L 87.89 -2.839 L 87.89 -3.893 L 85.697 -3.893 Q 84.609 -3.893 84.235 -3.536 Q 83.861 -3.179 83.861 -2.686 L 83.861 -2.686 Q 83.861 -2.108 84.32 -1.768 Q 84.779 -1.428 85.595 -1.428 L 85.595 -1.428 Q 86.377 -1.428 86.998 -1.785 Q 87.618 -2.142 87.89 -2.839 M 96.322 0.119 L 96.322 0.119 Q 94.826 0.119 94.01 -0.655 Q 93.194 -1.428 93.194 -2.941 L 93.194 -2.941 L 93.194 -7.378 L 91.698 -7.378 L 91.698 -9.078 L 93.194 -9.078 L 93.194 -11.084 L 95.319 -11.084 L 95.319 -9.078 L 97.75 -9.078 L 97.75 -7.378 L 95.319 -7.378 L 95.319 -2.992 Q 95.319 -2.329 95.642 -1.981 Q 95.965 -1.632 96.577 -1.632 L 96.577 -1.632 Q 97.274 -1.632 97.767 -2.006 L 97.767 -2.006 L 98.362 -0.493 Q 97.971 -0.187 97.436 -0.034 Q 96.9 0.119 96.322 0.119 M 106.165 -3.315 L 106.165 -3.315 Q 105.57 -3.315 105.171 -3.706 Q 104.771 -4.097 104.771 -4.743 L 104.771 -4.743 Q 104.771 -5.372 105.171 -5.763 Q 105.57 -6.154 106.165 -6.154 L 106.165 -6.154 Q 106.76 -6.154 107.16 -5.763 Q 107.559 -5.372 107.559 -4.743 L 107.559 -4.743 Q 107.559 -4.097 107.16 -3.706 Q 106.76 -3.315 106.165 -3.315 M 120.037 0.119 L 120.037 0.119 Q 119.17 0.119 118.422 -0.187 Q 117.674 -0.493 117.13 -1.105 L 117.13 -1.105 L 117.13 3.298 L 115.005 3.298 L 115.005 -9.078 L 117.028 -9.078 L 117.028 -7.888 Q 117.572 -8.551 118.346 -8.866 Q 119.119 -9.18 120.037 -9.18 L 120.037 -9.18 Q 121.363 -9.18 122.4 -8.611 Q 123.437 -8.041 124.041 -6.996 Q 124.644 -5.95 124.644 -4.539 L 124.644 -4.539 Q 124.644 -3.128 124.041 -2.083 Q 123.437 -1.037 122.4 -0.459 Q 121.363 0.119 120.037 0.119 M 119.799 -1.7 L 119.799 -1.7 Q 120.564 -1.7 121.168 -2.049 Q 121.771 -2.397 122.128 -3.035 Q 122.485 -3.672 122.485 -4.539 L 122.485 -4.539 Q 122.485 -5.406 122.128 -6.044 Q 121.771 -6.681 121.168 -7.03 Q 120.564 -7.378 119.799 -7.378 L 119.799 -7.378 Q 119.034 -7.378 118.422 -7.03 Q 117.81 -6.681 117.453 -6.044 Q 117.096 -5.406 117.096 -4.539 L 117.096 -4.539 Q 117.096 -3.672 117.453 -3.035 Q 117.81 -2.397 118.422 -2.049 Q 119.034 -1.7 119.799 -1.7 M 128.962 0 L 126.837 0 L 126.837 -9.078 L 128.86 -9.078 L 128.86 -7.752 Q 129.795 -9.18 132.09 -9.18 L 132.09 -9.18 L 132.09 -7.157 Q 131.954 -7.174 131.835 -7.191 Q 131.716 -7.208 131.597 -7.208 L 131.597 -7.208 Q 130.39 -7.208 129.676 -6.503 Q 128.962 -5.797 128.962 -4.403 L 128.962 -4.403 L 128.962 0 M 138.414 0.119 L 138.414 0.119 Q 136.901 0.119 135.771 -0.485 Q 134.64 -1.088 134.02 -2.134 Q 133.399 -3.179 133.399 -4.539 L 133.399 -4.539 Q 133.399 -5.899 134.003 -6.945 Q 134.606 -7.99 135.669 -8.585 Q 136.731 -9.18 138.091 -9.18 L 138.091 -9.18 Q 139.417 -9.18 140.454 -8.602 Q 141.491 -8.024 142.086 -6.962 Q 142.681 -5.899 142.681 -4.488 L 142.681 -4.488 Q 142.681 -4.352 142.673 -4.182 Q 142.664 -4.012 142.647 -3.859 L 142.647 -3.859 L 135.524 -3.859 Q 135.711 -2.873 136.493 -2.278 Q 137.275 -1.683 138.465 -1.683 L 138.465 -1.683 Q 139.978 -1.683 140.93 -2.669 L 140.93 -2.669 L 142.069 -1.36 Q 140.811 0.119 138.414 0.119 M 135.507 -5.27 L 135.507 -5.27 L 140.658 -5.27 Q 140.522 -6.256 139.825 -6.868 Q 139.128 -7.48 138.091 -7.48 L 138.091 -7.48 Q 137.054 -7.48 136.357 -6.877 Q 135.66 -6.273 135.507 -5.27 M 147.016 0 L 144.891 0 L 144.891 -9.078 L 146.914 -9.078 L 146.914 -7.939 Q 147.424 -8.551 148.189 -8.866 Q 148.954 -9.18 149.889 -9.18 L 149.889 -9.18 Q 150.875 -9.18 151.674 -8.806 Q 152.473 -8.432 152.949 -7.65 L 152.949 -7.65 Q 153.493 -8.364 154.377 -8.772 Q 155.261 -9.18 156.349 -9.18 L 156.349 -9.18 Q 157.998 -9.18 159.035 -8.211 Q 160.072 -7.242 160.072 -5.202 L 160.072 -5.202 L 160.072 0 L 157.947 0 L 157.947 -4.93 Q 157.947 -6.137 157.412 -6.732 Q 156.876 -7.327 155.907 -7.327 L 155.907 -7.327 Q 154.853 -7.327 154.199 -6.647 Q 153.544 -5.967 153.544 -4.607 L 153.544 -4.607 L 153.544 0 L 151.419 0 L 151.419 -4.93 Q 151.419 -6.137 150.884 -6.732 Q 150.348 -7.327 149.379 -7.327 L 149.379 -7.327 Q 148.325 -7.327 147.671 -6.647 Q 147.016 -5.967 147.016 -4.607 L 147.016 -4.607 L 147.016 0 M 165.087 0 L 162.962 0 L 162.962 -9.078 L 165.087 -9.078 L 165.087 0 M 164.033 -10.574 L 164.033 -10.574 Q 163.438 -10.574 163.056 -10.948 Q 162.673 -11.322 162.673 -11.849 L 162.673 -11.849 Q 162.673 -12.376 163.056 -12.75 Q 163.438 -13.124 164.033 -13.124 L 164.033 -13.124 Q 164.628 -13.124 165.011 -12.776 Q 165.393 -12.427 165.393 -11.9 L 165.393 -11.9 Q 165.393 -11.339 165.011 -10.957 Q 164.628 -10.574 164.033 -10.574 M 171.887 0.119 L 171.887 0.119 Q 170.153 0.119 169.065 -0.859 Q 167.977 -1.836 167.977 -3.893 L 167.977 -3.893 L 167.977 -9.078 L 170.102 -9.078 L 170.102 -4.182 Q 170.102 -2.941 170.663 -2.346 Q 171.224 -1.751 172.227 -1.751 L 172.227 -1.751 Q 173.349 -1.751 174.029 -2.44 Q 174.709 -3.128 174.709 -4.488 L 174.709 -4.488 L 174.709 -9.078 L 176.834 -9.078 L 176.834 0 L 174.811 0 L 174.811 -1.156 Q 174.301 -0.544 173.536 -0.213 Q 172.771 0.119 171.887 0.119 M 181.917 0 L 179.792 0 L 179.792 -9.078 L 181.815 -9.078 L 181.815 -7.939 Q 182.325 -8.551 183.09 -8.866 Q 183.855 -9.18 184.79 -9.18 L 184.79 -9.18 Q 185.776 -9.18 186.575 -8.806 Q 187.374 -8.432 187.85 -7.65 L 187.85 -7.65 Q 188.394 -8.364 189.278 -8.772 Q 190.162 -9.18 191.25 -9.18 L 191.25 -9.18 Q 192.899 -9.18 193.936 -8.211 Q 194.973 -7.242 194.973 -5.202 L 194.973 -5.202 L 194.973 0 L 192.848 0 L 192.848 -4.93 Q 192.848 -6.137 192.313 -6.732 Q 191.777 -7.327 190.808 -7.327 L 190.808 -7.327 Q 189.754 -7.327 189.1 -6.647 Q 188.445 -5.967 188.445 -4.607 L 188.445 -4.607 L 188.445 0 L 186.32 0 L 186.32 -4.93 Q 186.32 -6.137 185.785 -6.732 Q 185.249 -7.327 184.28 -7.327 L 184.28 -7.327 Q 183.226 -7.327 182.572 -6.647 Q 181.917 -5.967 181.917 -4.607 L 181.917 -4.607 L 181.917 0 M 206.839 3.417 L 206.839 3.417 Q 205.564 3.417 204.374 3.086 Q 203.184 2.754 202.419 2.125 L 202.419 2.125 L 203.371 0.527 Q 203.966 1.02 204.876 1.318 Q 205.785 1.615 206.72 1.615 L 206.72 1.615 Q 208.216 1.615 208.913 0.927 Q 209.61 0.238 209.61 -1.139 L 209.61 -1.139 L 209.61 -1.615 Q 209.049 -1.003 208.267 -0.706 Q 207.485 -0.408 206.567 -0.408 L 206.567 -0.408 Q 205.275 -0.408 204.23 -0.961 Q 203.184 -1.513 202.581 -2.499 Q 201.977 -3.485 201.977 -4.811 L 201.977 -4.811 Q 201.977 -6.12 202.581 -7.106 Q 203.184 -8.092 204.23 -8.636 Q 205.275 -9.18 206.567 -9.18 L 206.567 -9.18 Q 207.519 -9.18 208.335 -8.866 Q 209.151 -8.551 209.712 -7.871 L 209.712 -7.871 L 209.712 -9.078 L 211.735 -9.078 L 211.735 -1.377 Q 211.735 1.088 210.477 2.252 Q 209.219 3.417 206.839 3.417 M 206.89 -2.21 L 206.89 -2.21 Q 208.097 -2.21 208.871 -2.933 Q 209.644 -3.655 209.644 -4.811 L 209.644 -4.811 Q 209.644 -5.967 208.871 -6.673 Q 208.097 -7.378 206.89 -7.378 L 206.89 -7.378 Q 205.666 -7.378 204.893 -6.673 Q 204.119 -5.967 204.119 -4.811 L 204.119 -4.811 Q 204.119 -3.655 204.893 -2.933 Q 205.666 -2.21 206.89 -2.21 M 218.96 0.119 L 218.96 0.119 Q 217.447 0.119 216.317 -0.485 Q 215.186 -1.088 214.566 -2.134 Q 213.945 -3.179 213.945 -4.539 L 213.945 -4.539 Q 213.945 -5.899 214.549 -6.945 Q 215.152 -7.99 216.215 -8.585 Q 217.277 -9.18 218.637 -9.18 L 218.637 -9.18 Q 219.963 -9.18 221 -8.602 Q 222.037 -8.024 222.632 -6.962 Q 223.227 -5.899 223.227 -4.488 L 223.227 -4.488 Q 223.227 -4.352 223.219 -4.182 Q 223.21 -4.012 223.193 -3.859 L 223.193 -3.859 L 216.07 -3.859 Q 216.257 -2.873 217.039 -2.278 Q 217.821 -1.683 219.011 -1.683 L 219.011 -1.683 Q 220.524 -1.683 221.476 -2.669 L 221.476 -2.669 L 222.615 -1.36 Q 221.357 0.119 218.96 0.119 M 216.053 -5.27 L 216.053 -5.27 L 221.204 -5.27 Q 221.068 -6.256 220.371 -6.868 Q 219.674 -7.48 218.637 -7.48 L 218.637 -7.48 Q 217.6 -7.48 216.903 -6.877 Q 216.206 -6.273 216.053 -5.27 M 229.517 0.119 L 229.517 0.119 Q 228.123 0.119 227.035 -0.485 Q 225.947 -1.088 225.318 -2.134 Q 224.689 -3.179 224.689 -4.539 L 224.689 -4.539 Q 224.689 -5.899 225.318 -6.945 Q 225.947 -7.99 227.035 -8.585 Q 228.123 -9.18 229.517 -9.18 L 229.517 -9.18 Q 230.928 -9.18 232.025 -8.585 Q 233.121 -7.99 233.742 -6.945 Q 234.362 -5.899 234.362 -4.539 L 234.362 -4.539 Q 234.362 -3.179 233.742 -2.134 Q 233.121 -1.088 232.025 -0.485 Q 230.928 0.119 229.517 0.119 M 229.517 -1.7 L 229.517 -1.7 Q 230.69 -1.7 231.455 -2.465 Q 232.22 -3.23 232.22 -4.539 L 232.22 -4.539 Q 232.22 -5.848 231.455 -6.613 Q 230.69 -7.378 229.517 -7.378 L 229.517 -7.378 Q 228.752 -7.378 228.149 -7.03 Q 227.545 -6.681 227.188 -6.044 Q 226.831 -5.406 226.831 -4.539 L 226.831 -4.539 Q 226.831 -3.672 227.188 -3.035 Q 227.545 -2.397 228.149 -2.049 Q 228.752 -1.7 229.517 -1.7 M 238.697 0 L 236.572 0 L 236.572 -9.078 L 238.595 -9.078 L 238.595 -7.939 Q 239.105 -8.551 239.87 -8.866 Q 240.635 -9.18 241.57 -9.18 L 241.57 -9.18 Q 242.556 -9.18 243.355 -8.806 Q 244.154 -8.432 244.63 -7.65 L 244.63 -7.65 Q 245.174 -8.364 246.058 -8.772 Q 246.942 -9.18 248.03 -9.18 L 248.03 -9.18 Q 249.679 -9.18 250.716 -8.211 Q 251.753 -7.242 251.753 -5.202 L 251.753 -5.202 L 251.753 0 L 249.628 0 L 249.628 -4.93 Q 249.628 -6.137 249.093 -6.732 Q 248.557 -7.327 247.588 -7.327 L 247.588 -7.327 Q 246.534 -7.327 245.88 -6.647 Q 245.225 -5.967 245.225 -4.607 L 245.225 -4.607 L 245.225 0 L 243.1 0 L 243.1 -4.93 Q 243.1 -6.137 242.565 -6.732 Q 242.029 -7.327 241.06 -7.327 L 241.06 -7.327 Q 240.006 -7.327 239.351 -6.647 Q 238.697 -5.967 238.697 -4.607 L 238.697 -4.607 L 238.697 0 M 258.91 0.119 L 258.91 0.119 Q 257.397 0.119 256.267 -0.485 Q 255.136 -1.088 254.516 -2.134 Q 253.895 -3.179 253.895 -4.539 L 253.895 -4.539 Q 253.895 -5.899 254.499 -6.945 Q 255.102 -7.99 256.164 -8.585 Q 257.227 -9.18 258.587 -9.18 L 258.587 -9.18 Q 259.913 -9.18 260.95 -8.602 Q 261.987 -8.024 262.582 -6.962 Q 263.177 -5.899 263.177 -4.488 L 263.177 -4.488 Q 263.177 -4.352 263.168 -4.182 Q 263.16 -4.012 263.143 -3.859 L 263.143 -3.859 L 256.02 -3.859 Q 256.207 -2.873 256.989 -2.278 Q 257.771 -1.683 258.961 -1.683 L 258.961 -1.683 Q 260.474 -1.683 261.426 -2.669 L 261.426 -2.669 L 262.565 -1.36 Q 261.307 0.119 258.91 0.119 M 256.003 -5.27 L 256.003 -5.27 L 261.154 -5.27 Q 261.018 -6.256 260.321 -6.868 Q 259.624 -7.48 258.587 -7.48 L 258.587 -7.48 Q 257.55 -7.48 256.853 -6.877 Q 256.156 -6.273 256.003 -5.27 M 258.944 -10.319 L 257.108 -10.319 L 259.403 -12.648 L 261.902 -12.648 L 258.944 -10.319 M 268.804 0.119 L 268.804 0.119 Q 267.308 0.119 266.492 -0.655 Q 265.676 -1.428 265.676 -2.941 L 265.676 -2.941 L 265.676 -7.378 L 264.18 -7.378 L 264.18 -9.078 L 265.676 -9.078 L 265.676 -11.084 L 267.801 -11.084 L 267.801 -9.078 L 270.232 -9.078 L 270.232 -7.378 L 267.801 -7.378 L 267.801 -2.992 Q 267.801 -2.329 268.124 -1.981 Q 268.447 -1.632 269.059 -1.632 L 269.059 -1.632 Q 269.756 -1.632 270.249 -2.006 L 270.249 -2.006 L 270.844 -0.493 Q 270.453 -0.187 269.918 -0.034 Q 269.382 0.119 268.804 0.119 M 274.89 0 L 272.765 0 L 272.765 -9.078 L 274.788 -9.078 L 274.788 -7.752 Q 275.723 -9.18 278.018 -9.18 L 278.018 -9.18 L 278.018 -7.157 Q 277.882 -7.174 277.763 -7.191 Q 277.644 -7.208 277.525 -7.208 L 277.525 -7.208 Q 276.318 -7.208 275.604 -6.503 Q 274.89 -5.797 274.89 -4.403 L 274.89 -4.403 L 274.89 0 M 282.2 0 L 280.075 0 L 280.075 -9.078 L 282.2 -9.078 L 282.2 0 M 281.146 -10.574 L 281.146 -10.574 Q 280.551 -10.574 280.168 -10.948 Q 279.786 -11.322 279.786 -11.849 L 279.786 -11.849 Q 279.786 -12.376 280.168 -12.75 Q 280.551 -13.124 281.146 -13.124 L 281.146 -13.124 Q 281.741 -13.124 282.123 -12.776 Q 282.506 -12.427 282.506 -11.9 L 282.506 -11.9 Q 282.506 -11.339 282.123 -10.957 Q 281.741 -10.574 281.146 -10.574 M 289.323 0.119 L 289.323 0.119 Q 287.895 0.119 286.781 -0.485 Q 285.668 -1.088 285.039 -2.134 Q 284.41 -3.179 284.41 -4.539 L 284.41 -4.539 Q 284.41 -5.899 285.039 -6.945 Q 285.668 -7.99 286.781 -8.585 Q 287.895 -9.18 289.323 -9.18 L 289.323 -9.18 Q 290.649 -9.18 291.661 -8.645 Q 292.672 -8.109 293.199 -7.072 L 293.199 -7.072 L 291.567 -6.12 Q 291.159 -6.766 290.572 -7.072 Q 289.986 -7.378 289.306 -7.378 L 289.306 -7.378 Q 288.133 -7.378 287.343 -6.613 Q 286.552 -5.848 286.552 -4.539 L 286.552 -4.539 Q 286.552 -3.213 287.343 -2.457 Q 288.133 -1.7 289.306 -1.7 L 289.306 -1.7 Q 289.986 -1.7 290.572 -2.006 Q 291.159 -2.312 291.567 -2.958 L 291.567 -2.958 L 293.199 -2.006 Q 292.672 -0.986 291.661 -0.434 Q 290.649 0.119 289.323 0.119 M 302.804 0 L 300.798 0 L 300.798 -1.088 Q 299.982 0.119 297.942 0.119 L 297.942 0.119 Q 296.378 0.119 295.469 -0.646 Q 294.559 -1.411 294.559 -2.601 L 294.559 -2.601 Q 294.559 -3.366 294.925 -3.978 Q 295.29 -4.59 296.123 -4.947 Q 296.956 -5.304 298.333 -5.304 L 298.333 -5.304 L 300.679 -5.304 L 300.679 -5.44 Q 300.679 -6.375 300.118 -6.894 Q 299.557 -7.412 298.418 -7.412 L 298.418 -7.412 Q 297.653 -7.412 296.914 -7.174 Q 296.174 -6.936 295.664 -6.511 L 295.664 -6.511 L 294.831 -8.058 Q 295.562 -8.619 296.574 -8.9 Q 297.585 -9.18 298.673 -9.18 L 298.673 -9.18 Q 300.645 -9.18 301.725 -8.237 Q 302.804 -7.293 302.804 -5.321 L 302.804 -5.321 L 302.804 0 M 300.679 -2.839 L 300.679 -2.839 L 300.679 -3.893 L 298.486 -3.893 Q 297.398 -3.893 297.024 -3.536 Q 296.65 -3.179 296.65 -2.686 L 296.65 -2.686 Q 296.65 -2.108 297.109 -1.768 Q 297.568 -1.428 298.384 -1.428 L 298.384 -1.428 Q 299.166 -1.428 299.787 -1.785 Q 300.407 -2.142 300.679 -2.839 M 314.687 3.298 L 312.664 3.298 Q 311.661 1.751 311.126 -0.281 Q 310.59 -2.312 310.59 -4.658 L 310.59 -4.658 Q 310.59 -7.004 311.126 -9.053 Q 311.661 -11.101 312.664 -12.614 L 312.664 -12.614 L 314.687 -12.614 Q 313.633 -10.744 313.157 -8.798 Q 312.681 -6.851 312.681 -4.658 L 312.681 -4.658 Q 312.681 -2.465 313.157 -0.519 Q 313.633 1.428 314.687 3.298 L 314.687 3.298 M 318.75 0 L 316.625 0 L 316.625 -9.078 L 318.648 -9.078 L 318.648 -7.752 Q 319.583 -9.18 321.878 -9.18 L 321.878 -9.18 L 321.878 -7.157 Q 321.742 -7.174 321.623 -7.191 Q 321.504 -7.208 321.385 -7.208 L 321.385 -7.208 Q 320.178 -7.208 319.464 -6.503 Q 318.75 -5.797 318.75 -4.403 L 318.75 -4.403 L 318.75 0 M 328.202 0.119 L 328.202 0.119 Q 326.689 0.119 325.559 -0.485 Q 324.428 -1.088 323.808 -2.134 Q 323.187 -3.179 323.187 -4.539 L 323.187 -4.539 Q 323.187 -5.899 323.791 -6.945 Q 324.394 -7.99 325.457 -8.585 Q 326.519 -9.18 327.879 -9.18 L 327.879 -9.18 Q 329.205 -9.18 330.242 -8.602 Q 331.279 -8.024 331.874 -6.962 Q 332.469 -5.899 332.469 -4.488 L 332.469 -4.488 Q 332.469 -4.352 332.461 -4.182 Q 332.452 -4.012 332.435 -3.859 L 332.435 -3.859 L 325.312 -3.859 Q 325.499 -2.873 326.281 -2.278 Q 327.063 -1.683 328.253 -1.683 L 328.253 -1.683 Q 329.766 -1.683 330.718 -2.669 L 330.718 -2.669 L 331.857 -1.36 Q 330.599 0.119 328.202 0.119 M 325.295 -5.27 L 325.295 -5.27 L 330.446 -5.27 Q 330.31 -6.256 329.613 -6.868 Q 328.916 -7.48 327.879 -7.48 L 327.879 -7.48 Q 326.842 -7.48 326.145 -6.877 Q 325.448 -6.273 325.295 -5.27 M 338.844 0.119 L 338.844 0.119 Q 337.416 0.119 336.303 -0.485 Q 335.189 -1.088 334.56 -2.134 Q 333.931 -3.179 333.931 -4.539 L 333.931 -4.539 Q 333.931 -5.899 334.56 -6.945 Q 335.189 -7.99 336.303 -8.585 Q 337.416 -9.18 338.844 -9.18 L 338.844 -9.18 Q 340.17 -9.18 341.182 -8.645 Q 342.193 -8.109 342.72 -7.072 L 342.72 -7.072 L 341.088 -6.12 Q 340.68 -6.766 340.094 -7.072 Q 339.507 -7.378 338.827 -7.378 L 338.827 -7.378 Q 337.654 -7.378 336.864 -6.613 Q 336.073 -5.848 336.073 -4.539 L 336.073 -4.539 Q 336.073 -3.213 336.864 -2.457 Q 337.654 -1.7 338.827 -1.7 L 338.827 -1.7 Q 339.507 -1.7 340.094 -2.006 Q 340.68 -2.312 341.088 -2.958 L 341.088 -2.958 L 342.72 -2.006 Q 342.193 -0.986 341.182 -0.434 Q 340.17 0.119 338.844 0.119 M 348.806 0.119 L 348.806 0.119 Q 347.412 0.119 346.324 -0.485 Q 345.236 -1.088 344.607 -2.134 Q 343.978 -3.179 343.978 -4.539 L 343.978 -4.539 Q 343.978 -5.899 344.607 -6.945 Q 345.236 -7.99 346.324 -8.585 Q 347.412 -9.18 348.806 -9.18 L 348.806 -9.18 Q 350.217 -9.18 351.314 -8.585 Q 352.41 -7.99 353.031 -6.945 Q 353.651 -5.899 353.651 -4.539 L 353.651 -4.539 Q 353.651 -3.179 353.031 -2.134 Q 352.41 -1.088 351.314 -0.485 Q 350.217 0.119 348.806 0.119 M 348.806 -1.7 L 348.806 -1.7 Q 349.979 -1.7 350.744 -2.465 Q 351.509 -3.23 351.509 -4.539 L 351.509 -4.539 Q 351.509 -5.848 350.744 -6.613 Q 349.979 -7.378 348.806 -7.378 L 348.806 -7.378 Q 348.041 -7.378 347.438 -7.03 Q 346.834 -6.681 346.477 -6.044 Q 346.12 -5.406 346.12 -4.539 L 346.12 -4.539 Q 346.12 -3.672 346.477 -3.035 Q 346.834 -2.397 347.438 -2.049 Q 348.041 -1.7 348.806 -1.7 M 357.986 0 L 355.861 0 L 355.861 -9.078 L 357.884 -9.078 L 357.884 -7.939 Q 358.394 -8.551 359.159 -8.866 Q 359.924 -9.18 360.859 -9.18 L 360.859 -9.18 Q 361.845 -9.18 362.644 -8.806 Q 363.443 -8.432 363.919 -7.65 L 363.919 -7.65 Q 364.463 -8.364 365.347 -8.772 Q 366.231 -9.18 367.319 -9.18 L 367.319 -9.18 Q 368.968 -9.18 370.005 -8.211 Q 371.042 -7.242 371.042 -5.202 L 371.042 -5.202 L 371.042 0 L 368.917 0 L 368.917 -4.93 Q 368.917 -6.137 368.382 -6.732 Q 367.846 -7.327 366.877 -7.327 L 366.877 -7.327 Q 365.823 -7.327 365.169 -6.647 Q 364.514 -5.967 364.514 -4.607 L 364.514 -4.607 L 364.514 0 L 362.389 0 L 362.389 -4.93 Q 362.389 -6.137 361.854 -6.732 Q 361.318 -7.327 360.349 -7.327 L 360.349 -7.327 Q 359.295 -7.327 358.641 -6.647 Q 357.986 -5.967 357.986 -4.607 L 357.986 -4.607 L 357.986 0 M 378.199 0.119 L 378.199 0.119 Q 376.686 0.119 375.556 -0.485 Q 374.425 -1.088 373.805 -2.134 Q 373.184 -3.179 373.184 -4.539 L 373.184 -4.539 Q 373.184 -5.899 373.788 -6.945 Q 374.391 -7.99 375.454 -8.585 Q 376.516 -9.18 377.876 -9.18 L 377.876 -9.18 Q 379.202 -9.18 380.239 -8.602 Q 381.276 -8.024 381.871 -6.962 Q 382.466 -5.899 382.466 -4.488 L 382.466 -4.488 Q 382.466 -4.352 382.458 -4.182 Q 382.449 -4.012 382.432 -3.859 L 382.432 -3.859 L 375.309 -3.859 Q 375.496 -2.873 376.278 -2.278 Q 377.06 -1.683 378.25 -1.683 L 378.25 -1.683 Q 379.763 -1.683 380.715 -2.669 L 380.715 -2.669 L 381.854 -1.36 Q 380.596 0.119 378.199 0.119 M 375.292 -5.27 L 375.292 -5.27 L 380.443 -5.27 Q 380.307 -6.256 379.61 -6.868 Q 378.913 -7.48 377.876 -7.48 L 377.876 -7.48 Q 376.839 -7.48 376.142 -6.877 Q 375.445 -6.273 375.292 -5.27 M 386.801 0 L 384.676 0 L 384.676 -9.078 L 386.699 -9.078 L 386.699 -7.905 Q 387.226 -8.534 388.034 -8.857 Q 388.841 -9.18 389.827 -9.18 L 389.827 -9.18 Q 390.915 -9.18 391.774 -8.755 Q 392.632 -8.33 393.125 -7.446 Q 393.618 -6.562 393.618 -5.202 L 393.618 -5.202 L 393.618 0 L 391.493 0 L 391.493 -4.93 Q 391.493 -6.137 390.924 -6.732 Q 390.354 -7.327 389.334 -7.327 L 389.334 -7.327 Q 388.195 -7.327 387.498 -6.639 Q 386.801 -5.95 386.801 -4.59 L 386.801 -4.59 L 386.801 0 M 400.333 0.119 L 400.333 0.119 Q 399.024 0.119 397.987 -0.459 Q 396.95 -1.037 396.347 -2.083 Q 395.743 -3.128 395.743 -4.539 L 395.743 -4.539 Q 395.743 -5.95 396.347 -6.996 Q 396.95 -8.041 397.987 -8.611 Q 399.024 -9.18 400.333 -9.18 L 400.333 -9.18 Q 401.217 -9.18 401.965 -8.883 Q 402.713 -8.585 403.257 -7.973 L 403.257 -7.973 L 403.257 -12.614 L 405.382 -12.614 L 405.382 0 L 403.342 0 L 403.342 -1.19 Q 402.815 -0.527 402.042 -0.204 Q 401.268 0.119 400.333 0.119 M 400.588 -1.7 L 400.588 -1.7 Q 401.353 -1.7 401.965 -2.049 Q 402.577 -2.397 402.934 -3.035 Q 403.291 -3.672 403.291 -4.539 L 403.291 -4.539 Q 403.291 -5.406 402.934 -6.044 Q 402.577 -6.681 401.965 -7.03 Q 401.353 -7.378 400.588 -7.378 L 400.588 -7.378 Q 399.823 -7.378 399.211 -7.03 Q 398.599 -6.681 398.242 -6.044 Q 397.885 -5.406 397.885 -4.539 L 397.885 -4.539 Q 397.885 -3.672 398.242 -3.035 Q 398.599 -2.397 399.211 -2.049 Q 399.823 -1.7 400.588 -1.7 M 415.939 0 L 413.933 0 L 413.933 -1.088 Q 413.117 0.119 411.077 0.119 L 411.077 0.119 Q 409.513 0.119 408.604 -0.646 Q 407.694 -1.411 407.694 -2.601 L 407.694 -2.601 Q 407.694 -3.366 408.06 -3.978 Q 408.425 -4.59 409.258 -4.947 Q 410.091 -5.304 411.468 -5.304 L 411.468 -5.304 L 413.814 -5.304 L 413.814 -5.44 Q 413.814 -6.375 413.253 -6.894 Q 412.692 -7.412 411.553 -7.412 L 411.553 -7.412 Q 410.788 -7.412 410.049 -7.174 Q 409.309 -6.936 408.799 -6.511 L 408.799 -6.511 L 407.966 -8.058 Q 408.697 -8.619 409.709 -8.9 Q 410.72 -9.18 411.808 -9.18 L 411.808 -9.18 Q 413.78 -9.18 414.86 -8.237 Q 415.939 -7.293 415.939 -5.321 L 415.939 -5.321 L 415.939 0 M 413.814 -2.839 L 413.814 -2.839 L 413.814 -3.893 L 411.621 -3.893 Q 410.533 -3.893 410.159 -3.536 Q 409.785 -3.179 409.785 -2.686 L 409.785 -2.686 Q 409.785 -2.108 410.244 -1.768 Q 410.703 -1.428 411.519 -1.428 L 411.519 -1.428 Q 412.301 -1.428 412.922 -1.785 Q 413.542 -2.142 413.814 -2.839 M 422.671 0.119 L 422.671 0.119 Q 421.362 0.119 420.325 -0.459 Q 419.288 -1.037 418.685 -2.083 Q 418.081 -3.128 418.081 -4.539 L 418.081 -4.539 Q 418.081 -5.95 418.685 -6.996 Q 419.288 -8.041 420.325 -8.611 Q 421.362 -9.18 422.671 -9.18 L 422.671 -9.18 Q 423.555 -9.18 424.303 -8.883 Q 425.051 -8.585 425.595 -7.973 L 425.595 -7.973 L 425.595 -12.614 L 427.72 -12.614 L 427.72 0 L 425.68 0 L 425.68 -1.19 Q 425.153 -0.527 424.38 -0.204 Q 423.606 0.119 422.671 0.119 M 422.926 -1.7 L 422.926 -1.7 Q 423.691 -1.7 424.303 -2.049 Q 424.915 -2.397 425.272 -3.035 Q 425.629 -3.672 425.629 -4.539 L 425.629 -4.539 Q 425.629 -5.406 425.272 -6.044 Q 424.915 -6.681 424.303 -7.03 Q 423.691 -7.378 422.926 -7.378 L 422.926 -7.378 Q 422.161 -7.378 421.549 -7.03 Q 420.937 -6.681 420.58 -6.044 Q 420.223 -5.406 420.223 -4.539 L 420.223 -4.539 Q 420.223 -3.672 420.58 -3.035 Q 420.937 -2.397 421.549 -2.049 Q 422.161 -1.7 422.926 -1.7 M 438.277 0 L 436.271 0 L 436.271 -1.088 Q 435.455 0.119 433.415 0.119 L 433.415 0.119 Q 431.851 0.119 430.942 -0.646 Q 430.032 -1.411 430.032 -2.601 L 430.032 -2.601 Q 430.032 -3.366 430.398 -3.978 Q 430.763 -4.59 431.596 -4.947 Q 432.429 -5.304 433.806 -5.304 L 433.806 -5.304 L 436.152 -5.304 L 436.152 -5.44 Q 436.152 -6.375 435.591 -6.894 Q 435.03 -7.412 433.891 -7.412 L 433.891 -7.412 Q 433.126 -7.412 432.387 -7.174 Q 431.647 -6.936 431.137 -6.511 L 431.137 -6.511 L 430.304 -8.058 Q 431.035 -8.619 432.047 -8.9 Q 433.058 -9.18 434.146 -9.18 L 434.146 -9.18 Q 436.118 -9.18 437.198 -8.237 Q 438.277 -7.293 438.277 -5.321 L 438.277 -5.321 L 438.277 0 M 436.152 -2.839 L 436.152 -2.839 L 436.152 -3.893 L 433.959 -3.893 Q 432.871 -3.893 432.497 -3.536 Q 432.123 -3.179 432.123 -2.686 L 432.123 -2.686 Q 432.123 -2.108 432.582 -1.768 Q 433.041 -1.428 433.857 -1.428 L 433.857 -1.428 Q 434.639 -1.428 435.26 -1.785 Q 435.88 -2.142 436.152 -2.839 M 442.17 3.298 L 440.147 3.298 Q 441.201 1.428 441.686 -0.519 Q 442.17 -2.465 442.17 -4.658 L 442.17 -4.658 Q 442.17 -6.851 441.686 -8.798 Q 441.201 -10.744 440.147 -12.614 L 440.147 -12.614 L 442.17 -12.614 Q 443.173 -11.101 443.709 -9.053 Q 444.244 -7.004 444.244 -4.658 L 444.244 -4.658 Q 444.244 -2.312 443.709 -0.281 Q 443.173 1.751 442.17 3.298 L 442.17 3.298" fill="#9AA1AD"/></g><g transform="translate(80,160)"><g transform="scale(0.5)"><path d="M 247.00,134.41 Q 256.00,150.00 247.00,165.59 L 212.00,226.21 Q 203.00,241.80 185.00,241.80 L 115.00,241.80 Q 97.00,241.80 88.00,226.21 L 53.00,165.59 Q 44.00,150.00 53.00,134.41 L 88.00,73.79 Q 97.00,58.20 115.00,58.20 L 185.00,58.20 Q 203.00,58.20 212.00,73.79 Z" fill="none" stroke="#F2A623" stroke-width="12.3" stroke-linejoin="round"/><path d="M 118,198 L 118,117 L 150,170.46 L 182,117 L 182,198" fill="none" stroke="#F2A623" stroke-width="28" stroke-linecap="round" stroke-linejoin="round"/></g><g transform="translate(165,117.22739868852923)"><path d="M 30.524 0 L 8.445 0 L 8.445 -84.455 L 28.111 -84.455 L 57.791 -35.592 L 86.747 -84.455 L 106.413 -84.455 L 106.654 0 L 84.696 0 L 84.455 -44.761 L 62.738 -8.325 L 52.121 -8.325 L 30.524 -43.555 L 30.524 0 M 155.276 1.086 L 155.276 1.086 Q 143.694 1.086 135.067 -3.318 Q 126.441 -7.722 121.675 -15.383 Q 116.91 -23.044 116.91 -32.817 L 116.91 -32.817 Q 116.91 -42.589 121.615 -50.19 Q 126.32 -57.791 134.464 -62.135 Q 142.608 -66.478 152.863 -66.478 L 152.863 -66.478 Q 162.515 -66.478 170.478 -62.497 Q 178.441 -58.515 183.146 -50.975 Q 187.852 -43.434 187.852 -32.575 L 187.852 -32.575 Q 187.852 -31.369 187.731 -29.8 Q 187.61 -28.232 187.49 -26.905 L 187.49 -26.905 L 139.954 -26.905 Q 141.401 -21.958 145.564 -19.183 Q 149.726 -16.408 156 -16.408 L 156 -16.408 Q 160.826 -16.408 164.265 -17.796 Q 167.703 -19.183 171.081 -22.079 L 171.081 -22.079 L 183.146 -9.531 Q 173.615 1.086 155.276 1.086 M 139.592 -38.97 L 139.592 -38.97 L 166.376 -38.97 Q 165.411 -44.158 161.852 -47.174 Q 158.292 -50.19 152.984 -50.19 L 152.984 -50.19 Q 147.675 -50.19 144.116 -47.174 Q 140.557 -44.158 139.592 -38.97 M 219.944 0 L 197.021 0 L 197.021 -65.392 L 218.859 -65.392 L 218.859 -58.274 Q 222.719 -62.376 228.088 -64.427 Q 233.457 -66.478 239.61 -66.478 L 239.61 -66.478 Q 247.211 -66.478 253.364 -63.401 Q 259.518 -60.325 263.077 -53.93 Q 266.636 -47.536 266.636 -37.401 L 266.636 -37.401 L 266.636 0 L 243.712 0 L 243.712 -33.661 Q 243.712 -40.659 240.817 -43.856 Q 237.921 -47.053 232.975 -47.053 L 232.975 -47.053 Q 227.425 -47.053 223.685 -43.374 Q 219.944 -39.694 219.944 -31.61 L 219.944 -31.61 L 219.944 0" fill="#FFFFFF"/><path d="M 308.743 1.086 L 308.743 1.086 Q 296.195 1.086 289.197 -5.128 Q 282.2 -11.341 282.2 -23.889 L 282.2 -23.889 L 282.2 -48.381 L 272.668 -48.381 L 272.668 -65.392 L 282.2 -65.392 L 282.2 -79.991 L 305.123 -79.991 L 305.123 -65.392 L 320.084 -65.392 L 320.084 -48.381 L 305.123 -48.381 L 305.123 -24.13 Q 305.123 -20.51 306.993 -18.58 Q 308.863 -16.65 312 -16.65 L 312 -16.65 Q 315.982 -16.65 318.998 -18.701 L 318.998 -18.701 L 324.668 -2.654 Q 321.652 -0.724 317.429 0.181 Q 313.207 1.086 308.743 1.086 M 364.845 1.086 L 364.845 1.086 Q 354.107 1.086 345.782 -3.258 Q 337.457 -7.601 332.692 -15.262 Q 327.926 -22.923 327.926 -32.817 L 327.926 -32.817 Q 327.926 -42.589 332.692 -50.251 Q 337.457 -57.912 345.782 -62.195 Q 354.107 -66.478 364.845 -66.478 L 364.845 -66.478 Q 375.583 -66.478 383.968 -62.195 Q 392.353 -57.912 397.058 -50.251 Q 401.764 -42.589 401.764 -32.817 L 401.764 -32.817 Q 401.764 -22.923 397.058 -15.262 Q 392.353 -7.601 383.968 -3.258 Q 375.583 1.086 364.845 1.086 M 364.845 -17.132 L 364.845 -17.132 Q 370.757 -17.132 374.678 -21.234 Q 378.599 -25.336 378.599 -32.817 L 378.599 -32.817 Q 378.599 -40.176 374.678 -44.218 Q 370.757 -48.26 364.845 -48.26 L 364.845 -48.26 Q 359.054 -48.26 355.072 -44.218 Q 351.091 -40.176 351.091 -32.817 L 351.091 -32.817 Q 351.091 -25.336 355.072 -21.234 Q 359.054 -17.132 364.845 -17.132 M 433.856 0 L 410.933 0 L 410.933 -65.392 L 432.771 -65.392 L 432.771 -57.55 Q 439.889 -66.478 454.729 -66.478 L 454.729 -66.478 L 454.729 -45.847 Q 451.833 -46.209 449.541 -46.209 L 449.541 -46.209 Q 442.543 -46.209 438.2 -42.408 Q 433.856 -38.608 433.856 -30.042 L 433.856 -30.042 L 433.856 0" fill="#F2A623"/><path d="M 490.924 1.086 L 490.924 1.086 Q 481.996 1.086 474.757 -3.016 Q 467.518 -7.118 463.174 -14.719 Q 458.831 -22.32 458.831 -32.696 L 458.831 -32.696 Q 458.831 -43.072 463.174 -50.673 Q 467.518 -58.274 474.757 -62.376 Q 481.996 -66.478 490.924 -66.478 L 490.924 -66.478 Q 503.713 -66.478 510.228 -58.877 L 510.228 -58.877 L 510.228 -65.392 L 532.065 -65.392 L 532.065 23.406 L 509.142 23.406 L 509.142 -5.671 Q 502.506 1.086 490.924 1.086 M 495.75 -17.132 L 495.75 -17.132 Q 501.541 -17.132 505.522 -21.174 Q 509.504 -25.216 509.504 -32.696 L 509.504 -32.696 Q 509.504 -40.056 505.522 -44.158 Q 501.541 -48.26 495.75 -48.26 L 495.75 -48.26 Q 489.958 -48.26 485.977 -44.158 Q 481.996 -40.056 481.996 -32.696 L 481.996 -32.696 Q 481.996 -25.216 485.977 -21.174 Q 489.958 -17.132 495.75 -17.132 M 572.845 1.086 L 572.845 1.086 Q 564.761 1.086 558.488 -2.111 Q 552.214 -5.309 548.655 -11.884 Q 545.095 -18.459 545.095 -28.835 L 545.095 -28.835 L 545.095 -65.392 L 568.019 -65.392 L 568.019 -32.575 Q 568.019 -24.974 570.914 -21.717 Q 573.81 -18.459 578.877 -18.459 L 578.877 -18.459 Q 583.945 -18.459 587.564 -22.079 Q 591.184 -25.698 591.184 -33.903 L 591.184 -33.903 L 591.184 -65.392 L 614.107 -65.392 L 614.107 0 L 592.269 0 L 592.269 -6.998 Q 588.529 -2.896 583.462 -0.905 Q 578.395 1.086 572.845 1.086 M 661.643 1.086 L 661.643 1.086 Q 650.061 1.086 641.434 -3.318 Q 632.808 -7.722 628.042 -15.383 Q 623.276 -23.044 623.276 -32.817 L 623.276 -32.817 Q 623.276 -42.589 627.982 -50.19 Q 632.687 -57.791 640.831 -62.135 Q 648.975 -66.478 659.23 -66.478 L 659.23 -66.478 Q 668.882 -66.478 676.845 -62.497 Q 684.808 -58.515 689.513 -50.975 Q 694.218 -43.434 694.218 -32.575 L 694.218 -32.575 Q 694.218 -31.369 694.098 -29.8 Q 693.977 -28.232 693.856 -26.905 L 693.856 -26.905 L 646.32 -26.905 Q 647.768 -21.958 651.931 -19.183 Q 656.093 -16.408 662.367 -16.408 L 662.367 -16.408 Q 667.193 -16.408 670.631 -17.796 Q 674.07 -19.183 677.448 -22.079 L 677.448 -22.079 L 689.513 -9.531 Q 679.982 1.086 661.643 1.086 M 645.959 -38.97 L 645.959 -38.97 L 672.743 -38.97 Q 671.778 -44.158 668.218 -47.174 Q 664.659 -50.19 659.351 -50.19 L 659.351 -50.19 Q 654.042 -50.19 650.483 -47.174 Q 646.924 -44.158 645.959 -38.97" fill="#FFFFFF"/></g></g><g transform="translate(80,354)"><path d="M 5.287 0.17 L 5.287 0.17 Q 3.893 0.17 2.618 -0.23 Q 1.343 -0.629 0.595 -1.258 L 0.595 -1.258 L 1.36 -2.975 Q 2.074 -2.397 3.128 -2.032 Q 4.182 -1.666 5.287 -1.666 L 5.287 -1.666 Q 6.681 -1.666 7.302 -2.108 Q 7.922 -2.55 7.922 -3.213 L 7.922 -3.213 Q 7.922 -3.757 7.54 -4.089 Q 7.157 -4.42 6.528 -4.615 Q 5.899 -4.811 5.143 -4.981 Q 4.386 -5.151 3.63 -5.381 Q 2.873 -5.61 2.244 -5.976 Q 1.615 -6.341 1.233 -6.953 Q 0.85 -7.565 0.85 -8.517 L 0.85 -8.517 Q 0.85 -9.486 1.369 -10.293 Q 1.887 -11.101 2.95 -11.586 Q 4.012 -12.07 5.644 -12.07 L 5.644 -12.07 Q 6.715 -12.07 7.769 -11.798 Q 8.823 -11.526 9.605 -11.016 L 9.605 -11.016 L 8.908 -9.299 Q 8.109 -9.775 7.259 -10.005 Q 6.409 -10.234 5.627 -10.234 L 5.627 -10.234 Q 4.25 -10.234 3.647 -9.758 Q 3.043 -9.282 3.043 -8.619 L 3.043 -8.619 Q 3.043 -8.075 3.426 -7.752 Q 3.808 -7.429 4.437 -7.225 Q 5.066 -7.021 5.823 -6.86 Q 6.579 -6.698 7.327 -6.477 Q 8.075 -6.256 8.704 -5.882 Q 9.333 -5.508 9.716 -4.905 Q 10.098 -4.301 10.098 -3.366 L 10.098 -3.366 Q 10.098 -2.414 9.58 -1.607 Q 9.061 -0.799 7.99 -0.315 Q 6.919 0.17 5.287 0.17 M 19.856 0 L 17.85 0 L 17.85 -1.088 Q 17.034 0.119 14.994 0.119 L 14.994 0.119 Q 13.43 0.119 12.521 -0.646 Q 11.611 -1.411 11.611 -2.601 L 11.611 -2.601 Q 11.611 -3.366 11.977 -3.978 Q 12.342 -4.59 13.175 -4.947 Q 14.008 -5.304 15.385 -5.304 L 15.385 -5.304 L 17.731 -5.304 L 17.731 -5.44 Q 17.731 -6.375 17.17 -6.894 Q 16.609 -7.412 15.47 -7.412 L 15.47 -7.412 Q 14.705 -7.412 13.966 -7.174 Q 13.226 -6.936 12.716 -6.511 L 12.716 -6.511 L 11.883 -8.058 Q 12.614 -8.619 13.626 -8.9 Q 14.637 -9.18 15.725 -9.18 L 15.725 -9.18 Q 17.697 -9.18 18.777 -8.237 Q 19.856 -7.293 19.856 -5.321 L 19.856 -5.321 L 19.856 0 M 17.731 -2.839 L 17.731 -2.839 L 17.731 -3.893 L 15.538 -3.893 Q 14.45 -3.893 14.076 -3.536 Q 13.702 -3.179 13.702 -2.686 L 13.702 -2.686 Q 13.702 -2.108 14.161 -1.768 Q 14.62 -1.428 15.436 -1.428 L 15.436 -1.428 Q 16.218 -1.428 16.839 -1.785 Q 17.459 -2.142 17.731 -2.839 M 24.871 0 L 22.746 0 L 22.746 -9.078 L 24.871 -9.078 L 24.871 0 M 23.817 -10.574 L 23.817 -10.574 Q 23.222 -10.574 22.84 -10.948 Q 22.457 -11.322 22.457 -11.849 L 22.457 -11.849 Q 22.457 -12.376 22.84 -12.75 Q 23.222 -13.124 23.817 -13.124 L 23.817 -13.124 Q 24.412 -13.124 24.795 -12.776 Q 25.177 -12.427 25.177 -11.9 L 25.177 -11.9 Q 25.177 -11.339 24.795 -10.957 Q 24.412 -10.574 23.817 -10.574 M 29.954 0 L 27.829 0 L 27.829 -9.078 L 29.852 -9.078 L 29.852 -7.752 Q 30.787 -9.18 33.082 -9.18 L 33.082 -9.18 L 33.082 -7.157 Q 32.946 -7.174 32.827 -7.191 Q 32.708 -7.208 32.589 -7.208 L 32.589 -7.208 Q 31.382 -7.208 30.668 -6.503 Q 29.954 -5.797 29.954 -4.403 L 29.954 -4.403 L 29.954 0 M 42.738 0 L 40.732 0 L 40.732 -1.088 Q 39.916 0.119 37.876 0.119 L 37.876 0.119 Q 36.312 0.119 35.403 -0.646 Q 34.493 -1.411 34.493 -2.601 L 34.493 -2.601 Q 34.493 -3.366 34.859 -3.978 Q 35.224 -4.59 36.057 -4.947 Q 36.89 -5.304 38.267 -5.304 L 38.267 -5.304 L 40.613 -5.304 L 40.613 -5.44 Q 40.613 -6.375 40.052 -6.894 Q 39.491 -7.412 38.352 -7.412 L 38.352 -7.412 Q 37.587 -7.412 36.848 -7.174 Q 36.108 -6.936 35.598 -6.511 L 35.598 -6.511 L 34.765 -8.058 Q 35.496 -8.619 36.508 -8.9 Q 37.519 -9.18 38.607 -9.18 L 38.607 -9.18 Q 40.579 -9.18 41.659 -8.237 Q 42.738 -7.293 42.738 -5.321 L 42.738 -5.321 L 42.738 0 M 40.613 -2.839 L 40.613 -2.839 L 40.613 -3.893 L 38.42 -3.893 Q 37.332 -3.893 36.958 -3.536 Q 36.584 -3.179 36.584 -2.686 L 36.584 -2.686 Q 36.584 -2.108 37.043 -1.768 Q 37.502 -1.428 38.318 -1.428 L 38.318 -1.428 Q 39.1 -1.428 39.721 -1.785 Q 40.341 -2.142 40.613 -2.839 M 51.51 -3.315 L 51.51 -3.315 Q 50.915 -3.315 50.516 -3.706 Q 50.116 -4.097 50.116 -4.743 L 50.116 -4.743 Q 50.116 -5.372 50.516 -5.763 Q 50.915 -6.154 51.51 -6.154 L 51.51 -6.154 Q 52.105 -6.154 52.505 -5.763 Q 52.904 -5.372 52.904 -4.743 L 52.904 -4.743 Q 52.904 -4.097 52.505 -3.706 Q 52.105 -3.315 51.51 -3.315 M 62.475 0 L 60.35 0 L 60.35 -9.078 L 62.475 -9.078 L 62.475 0 M 61.421 -10.574 L 61.421 -10.574 Q 60.826 -10.574 60.444 -10.948 Q 60.061 -11.322 60.061 -11.849 L 60.061 -11.849 Q 60.061 -12.376 60.444 -12.75 Q 60.826 -13.124 61.421 -13.124 L 61.421 -13.124 Q 62.016 -13.124 62.399 -12.776 Q 62.781 -12.427 62.781 -11.9 L 62.781 -11.9 Q 62.781 -11.339 62.399 -10.957 Q 62.016 -10.574 61.421 -10.574 M 67.558 0 L 65.433 0 L 65.433 -9.078 L 67.456 -9.078 L 67.456 -7.905 Q 67.983 -8.534 68.791 -8.857 Q 69.598 -9.18 70.584 -9.18 L 70.584 -9.18 Q 71.672 -9.18 72.531 -8.755 Q 73.389 -8.33 73.882 -7.446 Q 74.375 -6.562 74.375 -5.202 L 74.375 -5.202 L 74.375 0 L 72.25 0 L 72.25 -4.93 Q 72.25 -6.137 71.681 -6.732 Q 71.111 -7.327 70.091 -7.327 L 70.091 -7.327 Q 68.952 -7.327 68.255 -6.639 Q 67.558 -5.95 67.558 -4.59 L 67.558 -4.59 L 67.558 0 M 81.09 0.119 L 81.09 0.119 Q 79.781 0.119 78.744 -0.459 Q 77.707 -1.037 77.104 -2.083 Q 76.5 -3.128 76.5 -4.539 L 76.5 -4.539 Q 76.5 -5.95 77.104 -6.996 Q 77.707 -8.041 78.744 -8.611 Q 79.781 -9.18 81.09 -9.18 L 81.09 -9.18 Q 81.974 -9.18 82.722 -8.883 Q 83.47 -8.585 84.014 -7.973 L 84.014 -7.973 L 84.014 -12.614 L 86.139 -12.614 L 86.139 0 L 84.099 0 L 84.099 -1.19 Q 83.572 -0.527 82.799 -0.204 Q 82.025 0.119 81.09 0.119 M 81.345 -1.7 L 81.345 -1.7 Q 82.11 -1.7 82.722 -2.049 Q 83.334 -2.397 83.691 -3.035 Q 84.048 -3.672 84.048 -4.539 L 84.048 -4.539 Q 84.048 -5.406 83.691 -6.044 Q 83.334 -6.681 82.722 -7.03 Q 82.11 -7.378 81.345 -7.378 L 81.345 -7.378 Q 80.58 -7.378 79.968 -7.03 Q 79.356 -6.681 78.999 -6.044 Q 78.642 -5.406 78.642 -4.539 L 78.642 -4.539 Q 78.642 -3.672 78.999 -3.035 Q 79.356 -2.397 79.968 -2.049 Q 80.58 -1.7 81.345 -1.7 M 92.939 0.119 L 92.939 0.119 Q 91.205 0.119 90.117 -0.859 Q 89.029 -1.836 89.029 -3.893 L 89.029 -3.893 L 89.029 -9.078 L 91.154 -9.078 L 91.154 -4.182 Q 91.154 -2.941 91.715 -2.346 Q 92.276 -1.751 93.279 -1.751 L 93.279 -1.751 Q 94.401 -1.751 95.081 -2.44 Q 95.761 -3.128 95.761 -4.488 L 95.761 -4.488 L 95.761 -9.078 L 97.886 -9.078 L 97.886 0 L 95.863 0 L 95.863 -1.156 Q 95.353 -0.544 94.588 -0.213 Q 93.823 0.119 92.939 0.119 M 103.649 0.119 L 103.649 0.119 Q 102.51 0.119 101.465 -0.17 Q 100.419 -0.459 99.807 -0.901 L 99.807 -0.901 L 100.623 -2.516 Q 101.218 -2.108 102.077 -1.862 Q 102.935 -1.615 103.785 -1.615 L 103.785 -1.615 Q 104.805 -1.615 105.247 -1.887 Q 105.689 -2.159 105.689 -2.618 L 105.689 -2.618 Q 105.689 -3.06 105.281 -3.256 Q 104.873 -3.451 104.236 -3.553 Q 103.598 -3.655 102.884 -3.774 Q 102.17 -3.893 101.533 -4.148 Q 100.895 -4.403 100.487 -4.921 Q 100.079 -5.44 100.079 -6.341 L 100.079 -6.341 Q 100.079 -7.633 101.159 -8.407 Q 102.238 -9.18 104.074 -9.18 L 104.074 -9.18 Q 104.975 -9.18 105.919 -8.976 Q 106.862 -8.772 107.474 -8.398 L 107.474 -8.398 L 106.658 -6.783 Q 106.012 -7.157 105.358 -7.31 Q 104.703 -7.463 104.057 -7.463 L 104.057 -7.463 Q 103.088 -7.463 102.621 -7.174 Q 102.153 -6.885 102.153 -6.443 L 102.153 -6.443 Q 102.153 -5.984 102.561 -5.763 Q 102.969 -5.542 103.607 -5.44 Q 104.244 -5.338 104.958 -5.211 Q 105.672 -5.083 106.31 -4.828 Q 106.947 -4.573 107.355 -4.072 Q 107.763 -3.57 107.763 -2.686 L 107.763 -2.686 Q 107.763 -1.411 106.658 -0.646 Q 105.553 0.119 103.649 0.119 M 113.186 0.119 L 113.186 0.119 Q 111.69 0.119 110.874 -0.655 Q 110.058 -1.428 110.058 -2.941 L 110.058 -2.941 L 110.058 -7.378 L 108.562 -7.378 L 108.562 -9.078 L 110.058 -9.078 L 110.058 -11.084 L 112.183 -11.084 L 112.183 -9.078 L 114.614 -9.078 L 114.614 -7.378 L 112.183 -7.378 L 112.183 -2.992 Q 112.183 -2.329 112.506 -1.981 Q 112.829 -1.632 113.441 -1.632 L 113.441 -1.632 Q 114.138 -1.632 114.631 -2.006 L 114.631 -2.006 L 115.226 -0.493 Q 114.835 -0.187 114.3 -0.034 Q 113.764 0.119 113.186 0.119 M 119.272 0 L 117.147 0 L 117.147 -9.078 L 119.17 -9.078 L 119.17 -7.752 Q 120.105 -9.18 122.4 -9.18 L 122.4 -9.18 L 122.4 -7.157 Q 122.264 -7.174 122.145 -7.191 Q 122.026 -7.208 121.907 -7.208 L 121.907 -7.208 Q 120.7 -7.208 119.986 -6.503 Q 119.272 -5.797 119.272 -4.403 L 119.272 -4.403 L 119.272 0 M 126.582 0 L 124.457 0 L 124.457 -9.078 L 126.582 -9.078 L 126.582 0 M 125.528 -10.574 L 125.528 -10.574 Q 124.933 -10.574 124.551 -10.948 Q 124.168 -11.322 124.168 -11.849 L 124.168 -11.849 Q 124.168 -12.376 124.551 -12.75 Q 124.933 -13.124 125.528 -13.124 L 125.528 -13.124 Q 126.123 -13.124 126.506 -12.776 Q 126.888 -12.427 126.888 -11.9 L 126.888 -11.9 Q 126.888 -11.339 126.506 -10.957 Q 126.123 -10.574 125.528 -10.574 M 137.139 0 L 135.133 0 L 135.133 -1.088 Q 134.317 0.119 132.277 0.119 L 132.277 0.119 Q 130.713 0.119 129.804 -0.646 Q 128.894 -1.411 128.894 -2.601 L 128.894 -2.601 Q 128.894 -3.366 129.26 -3.978 Q 129.625 -4.59 130.458 -4.947 Q 131.291 -5.304 132.668 -5.304 L 132.668 -5.304 L 135.014 -5.304 L 135.014 -5.44 Q 135.014 -6.375 134.453 -6.894 Q 133.892 -7.412 132.753 -7.412 L 132.753 -7.412 Q 131.988 -7.412 131.249 -7.174 Q 130.509 -6.936 129.999 -6.511 L 129.999 -6.511 L 129.166 -8.058 Q 129.897 -8.619 130.909 -8.9 Q 131.92 -9.18 133.008 -9.18 L 133.008 -9.18 Q 134.98 -9.18 136.06 -8.237 Q 137.139 -7.293 137.139 -5.321 L 137.139 -5.321 L 137.139 0 M 135.014 -2.839 L 135.014 -2.839 L 135.014 -3.893 L 132.821 -3.893 Q 131.733 -3.893 131.359 -3.536 Q 130.985 -3.179 130.985 -2.686 L 130.985 -2.686 Q 130.985 -2.108 131.444 -1.768 Q 131.903 -1.428 132.719 -1.428 L 132.719 -1.428 Q 133.501 -1.428 134.122 -1.785 Q 134.742 -2.142 135.014 -2.839 M 142.154 0 L 140.029 0 L 140.029 -12.614 L 142.154 -12.614 L 142.154 0 M 154.139 0.119 L 154.139 0.119 Q 152.711 0.119 151.598 -0.485 Q 150.484 -1.088 149.855 -2.134 Q 149.226 -3.179 149.226 -4.539 L 149.226 -4.539 Q 149.226 -5.899 149.855 -6.945 Q 150.484 -7.99 151.598 -8.585 Q 152.711 -9.18 154.139 -9.18 L 154.139 -9.18 Q 155.465 -9.18 156.477 -8.645 Q 157.488 -8.109 158.015 -7.072 L 158.015 -7.072 L 156.383 -6.12 Q 155.975 -6.766 155.389 -7.072 Q 154.802 -7.378 154.122 -7.378 L 154.122 -7.378 Q 152.949 -7.378 152.159 -6.613 Q 151.368 -5.848 151.368 -4.539 L 151.368 -4.539 Q 151.368 -3.213 152.159 -2.457 Q 152.949 -1.7 154.122 -1.7 L 154.122 -1.7 Q 154.802 -1.7 155.389 -2.006 Q 155.975 -2.312 156.383 -2.958 L 156.383 -2.958 L 158.015 -2.006 Q 157.488 -0.986 156.477 -0.434 Q 155.465 0.119 154.139 0.119 M 164.101 0.119 L 164.101 0.119 Q 162.707 0.119 161.619 -0.485 Q 160.531 -1.088 159.902 -2.134 Q 159.273 -3.179 159.273 -4.539 L 159.273 -4.539 Q 159.273 -5.899 159.902 -6.945 Q 160.531 -7.99 161.619 -8.585 Q 162.707 -9.18 164.101 -9.18 L 164.101 -9.18 Q 165.512 -9.18 166.609 -8.585 Q 167.705 -7.99 168.326 -6.945 Q 168.946 -5.899 168.946 -4.539 L 168.946 -4.539 Q 168.946 -3.179 168.326 -2.134 Q 167.705 -1.088 166.609 -0.485 Q 165.512 0.119 164.101 0.119 M 164.101 -1.7 L 164.101 -1.7 Q 165.274 -1.7 166.039 -2.465 Q 166.804 -3.23 166.804 -4.539 L 166.804 -4.539 Q 166.804 -5.848 166.039 -6.613 Q 165.274 -7.378 164.101 -7.378 L 164.101 -7.378 Q 163.336 -7.378 162.733 -7.03 Q 162.129 -6.681 161.772 -6.044 Q 161.415 -5.406 161.415 -4.539 L 161.415 -4.539 Q 161.415 -3.672 161.772 -3.035 Q 162.129 -2.397 162.733 -2.049 Q 163.336 -1.7 164.101 -1.7 M 173.281 0 L 171.156 0 L 171.156 -9.078 L 173.179 -9.078 L 173.179 -7.905 Q 173.706 -8.534 174.513 -8.857 Q 175.321 -9.18 176.307 -9.18 L 176.307 -9.18 Q 177.395 -9.18 178.254 -8.755 Q 179.112 -8.33 179.605 -7.446 Q 180.098 -6.562 180.098 -5.202 L 180.098 -5.202 L 180.098 0 L 177.973 0 L 177.973 -4.93 Q 177.973 -6.137 177.404 -6.732 Q 176.834 -7.327 175.814 -7.327 L 175.814 -7.327 Q 174.675 -7.327 173.978 -6.639 Q 173.281 -5.95 173.281 -4.59 L 173.281 -4.59 L 173.281 0 M 186.813 0.119 L 186.813 0.119 Q 185.504 0.119 184.467 -0.459 Q 183.43 -1.037 182.827 -2.083 Q 182.223 -3.128 182.223 -4.539 L 182.223 -4.539 Q 182.223 -5.95 182.827 -6.996 Q 183.43 -8.041 184.467 -8.611 Q 185.504 -9.18 186.813 -9.18 L 186.813 -9.18 Q 187.697 -9.18 188.445 -8.883 Q 189.193 -8.585 189.737 -7.973 L 189.737 -7.973 L 189.737 -12.614 L 191.862 -12.614 L 191.862 0 L 189.822 0 L 189.822 -1.19 Q 189.295 -0.527 188.522 -0.204 Q 187.748 0.119 186.813 0.119 M 187.068 -1.7 L 187.068 -1.7 Q 187.833 -1.7 188.445 -2.049 Q 189.057 -2.397 189.414 -3.035 Q 189.771 -3.672 189.771 -4.539 L 189.771 -4.539 Q 189.771 -5.406 189.414 -6.044 Q 189.057 -6.681 188.445 -7.03 Q 187.833 -7.378 187.068 -7.378 L 187.068 -7.378 Q 186.303 -7.378 185.691 -7.03 Q 185.079 -6.681 184.722 -6.044 Q 184.365 -5.406 184.365 -4.539 L 184.365 -4.539 Q 184.365 -3.672 184.722 -3.035 Q 185.079 -2.397 185.691 -2.049 Q 186.303 -1.7 187.068 -1.7 M 199.087 0.119 L 199.087 0.119 Q 197.574 0.119 196.444 -0.485 Q 195.313 -1.088 194.692 -2.134 Q 194.072 -3.179 194.072 -4.539 L 194.072 -4.539 Q 194.072 -5.899 194.675 -6.945 Q 195.279 -7.99 196.341 -8.585 Q 197.404 -9.18 198.764 -9.18 L 198.764 -9.18 Q 200.09 -9.18 201.127 -8.602 Q 202.164 -8.024 202.759 -6.962 Q 203.354 -5.899 203.354 -4.488 L 203.354 -4.488 Q 203.354 -4.352 203.345 -4.182 Q 203.337 -4.012 203.32 -3.859 L 203.32 -3.859 L 196.197 -3.859 Q 196.384 -2.873 197.166 -2.278 Q 197.948 -1.683 199.138 -1.683 L 199.138 -1.683 Q 200.651 -1.683 201.603 -2.669 L 201.603 -2.669 L 202.742 -1.36 Q 201.484 0.119 199.087 0.119 M 196.18 -5.27 L 196.18 -5.27 L 201.331 -5.27 Q 201.195 -6.256 200.498 -6.868 Q 199.801 -7.48 198.764 -7.48 L 198.764 -7.48 Q 197.727 -7.48 197.03 -6.877 Q 196.333 -6.273 196.18 -5.27 M 207.689 0 L 205.564 0 L 205.564 -9.078 L 207.587 -9.078 L 207.587 -7.905 Q 208.114 -8.534 208.921 -8.857 Q 209.729 -9.18 210.715 -9.18 L 210.715 -9.18 Q 211.803 -9.18 212.661 -8.755 Q 213.52 -8.33 214.013 -7.446 Q 214.506 -6.562 214.506 -5.202 L 214.506 -5.202 L 214.506 0 L 212.381 0 L 212.381 -4.93 Q 212.381 -6.137 211.811 -6.732 Q 211.242 -7.327 210.222 -7.327 L 210.222 -7.327 Q 209.083 -7.327 208.386 -6.639 Q 207.689 -5.95 207.689 -4.59 L 207.689 -4.59 L 207.689 0 M 220.184 0.119 L 220.184 0.119 Q 219.045 0.119 217.999 -0.17 Q 216.954 -0.459 216.342 -0.901 L 216.342 -0.901 L 217.158 -2.516 Q 217.753 -2.108 218.611 -1.862 Q 219.47 -1.615 220.32 -1.615 L 220.32 -1.615 Q 221.34 -1.615 221.782 -1.887 Q 222.224 -2.159 222.224 -2.618 L 222.224 -2.618 Q 222.224 -3.06 221.816 -3.256 Q 221.408 -3.451 220.77 -3.553 Q 220.133 -3.655 219.419 -3.774 Q 218.705 -3.893 218.067 -4.148 Q 217.43 -4.403 217.022 -4.921 Q 216.614 -5.44 216.614 -6.341 L 216.614 -6.341 Q 216.614 -7.633 217.693 -8.407 Q 218.773 -9.18 220.609 -9.18 L 220.609 -9.18 Q 221.51 -9.18 222.453 -8.976 Q 223.397 -8.772 224.009 -8.398 L 224.009 -8.398 L 223.193 -6.783 Q 222.547 -7.157 221.892 -7.31 Q 221.238 -7.463 220.592 -7.463 L 220.592 -7.463 Q 219.623 -7.463 219.155 -7.174 Q 218.688 -6.885 218.688 -6.443 L 218.688 -6.443 Q 218.688 -5.984 219.096 -5.763 Q 219.504 -5.542 220.141 -5.44 Q 220.779 -5.338 221.493 -5.211 Q 222.207 -5.083 222.844 -4.828 Q 223.482 -4.573 223.89 -4.072 Q 224.298 -3.57 224.298 -2.686 L 224.298 -2.686 Q 224.298 -1.411 223.193 -0.646 Q 222.088 0.119 220.184 0.119 M 233.903 0 L 231.897 0 L 231.897 -1.088 Q 231.081 0.119 229.041 0.119 L 229.041 0.119 Q 227.477 0.119 226.567 -0.646 Q 225.658 -1.411 225.658 -2.601 L 225.658 -2.601 Q 225.658 -3.366 226.023 -3.978 Q 226.389 -4.59 227.222 -4.947 Q 228.055 -5.304 229.432 -5.304 L 229.432 -5.304 L 231.778 -5.304 L 231.778 -5.44 Q 231.778 -6.375 231.217 -6.894 Q 230.656 -7.412 229.517 -7.412 L 229.517 -7.412 Q 228.752 -7.412 228.012 -7.174 Q 227.273 -6.936 226.763 -6.511 L 226.763 -6.511 L 225.93 -8.058 Q 226.661 -8.619 227.672 -8.9 Q 228.684 -9.18 229.772 -9.18 L 229.772 -9.18 Q 231.744 -9.18 232.823 -8.237 Q 233.903 -7.293 233.903 -5.321 L 233.903 -5.321 L 233.903 0 M 231.778 -2.839 L 231.778 -2.839 L 231.778 -3.893 L 229.585 -3.893 Q 228.497 -3.893 228.123 -3.536 Q 227.749 -3.179 227.749 -2.686 L 227.749 -2.686 Q 227.749 -2.108 228.208 -1.768 Q 228.667 -1.428 229.483 -1.428 L 229.483 -1.428 Q 230.265 -1.428 230.886 -1.785 Q 231.506 -2.142 231.778 -2.839 M 240.635 0.119 L 240.635 0.119 Q 239.326 0.119 238.289 -0.459 Q 237.252 -1.037 236.649 -2.083 Q 236.045 -3.128 236.045 -4.539 L 236.045 -4.539 Q 236.045 -5.95 236.649 -6.996 Q 237.252 -8.041 238.289 -8.611 Q 239.326 -9.18 240.635 -9.18 L 240.635 -9.18 Q 241.519 -9.18 242.267 -8.883 Q 243.015 -8.585 243.559 -7.973 L 243.559 -7.973 L 243.559 -12.614 L 245.684 -12.614 L 245.684 0 L 243.644 0 L 243.644 -1.19 Q 243.117 -0.527 242.344 -0.204 Q 241.57 0.119 240.635 0.119 M 240.89 -1.7 L 240.89 -1.7 Q 241.655 -1.7 242.267 -2.049 Q 242.879 -2.397 243.236 -3.035 Q 243.593 -3.672 243.593 -4.539 L 243.593 -4.539 Q 243.593 -5.406 243.236 -6.044 Q 242.879 -6.681 242.267 -7.03 Q 241.655 -7.378 240.89 -7.378 L 240.89 -7.378 Q 240.125 -7.378 239.513 -7.03 Q 238.901 -6.681 238.544 -6.044 Q 238.187 -5.406 238.187 -4.539 L 238.187 -4.539 Q 238.187 -3.672 238.544 -3.035 Q 238.901 -2.397 239.513 -2.049 Q 240.125 -1.7 240.89 -1.7 M 256.241 0 L 254.235 0 L 254.235 -1.088 Q 253.419 0.119 251.379 0.119 L 251.379 0.119 Q 249.815 0.119 248.905 -0.646 Q 247.996 -1.411 247.996 -2.601 L 247.996 -2.601 Q 247.996 -3.366 248.361 -3.978 Q 248.727 -4.59 249.56 -4.947 Q 250.393 -5.304 251.77 -5.304 L 251.77 -5.304 L 254.116 -5.304 L 254.116 -5.44 Q 254.116 -6.375 253.555 -6.894 Q 252.994 -7.412 251.855 -7.412 L 251.855 -7.412 Q 251.09 -7.412 250.35 -7.174 Q 249.611 -6.936 249.101 -6.511 L 249.101 -6.511 L 248.268 -8.058 Q 248.999 -8.619 250.01 -8.9 Q 251.022 -9.18 252.11 -9.18 L 252.11 -9.18 Q 254.082 -9.18 255.161 -8.237 Q 256.241 -7.293 256.241 -5.321 L 256.241 -5.321 L 256.241 0 M 254.116 -2.839 L 254.116 -2.839 L 254.116 -3.893 L 251.923 -3.893 Q 250.835 -3.893 250.461 -3.536 Q 250.087 -3.179 250.087 -2.686 L 250.087 -2.686 Q 250.087 -2.108 250.546 -1.768 Q 251.005 -1.428 251.821 -1.428 L 251.821 -1.428 Q 252.603 -1.428 253.224 -1.785 Q 253.844 -2.142 254.116 -2.839" fill="#9AA1AD"/></g><g transform="translate(80,380)"><g transform="scale(0.5)"><path d="M 247.00,134.41 Q 256.00,150.00 247.00,165.59 L 212.00,226.21 Q 203.00,241.80 185.00,241.80 L 115.00,241.80 Q 97.00,241.80 88.00,226.21 L 53.00,165.59 Q 44.00,150.00 53.00,134.41 L 88.00,73.79 Q 97.00,58.20 115.00,58.20 L 185.00,58.20 Q 203.00,58.20 212.00,73.79 Z" fill="none" stroke="#F2A623" stroke-width="12.3" stroke-linejoin="round"/><path d="M 118,198 L 118,117 L 150,170.46 L 182,117 L 182,198" fill="none" stroke="#F2A623" stroke-width="28" stroke-linecap="round" stroke-linejoin="round"/></g><g transform="translate(165,117.22739868852923)"><path d="M 91.206 0 L 72.793 0 L 72.793 -58.431 L 71.934 -58.431 L 56.59 0 L 41.614 0 L 26.392 -58.431 L 25.533 -58.431 L 25.533 0 L 7.611 0 L 7.611 -84.455 L 34.985 -84.455 L 49.102 -30.32 L 49.961 -30.32 L 64.078 -84.455 L 91.206 -84.455 L 91.206 0 M 154.425 -31.18 L 154.425 -26.392 L 121.404 -26.392 Q 121.404 -19.763 122.14 -17.247 Q 122.877 -14.73 125.639 -13.871 Q 128.401 -13.012 135.398 -13.012 L 135.398 -13.012 Q 140.676 -13.012 152.461 -13.994 L 152.461 -13.994 L 152.461 -0.982 Q 148.778 -0.123 142.824 0.43 Q 136.871 0.982 131.224 0.982 L 131.224 0.982 Q 118.58 0.982 112.75 -2.21 Q 106.919 -5.401 105.323 -11.784 Q 103.727 -18.168 103.727 -31.18 L 103.727 -31.18 Q 103.727 -43.946 105.323 -50.452 Q 106.919 -56.958 112.443 -60.272 Q 117.967 -63.587 129.874 -63.587 L 129.874 -63.587 Q 141.658 -63.587 146.814 -60.456 Q 151.97 -57.326 153.197 -51.066 Q 154.425 -44.805 154.425 -31.18 L 154.425 -31.18 M 129.628 -49.961 Q 125.823 -49.961 124.166 -49.102 Q 122.509 -48.242 121.956 -45.603 Q 121.404 -42.964 121.404 -36.826 L 121.404 -36.826 L 137.607 -36.826 Q 137.607 -43.087 136.994 -45.726 Q 136.38 -48.365 134.784 -49.163 Q 133.188 -49.961 129.628 -49.961 L 129.628 -49.961 M 199.353 0 L 199.353 -33.512 Q 199.353 -41 198.923 -43.885 Q 198.493 -46.769 197.082 -47.567 Q 195.67 -48.365 191.987 -48.365 L 191.987 -48.365 Q 188.182 -48.365 186.525 -47.076 Q 184.868 -45.787 184.377 -42.657 Q 183.886 -39.527 183.886 -32.407 L 183.886 -32.407 L 183.886 0 L 166.086 0 L 166.086 -62.605 L 183.026 -62.605 L 183.517 -55.117 L 184.499 -55.117 Q 188.427 -63.587 200.457 -63.587 L 200.457 -63.587 Q 207.577 -63.587 211.137 -61.07 Q 214.697 -58.554 215.924 -53.644 Q 217.152 -48.733 217.152 -40.141 L 217.152 -40.141 L 217.152 0 L 199.353 0" fill="#FFFFFF"/><path d="M 253.487 0 L 235.565 0 L 235.565 -48.488 L 225.867 -48.488 L 225.867 -62.605 L 235.565 -62.605 L 235.565 -80.772 L 253.487 -80.772 L 253.487 -62.605 L 265.394 -62.605 L 265.394 -48.488 L 253.487 -48.488 L 253.487 0 M 298.783 0.982 Q 286.385 0.982 280.923 -1.719 Q 275.46 -4.419 273.987 -10.741 Q 272.514 -17.063 272.514 -31.302 L 272.514 -31.302 Q 272.514 -45.542 273.987 -51.864 Q 275.46 -58.185 280.923 -60.886 Q 286.385 -63.587 298.783 -63.587 L 298.783 -63.587 Q 311.182 -63.587 316.583 -60.886 Q 321.984 -58.185 323.518 -51.864 Q 325.053 -45.542 325.053 -31.302 L 325.053 -31.302 Q 325.053 -17.186 323.518 -10.864 Q 321.984 -4.542 316.583 -1.78 Q 311.182 0.982 298.783 0.982 L 298.783 0.982 M 298.783 -13.135 Q 303.203 -13.135 304.798 -14.239 Q 306.394 -15.344 306.824 -18.659 Q 307.253 -21.973 307.253 -31.302 L 307.253 -31.302 Q 307.253 -40.632 306.824 -44.007 Q 306.394 -47.383 304.798 -48.426 Q 303.203 -49.47 298.783 -49.47 L 298.783 -49.47 Q 294.364 -49.47 292.707 -48.426 Q 291.05 -47.383 290.682 -44.069 Q 290.313 -40.754 290.313 -31.302 L 290.313 -31.302 Q 290.313 -21.85 290.682 -18.597 Q 291.05 -15.344 292.707 -14.239 Q 294.364 -13.135 298.783 -13.135 L 298.783 -13.135 M 336.469 0 L 336.469 -62.605 L 353.409 -62.605 L 353.9 -52.048 L 354.882 -52.048 Q 357.092 -58.554 361.142 -61.07 Q 365.193 -63.587 372.068 -63.587 L 372.068 -63.587 L 372.068 -46.401 Q 365.316 -46.401 361.511 -44.56 Q 357.705 -42.718 355.987 -38.299 Q 354.268 -33.88 354.268 -25.901 L 354.268 -25.901 L 354.268 0 L 336.469 0" fill="#F2A623"/><path d="M 413.558 24.183 L 413.558 -6.751 L 412.576 -6.751 Q 410.367 -2.455 406.623 -0.737 Q 402.879 0.982 397.355 0.982 L 397.355 0.982 Q 390.481 0.982 386.614 -1.964 Q 382.747 -4.91 381.029 -11.846 Q 379.31 -18.781 379.31 -31.302 L 379.31 -31.302 Q 379.31 -44.069 381.09 -51.004 Q 382.87 -57.94 386.798 -60.763 Q 390.726 -63.587 397.6 -63.587 L 397.6 -63.587 Q 409.262 -63.587 412.945 -55.117 L 412.945 -55.117 L 414.049 -55.117 L 414.54 -62.605 L 431.358 -62.605 L 431.358 24.183 L 413.558 24.183 M 405.457 -14.239 Q 408.648 -14.239 410.244 -15.222 Q 411.84 -16.204 412.699 -18.659 L 412.699 -18.659 Q 413.558 -21.236 413.558 -31.302 L 413.558 -31.302 Q 413.558 -36.826 413.313 -39.895 Q 413.067 -42.964 412.331 -44.805 L 412.331 -44.805 Q 411.472 -46.892 409.937 -47.629 Q 408.403 -48.365 405.457 -48.365 L 405.457 -48.365 Q 401.283 -48.365 399.687 -47.383 Q 398.091 -46.401 397.6 -43.087 Q 397.109 -39.772 397.109 -31.302 L 397.109 -31.302 Q 397.109 -22.832 397.6 -19.518 Q 398.091 -16.204 399.687 -15.222 Q 401.283 -14.239 405.457 -14.239 L 405.457 -14.239 M 478.864 0 L 478.373 -7.488 L 477.391 -7.488 Q 473.462 0.982 461.31 0.982 L 461.31 0.982 Q 454.313 0.982 450.692 -1.534 Q 447.07 -4.051 445.843 -8.961 Q 444.615 -13.871 444.615 -22.464 L 444.615 -22.464 L 444.615 -62.605 L 462.415 -62.605 L 462.415 -29.093 Q 462.415 -21.727 462.906 -18.781 Q 463.397 -15.835 464.808 -15.037 Q 466.22 -14.239 469.903 -14.239 L 469.903 -14.239 Q 473.585 -14.239 475.242 -15.528 Q 476.9 -16.817 477.391 -20.009 Q 477.882 -23.201 477.882 -30.198 L 477.882 -30.198 L 477.882 -62.605 L 495.681 -62.605 L 495.681 0 L 478.864 0 M 558.04 -31.18 L 558.04 -26.392 L 525.019 -26.392 Q 525.019 -19.763 525.756 -17.247 Q 526.492 -14.73 529.254 -13.871 Q 532.016 -13.012 539.013 -13.012 L 539.013 -13.012 Q 544.292 -13.012 556.076 -13.994 L 556.076 -13.994 L 556.076 -0.982 Q 552.393 -0.123 546.44 0.43 Q 540.486 0.982 534.839 0.982 L 534.839 0.982 Q 522.196 0.982 516.365 -2.21 Q 510.534 -5.401 508.938 -11.784 Q 507.343 -18.168 507.343 -31.18 L 507.343 -31.18 Q 507.343 -43.946 508.938 -50.452 Q 510.534 -56.958 516.058 -60.272 Q 521.582 -63.587 533.489 -63.587 L 533.489 -63.587 Q 545.274 -63.587 550.429 -60.456 Q 555.585 -57.326 556.812 -51.066 Q 558.04 -44.805 558.04 -31.18 L 558.04 -31.18 M 533.244 -49.961 Q 529.438 -49.961 527.781 -49.102 Q 526.124 -48.242 525.572 -45.603 Q 525.019 -42.964 525.019 -36.826 L 525.019 -36.826 L 541.223 -36.826 Q 541.223 -43.087 540.609 -45.726 Q 539.995 -48.365 538.399 -49.163 Q 536.804 -49.961 533.244 -49.961 L 533.244 -49.961" fill="#FFFFFF"/></g></g><g transform="translate(80,574)"><path d="M 3.808 0 L 1.598 0 L 1.598 -11.9 L 6.477 -11.9 Q 8.857 -11.9 10.209 -10.77 Q 11.56 -9.639 11.56 -7.667 L 11.56 -7.667 Q 11.56 -6.307 10.897 -5.347 Q 10.234 -4.386 9.027 -3.893 L 9.027 -3.893 L 11.764 0 L 9.384 0 L 6.953 -3.485 Q 6.732 -3.468 6.494 -3.468 L 6.494 -3.468 L 3.808 -3.468 L 3.808 0 M 3.808 -10.03 L 3.808 -5.287 L 6.392 -5.287 Q 7.854 -5.287 8.594 -5.916 Q 9.333 -6.545 9.333 -7.667 L 9.333 -7.667 Q 9.333 -8.789 8.594 -9.41 Q 7.854 -10.03 6.392 -10.03 L 6.392 -10.03 L 3.808 -10.03 M 21.59 0 L 19.584 0 L 19.584 -1.088 Q 18.768 0.119 16.728 0.119 L 16.728 0.119 Q 15.164 0.119 14.255 -0.646 Q 13.345 -1.411 13.345 -2.601 L 13.345 -2.601 Q 13.345 -3.366 13.711 -3.978 Q 14.076 -4.59 14.909 -4.947 Q 15.742 -5.304 17.119 -5.304 L 17.119 -5.304 L 19.465 -5.304 L 19.465 -5.44 Q 19.465 -6.375 18.904 -6.894 Q 18.343 -7.412 17.204 -7.412 L 17.204 -7.412 Q 16.439 -7.412 15.7 -7.174 Q 14.96 -6.936 14.45 -6.511 L 14.45 -6.511 L 13.617 -8.058 Q 14.348 -8.619 15.36 -8.9 Q 16.371 -9.18 17.459 -9.18 L 17.459 -9.18 Q 19.431 -9.18 20.511 -8.237 Q 21.59 -7.293 21.59 -5.321 L 21.59 -5.321 L 21.59 0 M 19.465 -2.839 L 19.465 -2.839 L 19.465 -3.893 L 17.272 -3.893 Q 16.184 -3.893 15.81 -3.536 Q 15.436 -3.179 15.436 -2.686 L 15.436 -2.686 Q 15.436 -2.108 15.895 -1.768 Q 16.354 -1.428 17.17 -1.428 L 17.17 -1.428 Q 17.952 -1.428 18.573 -1.785 Q 19.193 -2.142 19.465 -2.839 M 23.545 3.417 L 23.545 3.417 Q 22.95 3.417 22.415 3.29 Q 21.879 3.162 21.505 2.89 L 21.505 2.89 L 22.117 1.309 Q 22.61 1.666 23.358 1.666 L 23.358 1.666 Q 23.936 1.666 24.259 1.3 Q 24.582 0.935 24.582 0.221 L 24.582 0.221 L 24.582 -9.078 L 26.707 -9.078 L 26.707 0.17 Q 26.707 1.666 25.883 2.542 Q 25.058 3.417 23.545 3.417 M 25.636 -10.574 L 25.636 -10.574 Q 25.041 -10.574 24.659 -10.948 Q 24.276 -11.322 24.276 -11.849 L 24.276 -11.849 Q 24.276 -12.376 24.659 -12.75 Q 25.041 -13.124 25.636 -13.124 L 25.636 -13.124 Q 26.231 -13.124 26.614 -12.776 Q 26.996 -12.427 26.996 -11.9 L 26.996 -11.9 Q 26.996 -11.339 26.614 -10.957 Q 26.231 -10.574 25.636 -10.574 M 33.507 0.119 L 33.507 0.119 Q 32.198 0.119 31.161 -0.459 Q 30.124 -1.037 29.521 -2.083 Q 28.917 -3.128 28.917 -4.539 L 28.917 -4.539 Q 28.917 -5.95 29.521 -6.996 Q 30.124 -8.041 31.161 -8.611 Q 32.198 -9.18 33.507 -9.18 L 33.507 -9.18 Q 34.391 -9.18 35.139 -8.883 Q 35.887 -8.585 36.431 -7.973 L 36.431 -7.973 L 36.431 -12.614 L 38.556 -12.614 L 38.556 0 L 36.516 0 L 36.516 -1.19 Q 35.989 -0.527 35.215 -0.204 Q 34.442 0.119 33.507 0.119 M 33.762 -1.7 L 33.762 -1.7 Q 34.527 -1.7 35.139 -2.049 Q 35.751 -2.397 36.108 -3.035 Q 36.465 -3.672 36.465 -4.539 L 36.465 -4.539 Q 36.465 -5.406 36.108 -6.044 Q 35.751 -6.681 35.139 -7.03 Q 34.527 -7.378 33.762 -7.378 L 33.762 -7.378 Q 32.997 -7.378 32.385 -7.03 Q 31.773 -6.681 31.416 -6.044 Q 31.059 -5.406 31.059 -4.539 L 31.059 -4.539 Q 31.059 -3.672 31.416 -3.035 Q 31.773 -2.397 32.385 -2.049 Q 32.997 -1.7 33.762 -1.7 M 43.639 0 L 41.514 0 L 41.514 -12.614 L 43.639 -12.614 L 43.639 -8.024 Q 44.166 -8.585 44.94 -8.883 Q 45.713 -9.18 46.665 -9.18 L 46.665 -9.18 Q 47.753 -9.18 48.612 -8.755 Q 49.47 -8.33 49.963 -7.446 Q 50.456 -6.562 50.456 -5.202 L 50.456 -5.202 L 50.456 0 L 48.331 0 L 48.331 -4.93 Q 48.331 -6.137 47.762 -6.732 Q 47.192 -7.327 46.172 -7.327 L 46.172 -7.327 Q 45.033 -7.327 44.336 -6.639 Q 43.639 -5.95 43.639 -4.59 L 43.639 -4.59 L 43.639 0 M 60.928 0 L 58.922 0 L 58.922 -1.088 Q 58.106 0.119 56.066 0.119 L 56.066 0.119 Q 54.502 0.119 53.593 -0.646 Q 52.683 -1.411 52.683 -2.601 L 52.683 -2.601 Q 52.683 -3.366 53.049 -3.978 Q 53.414 -4.59 54.247 -4.947 Q 55.08 -5.304 56.457 -5.304 L 56.457 -5.304 L 58.803 -5.304 L 58.803 -5.44 Q 58.803 -6.375 58.242 -6.894 Q 57.681 -7.412 56.542 -7.412 L 56.542 -7.412 Q 55.777 -7.412 55.038 -7.174 Q 54.298 -6.936 53.788 -6.511 L 53.788 -6.511 L 52.955 -8.058 Q 53.686 -8.619 54.698 -8.9 Q 55.709 -9.18 56.797 -9.18 L 56.797 -9.18 Q 58.769 -9.18 59.849 -8.237 Q 60.928 -7.293 60.928 -5.321 L 60.928 -5.321 L 60.928 0 M 58.803 -2.839 L 58.803 -2.839 L 58.803 -3.893 L 56.61 -3.893 Q 55.522 -3.893 55.148 -3.536 Q 54.774 -3.179 54.774 -2.686 L 54.774 -2.686 Q 54.774 -2.108 55.233 -1.768 Q 55.692 -1.428 56.508 -1.428 L 56.508 -1.428 Q 57.29 -1.428 57.91 -1.785 Q 58.531 -2.142 58.803 -2.839 M 65.943 0 L 63.818 0 L 63.818 -9.078 L 65.841 -9.078 L 65.841 -7.905 Q 66.368 -8.534 67.175 -8.857 Q 67.983 -9.18 68.969 -9.18 L 68.969 -9.18 Q 70.057 -9.18 70.916 -8.755 Q 71.774 -8.33 72.267 -7.446 Q 72.76 -6.562 72.76 -5.202 L 72.76 -5.202 L 72.76 0 L 70.635 0 L 70.635 -4.93 Q 70.635 -6.137 70.066 -6.732 Q 69.496 -7.327 68.476 -7.327 L 68.476 -7.327 Q 67.337 -7.327 66.64 -6.639 Q 65.943 -5.95 65.943 -4.59 L 65.943 -4.59 L 65.943 0 M 77.758 0 L 75.633 0 L 75.633 -9.078 L 77.758 -9.078 L 77.758 0 M 76.704 -10.574 L 76.704 -10.574 Q 76.109 -10.574 75.727 -10.948 Q 75.344 -11.322 75.344 -11.849 L 75.344 -11.849 Q 75.344 -12.376 75.727 -12.75 Q 76.109 -13.124 76.704 -13.124 L 76.704 -13.124 Q 77.299 -13.124 77.681 -12.776 Q 78.064 -12.427 78.064 -11.9 L 78.064 -11.9 Q 78.064 -11.339 77.681 -10.957 Q 77.299 -10.574 76.704 -10.574 M 86.598 -3.315 L 86.598 -3.315 Q 86.003 -3.315 85.603 -3.706 Q 85.204 -4.097 85.204 -4.743 L 85.204 -4.743 Q 85.204 -5.372 85.603 -5.763 Q 86.003 -6.154 86.598 -6.154 L 86.598 -6.154 Q 87.193 -6.154 87.593 -5.763 Q 87.992 -5.372 87.992 -4.743 L 87.992 -4.743 Q 87.992 -4.097 87.593 -3.706 Q 87.193 -3.315 86.598 -3.315 M 97.563 0 L 95.438 0 L 95.438 -9.078 L 97.461 -9.078 L 97.461 -7.939 Q 97.971 -8.551 98.736 -8.866 Q 99.501 -9.18 100.436 -9.18 L 100.436 -9.18 Q 101.422 -9.18 102.221 -8.806 Q 103.02 -8.432 103.496 -7.65 L 103.496 -7.65 Q 104.04 -8.364 104.924 -8.772 Q 105.808 -9.18 106.896 -9.18 L 106.896 -9.18 Q 108.545 -9.18 109.582 -8.211 Q 110.619 -7.242 110.619 -5.202 L 110.619 -5.202 L 110.619 0 L 108.494 0 L 108.494 -4.93 Q 108.494 -6.137 107.959 -6.732 Q 107.423 -7.327 106.454 -7.327 L 106.454 -7.327 Q 105.4 -7.327 104.745 -6.647 Q 104.091 -5.967 104.091 -4.607 L 104.091 -4.607 L 104.091 0 L 101.966 0 L 101.966 -4.93 Q 101.966 -6.137 101.43 -6.732 Q 100.895 -7.327 99.926 -7.327 L 99.926 -7.327 Q 98.872 -7.327 98.218 -6.647 Q 97.563 -5.967 97.563 -4.607 L 97.563 -4.607 L 97.563 0 M 117.589 0.119 L 117.589 0.119 Q 116.195 0.119 115.107 -0.485 Q 114.019 -1.088 113.39 -2.134 Q 112.761 -3.179 112.761 -4.539 L 112.761 -4.539 Q 112.761 -5.899 113.39 -6.945 Q 114.019 -7.99 115.107 -8.585 Q 116.195 -9.18 117.589 -9.18 L 117.589 -9.18 Q 119 -9.18 120.096 -8.585 Q 121.193 -7.99 121.813 -6.945 Q 122.434 -5.899 122.434 -4.539 L 122.434 -4.539 Q 122.434 -3.179 121.813 -2.134 Q 121.193 -1.088 120.096 -0.485 Q 119 0.119 117.589 0.119 M 117.589 -1.7 L 117.589 -1.7 Q 118.762 -1.7 119.527 -2.465 Q 120.292 -3.23 120.292 -4.539 L 120.292 -4.539 Q 120.292 -5.848 119.527 -6.613 Q 118.762 -7.378 117.589 -7.378 L 117.589 -7.378 Q 116.824 -7.378 116.221 -7.03 Q 115.617 -6.681 115.26 -6.044 Q 114.903 -5.406 114.903 -4.539 L 114.903 -4.539 Q 114.903 -3.672 115.26 -3.035 Q 115.617 -2.397 116.221 -2.049 Q 116.824 -1.7 117.589 -1.7 M 128.061 0.119 L 128.061 0.119 Q 126.565 0.119 125.749 -0.655 Q 124.933 -1.428 124.933 -2.941 L 124.933 -2.941 L 124.933 -7.378 L 123.437 -7.378 L 123.437 -9.078 L 124.933 -9.078 L 124.933 -11.084 L 127.058 -11.084 L 127.058 -9.078 L 129.489 -9.078 L 129.489 -7.378 L 127.058 -7.378 L 127.058 -2.992 Q 127.058 -2.329 127.381 -1.981 Q 127.704 -1.632 128.316 -1.632 L 128.316 -1.632 Q 129.013 -1.632 129.506 -2.006 L 129.506 -2.006 L 130.101 -0.493 Q 129.71 -0.187 129.174 -0.034 Q 128.639 0.119 128.061 0.119 M 136.102 0.119 L 136.102 0.119 Q 134.708 0.119 133.62 -0.485 Q 132.532 -1.088 131.903 -2.134 Q 131.274 -3.179 131.274 -4.539 L 131.274 -4.539 Q 131.274 -5.899 131.903 -6.945 Q 132.532 -7.99 133.62 -8.585 Q 134.708 -9.18 136.102 -9.18 L 136.102 -9.18 Q 137.513 -9.18 138.609 -8.585 Q 139.706 -7.99 140.326 -6.945 Q 140.947 -5.899 140.947 -4.539 L 140.947 -4.539 Q 140.947 -3.179 140.326 -2.134 Q 139.706 -1.088 138.609 -0.485 Q 137.513 0.119 136.102 0.119 M 136.102 -1.7 L 136.102 -1.7 Q 137.275 -1.7 138.04 -2.465 Q 138.805 -3.23 138.805 -4.539 L 138.805 -4.539 Q 138.805 -5.848 138.04 -6.613 Q 137.275 -7.378 136.102 -7.378 L 136.102 -7.378 Q 135.337 -7.378 134.733 -7.03 Q 134.13 -6.681 133.773 -6.044 Q 133.416 -5.406 133.416 -4.539 L 133.416 -4.539 Q 133.416 -3.672 133.773 -3.035 Q 134.13 -2.397 134.733 -2.049 Q 135.337 -1.7 136.102 -1.7 M 145.282 0 L 143.157 0 L 143.157 -9.078 L 145.18 -9.078 L 145.18 -7.752 Q 146.115 -9.18 148.41 -9.18 L 148.41 -9.18 L 148.41 -7.157 Q 148.274 -7.174 148.155 -7.191 Q 148.036 -7.208 147.917 -7.208 L 147.917 -7.208 Q 146.71 -7.208 145.996 -6.503 Q 145.282 -5.797 145.282 -4.403 L 145.282 -4.403 L 145.282 0 M 153.272 0.119 L 153.272 0.119 Q 152.133 0.119 151.087 -0.17 Q 150.042 -0.459 149.43 -0.901 L 149.43 -0.901 L 150.246 -2.516 Q 150.841 -2.108 151.699 -1.862 Q 152.558 -1.615 153.408 -1.615 L 153.408 -1.615 Q 154.428 -1.615 154.87 -1.887 Q 155.312 -2.159 155.312 -2.618 L 155.312 -2.618 Q 155.312 -3.06 154.904 -3.256 Q 154.496 -3.451 153.858 -3.553 Q 153.221 -3.655 152.507 -3.774 Q 151.793 -3.893 151.155 -4.148 Q 150.518 -4.403 150.11 -4.921 Q 149.702 -5.44 149.702 -6.341 L 149.702 -6.341 Q 149.702 -7.633 150.781 -8.407 Q 151.861 -9.18 153.697 -9.18 L 153.697 -9.18 Q 154.598 -9.18 155.541 -8.976 Q 156.485 -8.772 157.097 -8.398 L 157.097 -8.398 L 156.281 -6.783 Q 155.635 -7.157 154.98 -7.31 Q 154.326 -7.463 153.68 -7.463 L 153.68 -7.463 Q 152.711 -7.463 152.243 -7.174 Q 151.776 -6.885 151.776 -6.443 L 151.776 -6.443 Q 151.776 -5.984 152.184 -5.763 Q 152.592 -5.542 153.229 -5.44 Q 153.867 -5.338 154.581 -5.211 Q 155.295 -5.083 155.932 -4.828 Q 156.57 -4.573 156.978 -4.072 Q 157.386 -3.57 157.386 -2.686 L 157.386 -2.686 Q 157.386 -1.411 156.281 -0.646 Q 155.176 0.119 153.272 0.119 M 164.424 0.119 L 164.424 0.119 Q 163.557 0.119 162.809 -0.187 Q 162.061 -0.493 161.517 -1.105 L 161.517 -1.105 L 161.517 3.298 L 159.392 3.298 L 159.392 -9.078 L 161.415 -9.078 L 161.415 -7.888 Q 161.959 -8.551 162.732 -8.866 Q 163.506 -9.18 164.424 -9.18 L 164.424 -9.18 Q 165.75 -9.18 166.787 -8.611 Q 167.824 -8.041 168.427 -6.996 Q 169.031 -5.95 169.031 -4.539 L 169.031 -4.539 Q 169.031 -3.128 168.427 -2.083 Q 167.824 -1.037 166.787 -0.459 Q 165.75 0.119 164.424 0.119 M 164.186 -1.7 L 164.186 -1.7 Q 164.951 -1.7 165.554 -2.049 Q 166.158 -2.397 166.515 -3.035 Q 166.872 -3.672 166.872 -4.539 L 166.872 -4.539 Q 166.872 -5.406 166.515 -6.044 Q 166.158 -6.681 165.554 -7.03 Q 164.951 -7.378 164.186 -7.378 L 164.186 -7.378 Q 163.421 -7.378 162.809 -7.03 Q 162.197 -6.681 161.84 -6.044 Q 161.483 -5.406 161.483 -4.539 L 161.483 -4.539 Q 161.483 -3.672 161.84 -3.035 Q 162.197 -2.397 162.809 -2.049 Q 163.421 -1.7 164.186 -1.7 M 175.304 0.119 L 175.304 0.119 Q 173.91 0.119 172.822 -0.485 Q 171.734 -1.088 171.105 -2.134 Q 170.476 -3.179 170.476 -4.539 L 170.476 -4.539 Q 170.476 -5.899 171.105 -6.945 Q 171.734 -7.99 172.822 -8.585 Q 173.91 -9.18 175.304 -9.18 L 175.304 -9.18 Q 176.715 -9.18 177.811 -8.585 Q 178.908 -7.99 179.528 -6.945 Q 180.149 -5.899 180.149 -4.539 L 180.149 -4.539 Q 180.149 -3.179 179.528 -2.134 Q 178.908 -1.088 177.811 -0.485 Q 176.715 0.119 175.304 0.119 M 175.304 -1.7 L 175.304 -1.7 Q 176.477 -1.7 177.242 -2.465 Q 178.007 -3.23 178.007 -4.539 L 178.007 -4.539 Q 178.007 -5.848 177.242 -6.613 Q 176.477 -7.378 175.304 -7.378 L 175.304 -7.378 Q 174.539 -7.378 173.935 -7.03 Q 173.332 -6.681 172.975 -6.044 Q 172.618 -5.406 172.618 -4.539 L 172.618 -4.539 Q 172.618 -3.672 172.975 -3.035 Q 173.332 -2.397 173.935 -2.049 Q 174.539 -1.7 175.304 -1.7 M 184.484 0 L 182.359 0 L 182.359 -9.078 L 184.382 -9.078 L 184.382 -7.752 Q 185.317 -9.18 187.612 -9.18 L 187.612 -9.18 L 187.612 -7.157 Q 187.476 -7.174 187.357 -7.191 Q 187.238 -7.208 187.119 -7.208 L 187.119 -7.208 Q 185.912 -7.208 185.198 -6.503 Q 184.484 -5.797 184.484 -4.403 L 184.484 -4.403 L 184.484 0 M 193.086 0.119 L 193.086 0.119 Q 191.59 0.119 190.774 -0.655 Q 189.958 -1.428 189.958 -2.941 L 189.958 -2.941 L 189.958 -7.378 L 188.462 -7.378 L 188.462 -9.078 L 189.958 -9.078 L 189.958 -11.084 L 192.083 -11.084 L 192.083 -9.078 L 194.514 -9.078 L 194.514 -7.378 L 192.083 -7.378 L 192.083 -2.992 Q 192.083 -2.329 192.406 -1.981 Q 192.729 -1.632 193.341 -1.632 L 193.341 -1.632 Q 194.038 -1.632 194.531 -2.006 L 194.531 -2.006 L 195.126 -0.493 Q 194.735 -0.187 194.199 -0.034 Q 193.664 0.119 193.086 0.119 M 205.326 0.119 L 205.326 0.119 Q 203.83 0.119 203.014 -0.655 Q 202.198 -1.428 202.198 -2.941 L 202.198 -2.941 L 202.198 -7.378 L 200.702 -7.378 L 200.702 -9.078 L 202.198 -9.078 L 202.198 -11.084 L 204.323 -11.084 L 204.323 -9.078 L 206.754 -9.078 L 206.754 -7.378 L 204.323 -7.378 L 204.323 -2.992 Q 204.323 -2.329 204.646 -1.981 Q 204.969 -1.632 205.581 -1.632 L 205.581 -1.632 Q 206.278 -1.632 206.771 -2.006 L 206.771 -2.006 L 207.366 -0.493 Q 206.975 -0.187 206.439 -0.034 Q 205.904 0.119 205.326 0.119 M 213.554 0.119 L 213.554 0.119 Q 212.041 0.119 210.91 -0.485 Q 209.78 -1.088 209.159 -2.134 Q 208.539 -3.179 208.539 -4.539 L 208.539 -4.539 Q 208.539 -5.899 209.142 -6.945 Q 209.746 -7.99 210.808 -8.585 Q 211.871 -9.18 213.231 -9.18 L 213.231 -9.18 Q 214.557 -9.18 215.594 -8.602 Q 216.631 -8.024 217.226 -6.962 Q 217.821 -5.899 217.821 -4.488 L 217.821 -4.488 Q 217.821 -4.352 217.812 -4.182 Q 217.804 -4.012 217.787 -3.859 L 217.787 -3.859 L 210.664 -3.859 Q 210.851 -2.873 211.633 -2.278 Q 212.415 -1.683 213.605 -1.683 L 213.605 -1.683 Q 215.118 -1.683 216.07 -2.669 L 216.07 -2.669 L 217.209 -1.36 Q 215.951 0.119 213.554 0.119 M 210.647 -5.27 L 210.647 -5.27 L 215.798 -5.27 Q 215.662 -6.256 214.965 -6.868 Q 214.268 -7.48 213.231 -7.48 L 213.231 -7.48 Q 212.194 -7.48 211.497 -6.877 Q 210.8 -6.273 210.647 -5.27 M 213.588 -10.319 L 211.752 -10.319 L 214.047 -12.648 L 216.546 -12.648 L 213.588 -10.319 M 224.196 0.119 L 224.196 0.119 Q 222.768 0.119 221.654 -0.485 Q 220.541 -1.088 219.912 -2.134 Q 219.283 -3.179 219.283 -4.539 L 219.283 -4.539 Q 219.283 -5.899 219.912 -6.945 Q 220.541 -7.99 221.654 -8.585 Q 222.768 -9.18 224.196 -9.18 L 224.196 -9.18 Q 225.522 -9.18 226.533 -8.645 Q 227.545 -8.109 228.072 -7.072 L 228.072 -7.072 L 226.44 -6.12 Q 226.032 -6.766 225.445 -7.072 Q 224.859 -7.378 224.179 -7.378 L 224.179 -7.378 Q 223.006 -7.378 222.215 -6.613 Q 221.425 -5.848 221.425 -4.539 L 221.425 -4.539 Q 221.425 -3.213 222.215 -2.457 Q 223.006 -1.7 224.179 -1.7 L 224.179 -1.7 Q 224.859 -1.7 225.445 -2.006 Q 226.032 -2.312 226.44 -2.958 L 226.44 -2.958 L 228.072 -2.006 Q 227.545 -0.986 226.533 -0.434 Q 225.522 0.119 224.196 0.119 M 232.203 0 L 230.078 0 L 230.078 -9.078 L 232.101 -9.078 L 232.101 -7.905 Q 232.628 -8.534 233.435 -8.857 Q 234.243 -9.18 235.229 -9.18 L 235.229 -9.18 Q 236.317 -9.18 237.175 -8.755 Q 238.034 -8.33 238.527 -7.446 Q 239.02 -6.562 239.02 -5.202 L 239.02 -5.202 L 239.02 0 L 236.895 0 L 236.895 -4.93 Q 236.895 -6.137 236.325 -6.732 Q 235.756 -7.327 234.736 -7.327 L 234.736 -7.327 Q 233.597 -7.327 232.9 -6.639 Q 232.203 -5.95 232.203 -4.59 L 232.203 -4.59 L 232.203 0 M 244.018 0 L 241.893 0 L 241.893 -9.078 L 244.018 -9.078 L 244.018 0 M 242.964 -10.574 L 242.964 -10.574 Q 242.369 -10.574 241.986 -10.948 Q 241.604 -11.322 241.604 -11.849 L 241.604 -11.849 Q 241.604 -12.376 241.986 -12.75 Q 242.369 -13.124 242.964 -13.124 L 242.964 -13.124 Q 243.559 -13.124 243.941 -12.776 Q 244.324 -12.427 244.324 -11.9 L 244.324 -11.9 Q 244.324 -11.339 243.941 -10.957 Q 243.559 -10.574 242.964 -10.574 M 251.141 0.119 L 251.141 0.119 Q 249.713 0.119 248.599 -0.485 Q 247.486 -1.088 246.857 -2.134 Q 246.228 -3.179 246.228 -4.539 L 246.228 -4.539 Q 246.228 -5.899 246.857 -6.945 Q 247.486 -7.99 248.599 -8.585 Q 249.713 -9.18 251.141 -9.18 L 251.141 -9.18 Q 252.467 -9.18 253.478 -8.645 Q 254.49 -8.109 255.017 -7.072 L 255.017 -7.072 L 253.385 -6.12 Q 252.977 -6.766 252.39 -7.072 Q 251.804 -7.378 251.124 -7.378 L 251.124 -7.378 Q 249.951 -7.378 249.16 -6.613 Q 248.37 -5.848 248.37 -4.539 L 248.37 -4.539 Q 248.37 -3.213 249.16 -2.457 Q 249.951 -1.7 251.124 -1.7 L 251.124 -1.7 Q 251.804 -1.7 252.39 -2.006 Q 252.977 -2.312 253.385 -2.958 L 253.385 -2.958 L 255.017 -2.006 Q 254.49 -0.986 253.478 -0.434 Q 252.467 0.119 251.141 0.119 M 264.622 0 L 262.616 0 L 262.616 -1.088 Q 261.8 0.119 259.76 0.119 L 259.76 0.119 Q 258.196 0.119 257.286 -0.646 Q 256.377 -1.411 256.377 -2.601 L 256.377 -2.601 Q 256.377 -3.366 256.742 -3.978 Q 257.108 -4.59 257.941 -4.947 Q 258.774 -5.304 260.151 -5.304 L 260.151 -5.304 L 262.497 -5.304 L 262.497 -5.44 Q 262.497 -6.375 261.936 -6.894 Q 261.375 -7.412 260.236 -7.412 L 260.236 -7.412 Q 259.471 -7.412 258.731 -7.174 Q 257.992 -6.936 257.482 -6.511 L 257.482 -6.511 L 256.649 -8.058 Q 257.38 -8.619 258.391 -8.9 Q 259.403 -9.18 260.491 -9.18 L 260.491 -9.18 Q 262.463 -9.18 263.542 -8.237 Q 264.622 -7.293 264.622 -5.321 L 264.622 -5.321 L 264.622 0 M 262.497 -2.839 L 262.497 -2.839 L 262.497 -3.893 L 260.304 -3.893 Q 259.216 -3.893 258.842 -3.536 Q 258.468 -3.179 258.468 -2.686 L 258.468 -2.686 Q 258.468 -2.108 258.927 -1.768 Q 259.386 -1.428 260.202 -1.428 L 260.202 -1.428 Q 260.984 -1.428 261.604 -1.785 Q 262.225 -2.142 262.497 -2.839" fill="#9AA1AD"/></g><g transform="translate(80,600)"><g transform="scale(0.5)"><path d="M 247.00,134.41 Q 256.00,150.00 247.00,165.59 L 212.00,226.21 Q 203.00,241.80 185.00,241.80 L 115.00,241.80 Q 97.00,241.80 88.00,226.21 L 53.00,165.59 Q 44.00,150.00 53.00,134.41 L 88.00,73.79 Q 97.00,58.20 115.00,58.20 L 185.00,58.20 Q 203.00,58.20 212.00,73.79 Z" fill="none" stroke="#F2A623" stroke-width="12.3" stroke-linejoin="round"/><path d="M 118,198 L 118,117 L 150,170.46 L 182,117 L 182,198" fill="none" stroke="#F2A623" stroke-width="28" stroke-linecap="round" stroke-linejoin="round"/></g><g transform="translate(165,117.22739868852922)"><path d="M 64.622 -84.455 L 64.622 -84.455 L 84.061 -84.455 Q 86.819 -84.455 86.819 -81.697 L 86.819 -81.697 L 86.819 -2.758 Q 86.819 0 84.061 0 L 84.061 0 L 73.29 0 Q 70.532 0 70.532 -2.758 L 70.532 -2.758 L 70.532 -65.016 L 70.007 -65.016 L 56.61 -21.015 Q 55.822 -18.388 53.326 -18.388 L 53.326 -18.388 L 42.293 -18.388 Q 39.798 -18.388 39.009 -21.015 L 39.009 -21.015 L 25.35 -65.147 L 24.824 -65.147 L 24.824 -2.758 Q 24.824 -1.182 24.299 -0.591 Q 23.773 0 22.066 0 L 22.066 0 L 11.296 0 Q 8.537 0 8.537 -2.758 L 8.537 -2.758 L 8.537 -81.697 Q 8.537 -84.455 11.296 -84.455 L 11.296 -84.455 L 30.866 -84.455 Q 32.705 -84.455 33.362 -82.616 L 33.362 -82.616 L 47.284 -36.251 L 48.072 -36.251 L 62.126 -82.616 Q 62.52 -84.455 64.622 -84.455 M 153.28 0 L 153.28 0 L 124.252 0 Q 113.876 0 108.228 -5.516 Q 102.58 -11.033 102.58 -21.409 L 102.58 -21.409 L 102.58 -45.577 Q 102.58 -55.953 108.228 -61.469 Q 113.876 -66.986 124.252 -66.986 L 124.252 -66.986 L 134.629 -66.986 Q 145.005 -66.986 150.653 -61.469 Q 156.3 -55.953 156.3 -45.577 L 156.3 -45.577 L 156.3 -28.896 Q 156.3 -26.138 153.542 -26.138 L 153.542 -26.138 L 120.575 -26.138 Q 118.999 -26.138 118.999 -24.693 L 118.999 -24.693 L 118.999 -21.803 Q 118.999 -17.732 120.772 -15.958 Q 122.545 -14.185 126.748 -14.185 L 126.748 -14.185 L 153.28 -14.185 Q 156.038 -14.185 156.038 -11.296 L 156.038 -11.296 L 156.038 -2.627 Q 156.038 -1.182 155.447 -0.591 Q 154.856 0 153.28 0 M 120.575 -37.302 L 120.575 -37.302 L 138.438 -37.302 Q 139.882 -37.302 139.882 -38.747 L 139.882 -38.747 L 139.882 -45.051 Q 139.882 -49.254 138.175 -50.962 Q 136.467 -52.669 132.264 -52.669 L 132.264 -52.669 L 126.748 -52.669 Q 122.545 -52.669 120.837 -50.962 Q 119.13 -49.254 119.13 -45.051 L 119.13 -45.051 L 119.13 -38.747 Q 119.13 -37.302 120.575 -37.302 M 184.014 0 L 184.014 0 L 172.85 0 Q 170.092 0 170.092 -2.758 L 170.092 -2.758 L 170.092 -64.228 Q 170.092 -66.986 172.85 -66.986 L 172.85 -66.986 L 184.014 -66.986 Q 186.773 -66.986 186.773 -64.228 L 186.773 -64.228 L 186.773 -59.893 L 187.298 -59.893 Q 190.187 -66.986 200.17 -66.986 L 200.17 -66.986 L 204.373 -66.986 Q 224.994 -66.986 224.994 -45.577 L 224.994 -45.577 L 224.994 -2.758 Q 224.994 0 222.104 0 L 222.104 0 L 211.071 0 Q 208.313 0 208.313 -2.758 L 208.313 -2.758 L 208.313 -44.789 Q 208.313 -48.992 206.54 -50.765 Q 204.767 -52.538 200.564 -52.538 L 200.564 -52.538 L 195.835 -52.538 Q 186.773 -52.538 186.773 -42.556 L 186.773 -42.556 L 186.773 -2.758 Q 186.773 0 184.014 0" fill="#FFFFFF"/><path d="M 241.543 -52.538 L 241.543 -52.538 L 236.29 -52.538 Q 234.713 -52.538 234.122 -53.063 Q 233.531 -53.589 233.531 -55.165 L 233.531 -55.165 L 233.531 -64.228 Q 233.531 -66.986 236.29 -66.986 L 236.29 -66.986 L 241.543 -66.986 Q 242.988 -66.986 242.988 -68.431 L 242.988 -68.431 L 242.988 -80.908 Q 242.988 -83.667 245.878 -83.667 L 245.878 -83.667 L 256.911 -83.667 Q 259.669 -83.667 259.669 -80.908 L 259.669 -80.908 L 259.669 -68.431 Q 259.669 -66.986 261.245 -66.986 L 261.245 -66.986 L 271.49 -66.986 Q 274.248 -66.986 274.248 -64.228 L 274.248 -64.228 L 274.248 -55.165 Q 274.248 -53.72 273.657 -53.129 Q 273.066 -52.538 271.49 -52.538 L 271.49 -52.538 L 261.245 -52.538 Q 259.669 -52.538 259.669 -51.093 L 259.669 -51.093 L 259.669 -22.066 Q 259.669 -17.994 261.508 -16.221 Q 263.347 -14.448 267.55 -14.448 L 267.55 -14.448 L 272.803 -14.448 Q 275.562 -14.448 275.562 -11.69 L 275.562 -11.69 L 275.562 -2.627 Q 275.562 -1.182 274.971 -0.591 Q 274.38 0 272.803 0 L 272.803 0 L 264.791 0 Q 254.415 0 248.702 -5.516 Q 242.988 -11.033 242.988 -21.278 L 242.988 -21.278 L 242.988 -51.093 Q 242.988 -52.538 241.543 -52.538 M 319.825 0 L 319.825 0 L 308.135 0 Q 297.759 0 292.111 -5.516 Q 286.463 -11.033 286.463 -21.409 L 286.463 -21.409 L 286.463 -45.577 Q 286.463 -55.953 292.111 -61.469 Q 297.759 -66.986 308.135 -66.986 L 308.135 -66.986 L 319.825 -66.986 Q 330.07 -66.986 335.783 -61.404 Q 341.497 -55.822 341.497 -45.577 L 341.497 -45.577 L 341.497 -21.409 Q 341.497 -11.164 335.783 -5.582 Q 330.07 0 319.825 0 M 310.631 -14.317 L 310.631 -14.317 L 317.329 -14.317 Q 321.532 -14.317 323.306 -16.024 Q 325.079 -17.732 325.079 -21.935 L 325.079 -21.935 L 325.079 -45.051 Q 325.079 -49.254 323.306 -50.962 Q 321.532 -52.669 317.329 -52.669 L 317.329 -52.669 L 310.631 -52.669 Q 306.428 -52.669 304.72 -50.962 Q 303.013 -49.254 303.013 -45.051 L 303.013 -45.051 L 303.013 -21.935 Q 303.013 -17.732 304.72 -16.024 Q 306.428 -14.317 310.631 -14.317 M 369.867 0 L 369.867 0 L 358.703 0 Q 355.945 0 355.945 -2.758 L 355.945 -2.758 L 355.945 -64.228 Q 355.945 -66.986 358.703 -66.986 L 358.703 -66.986 L 369.867 -66.986 Q 372.626 -66.986 372.626 -64.228 L 372.626 -64.228 L 372.626 -59.762 L 373.151 -59.762 Q 374.596 -63.308 378.273 -65.147 Q 381.951 -66.986 386.023 -66.986 L 386.023 -66.986 L 390.751 -66.986 Q 393.378 -66.986 393.378 -64.228 L 393.378 -64.228 L 393.378 -55.165 Q 393.378 -53.589 392.787 -52.998 Q 392.196 -52.407 390.751 -52.538 L 390.751 -52.538 L 381.688 -52.538 Q 372.626 -52.538 372.626 -42.293 L 372.626 -42.293 L 372.626 -2.758 Q 372.626 0 369.867 0" fill="#F2A623"/><path d="M 440.006 -24.562 L 440.006 -24.562 L 440.006 -51.093 Q 440.006 -52.538 438.429 -52.538 L 438.429 -52.538 L 426.083 -52.538 Q 421.88 -52.538 420.172 -50.765 Q 418.465 -48.992 418.465 -44.789 L 418.465 -44.789 L 418.465 -22.197 Q 418.465 -17.994 420.172 -16.221 Q 421.88 -14.448 426.083 -14.448 L 426.083 -14.448 L 430.811 -14.448 Q 440.006 -14.448 440.006 -24.562 M 426.477 0 L 426.477 0 L 423.456 0 Q 413.08 0 407.432 -5.516 Q 401.784 -11.033 401.784 -21.409 L 401.784 -21.409 L 401.784 -45.577 Q 401.784 -55.953 407.432 -61.469 Q 413.08 -66.986 423.456 -66.986 L 423.456 -66.986 L 453.797 -66.986 Q 456.686 -66.986 456.686 -64.228 L 456.686 -64.228 L 456.686 15.236 Q 456.686 17.863 453.797 17.863 L 453.797 17.863 L 442.764 17.863 Q 440.006 17.863 440.006 15.236 L 440.006 15.236 L 440.006 -7.224 L 439.48 -7.224 Q 436.328 0 426.477 0 M 496.615 0 L 496.615 0 L 492.281 0 Q 482.167 0 476.979 -5.516 Q 471.791 -11.033 471.791 -21.409 L 471.791 -21.409 L 471.791 -64.228 Q 471.791 -66.986 474.549 -66.986 L 474.549 -66.986 L 485.714 -66.986 Q 488.472 -66.986 488.472 -64.228 L 488.472 -64.228 L 488.472 -22.197 Q 488.472 -17.994 490.245 -16.221 Q 492.018 -14.448 496.09 -14.448 L 496.09 -14.448 L 500.95 -14.448 Q 510.012 -14.448 510.012 -24.43 L 510.012 -24.43 L 510.012 -64.228 Q 510.012 -66.986 512.771 -66.986 L 512.771 -66.986 L 523.804 -66.986 Q 526.693 -66.986 526.693 -64.228 L 526.693 -64.228 L 526.693 -2.758 Q 526.693 0 523.804 0 L 523.804 0 L 512.771 0 Q 510.012 0 510.012 -2.758 L 510.012 -2.758 L 510.012 -7.093 L 509.487 -7.093 Q 508.042 -3.546 504.365 -1.773 Q 500.687 0 496.615 0 M 591.84 0 L 591.84 0 L 562.813 0 Q 552.437 0 546.789 -5.516 Q 541.141 -11.033 541.141 -21.409 L 541.141 -21.409 L 541.141 -45.577 Q 541.141 -55.953 546.789 -61.469 Q 552.437 -66.986 562.813 -66.986 L 562.813 -66.986 L 573.189 -66.986 Q 583.566 -66.986 589.213 -61.469 Q 594.861 -55.953 594.861 -45.577 L 594.861 -45.577 L 594.861 -28.896 Q 594.861 -26.138 592.103 -26.138 L 592.103 -26.138 L 559.135 -26.138 Q 557.559 -26.138 557.559 -24.693 L 557.559 -24.693 L 557.559 -21.803 Q 557.559 -17.732 559.332 -15.958 Q 561.106 -14.185 565.309 -14.185 L 565.309 -14.185 L 591.84 -14.185 Q 594.599 -14.185 594.599 -11.296 L 594.599 -11.296 L 594.599 -2.627 Q 594.599 -1.182 594.007 -0.591 Q 593.416 0 591.84 0 M 559.135 -37.302 L 559.135 -37.302 L 576.998 -37.302 Q 578.443 -37.302 578.443 -38.747 L 578.443 -38.747 L 578.443 -45.051 Q 578.443 -49.254 576.736 -50.962 Q 575.028 -52.669 570.825 -52.669 L 570.825 -52.669 L 565.309 -52.669 Q 561.106 -52.669 559.398 -50.962 Q 557.691 -49.254 557.691 -45.051 L 557.691 -45.051 L 557.691 -38.747 Q 557.691 -37.302 559.135 -37.302" fill="#FFFFFF"/></g></g></svg>