<svg xmlns="http://www.w3.org/2000/svg" width="900" height="300" viewBox="0 0 900 300">
<defs>
<linearGradient id="chrome" x1="0" y1="0" x2="0" y2="1">
<stop offset="0" stop-color="#fdfdfd"/><stop offset="0.5" stop-color="#c7ccd4"/><stop offset="0.52" stop-color="#9aa1ab"/><stop offset="1" stop-color="#e9ecf1"/>
</linearGradient>
<filter id="sh" x="-40%" y="-40%" width="180%" height="180%">
<feDropShadow dx="0" dy="6" stdDeviation="8" flood-color="#000" flood-opacity="0.35"/>
</filter>
</defs>
<rect width="900" height="300" fill="#16181D"/>
<path d="M 259.00,130.95 Q 270.00,150.00 259.00,169.05 L 221.00,234.87 Q 210.00,253.92 188.00,253.92 L 112.00,253.92 Q 90.00,253.92 79.00,234.87 L 41.00,169.05 Q 30.00,150.00 41.00,130.95 L 79.00,65.13 Q 90.00,46.08 112.00,46.08 L 188.00,46.08 Q 210.00,46.08 221.00,65.13 Z" fill="url(#chrome)" filter="url(#sh)"/>
<path d="M 108,210 L 108,96 L 150,158.7 L 192,96 L 192,210" fill="none" stroke="#16181D" stroke-width="34" stroke-linecap="round" stroke-linejoin="round"/>
<path transform="translate(330,180)" d="M16.192 0L4.480 0L4.480-44.800L14.912-44.800L30.656-18.880L46.016-44.800L56.448-44.800L56.576 0L44.928 0L44.800-23.744L33.280-4.416L27.648-4.416L16.192-23.104 M82.496 0.576Q76.352 0.576 71.776-1.760Q67.200-4.096 64.672-8.160Q62.144-12.224 62.144-17.408Q62.144-22.592 64.640-26.624Q67.136-30.656 71.456-32.960Q75.776-35.264 81.216-35.264Q86.336-35.264 90.560-33.152Q94.784-31.040 97.280-27.040Q99.776-23.040 99.776-17.280Q99.776-16.640 99.712-15.808Q99.648-14.976 99.584-14.272L74.368-14.272Q75.136-11.648 77.344-10.176Q79.552-8.704 82.880-8.704Q85.440-8.704 87.264-9.440Q89.088-10.176 90.880-11.712L97.280-5.056Q92.224 0.576 82.496 0.576M74.176-20.672L88.384-20.672Q87.872-23.424 85.984-25.024Q84.096-26.624 81.280-26.624Q78.464-26.624 76.576-25.024Q74.688-23.424 74.176-20.672 M116.928 0L104.768 0L104.768-34.688L116.352-34.688L116.352-30.912Q118.400-33.088 121.248-34.176Q124.096-35.264 127.360-35.264Q131.392-35.264 134.656-33.632Q137.920-32 139.808-28.608Q141.696-25.216 141.696-19.840L141.696 0L129.536 0L129.536-17.856Q129.536-21.568 128-23.264Q126.464-24.960 123.840-24.960Q120.896-24.960 118.912-23.008Q116.928-21.056 116.928-16.768" fill="#FFFFFF"/><path transform="translate(330,180)" d="M164.160 0.576Q157.504 0.576 153.792-2.720Q150.080-6.016 150.080-12.672L150.080-25.664L145.024-25.664L145.024-34.688L150.080-34.688L150.080-42.432L162.240-42.432L162.240-34.688L170.176-34.688L170.176-25.664L162.240-25.664L162.240-12.800Q162.240-10.880 163.232-9.856Q164.224-8.832 165.888-8.832Q168-8.832 169.600-9.920L172.608-1.408Q171.008-0.384 168.768 0.096Q166.528 0.576 164.160 0.576 M194.048 0.576Q188.352 0.576 183.936-1.728Q179.520-4.032 176.992-8.096Q174.464-12.160 174.464-17.408Q174.464-22.592 176.992-26.656Q179.520-30.720 183.936-32.992Q188.352-35.264 194.048-35.264Q199.744-35.264 204.192-32.992Q208.640-30.720 211.136-26.656Q213.632-22.592 213.632-17.408Q213.632-12.160 211.136-8.096Q208.640-4.032 204.192-1.728Q199.744 0.576 194.048 0.576M194.048-9.088Q197.184-9.088 199.264-11.264Q201.344-13.440 201.344-17.408Q201.344-21.312 199.264-23.456Q197.184-25.600 194.048-25.600Q190.976-25.600 188.864-23.456Q186.752-21.312 186.752-17.408Q186.752-13.440 188.864-11.264Q190.976-9.088 194.048-9.088 M230.784 0L218.624 0L218.624-34.688L230.208-34.688L230.208-30.528Q233.984-35.264 241.856-35.264L241.856-24.320Q240.320-24.512 239.104-24.512Q235.392-24.512 233.088-22.496Q230.784-20.480 230.784-15.936" fill="#F2A623"/><path transform="translate(330,180)" d="M261.184 0.576Q256.448 0.576 252.608-1.600Q248.768-3.776 246.464-7.808Q244.160-11.840 244.160-17.344Q244.160-22.848 246.464-26.880Q248.768-30.912 252.608-33.088Q256.448-35.264 261.184-35.264Q267.968-35.264 271.424-31.232L271.424-34.688L283.008-34.688L283.008 12.416L270.848 12.416L270.848-3.008Q267.328 0.576 261.184 0.576M263.744-9.088Q266.816-9.088 268.928-11.232Q271.040-13.376 271.040-17.344Q271.040-21.248 268.928-23.424Q266.816-25.600 263.744-25.600Q260.672-25.600 258.560-23.424Q256.448-21.248 256.448-17.344Q256.448-13.376 258.560-11.232Q260.672-9.088 263.744-9.088 M304.768 0.576Q300.480 0.576 297.152-1.120Q293.824-2.816 291.936-6.304Q290.048-9.792 290.048-15.296L290.048-34.688L302.208-34.688L302.208-17.280Q302.208-13.248 303.744-11.520Q305.280-9.792 307.968-9.792Q310.656-9.792 312.576-11.712Q314.496-13.632 314.496-17.984L314.496-34.688L326.656-34.688L326.656 0L315.072 0L315.072-3.712Q313.088-1.536 310.400-0.480Q307.712 0.576 304.768 0.576 M352 0.576Q345.856 0.576 341.280-1.760Q336.704-4.096 334.176-8.160Q331.648-12.224 331.648-17.408Q331.648-22.592 334.144-26.624Q336.640-30.656 340.960-32.960Q345.280-35.264 350.720-35.264Q355.840-35.264 360.064-33.152Q364.288-31.040 366.784-27.040Q369.280-23.040 369.280-17.280Q369.280-16.640 369.216-15.808Q369.152-14.976 369.088-14.272L343.872-14.272Q344.640-11.648 346.848-10.176Q349.056-8.704 352.384-8.704Q354.944-8.704 356.768-9.440Q358.592-10.176 360.384-11.712L366.784-5.056Q361.728 0.576 352 0.576M343.680-20.672L357.888-20.672Q357.376-23.424 355.488-25.024Q353.600-26.624 350.784-26.624Q347.968-26.624 346.080-25.024Q344.192-23.424 343.680-20.672" fill="#FFFFFF"/>
</svg>